<?xml version="1.0" encoding="UTF-8"?>
<svg xmlns="http://www.w3.org/2000/svg" version="1.1" viewBox="0 0 80 80">
  <defs>
    <style>
      .cls-1 {
        fill: #14b3c5;
      }

      .cls-2 {
        fill: #6db33e;
      }
    </style>
  </defs>
  <!-- Generator: Adobe Illustrator 28.7.1, SVG Export Plug-In . SVG Version: 1.2.0 Build 142)  -->
  <g>
    <g id="Group_5">
      <g>
        <path id="Path_36" class="cls-2" d="M74.8,17.2l-.2-2.1c0-.7-.6-1.2-1.3-1.2h-2.1c-8.4-.3-15.1.8-20.4,3.1-4.2,1.9-7.8,4.8-10.4,8.5-2.3,3.3-3.8,7-4.4,10.9-.5,2.9-.8,5.9-.8,8.8,0,3.7,0,19.5,0,19.7,0,.7.6,1.4,1.3,1.4h4.7s0,0,0,0c.7,0,1.3-.6,1.4-1.3,0,0,0-5.4,0-10.6h3.3c.3-.1,8.2-.4,13-2.7,7-3.3,11.6-8.1,14-14.6,2.9-7.8,2-19.3,1.9-19.8M66,34.4c-1.7,4.6-5.1,8.1-10.3,10.6-2.8,1.4-8.4,1.8-10.1,1.9h-3c0-.6,0-1.2,0-1.6,0-3.8.5-10.9,3.8-15.4,3.1-4.1,8-8.4,21.2-8.7,0,3.3-.1,9.2-1.6,13.3"/>
        <path id="Path_37" class="cls-1" d="M30.8,30.3c-5.1-6.8-12.8-9.8-22.4-8.6l-1.8.2c-.6,0-1.1.6-1.2,1.2l-.2,1.8c-.2,2.4-.2,4.8,0,7.1.6,5.5,2.4,9.7,5.4,12.5,5.8,5.2,11.1,5.6,15.8,5.8v14.6c0,.7.6,1.3,1.4,1.3h4.7c.7,0,1.4-.6,1.4-1.3h0v-21.2c0-1.6,0-9.5-3-13.4M26.4,42.9c-4-.2-7.1-.5-10.8-3.9-1.5-1.4-3.1-4.8-3.2-10.3,5.4,0,9.6,2,12.5,5.9.9,1.1,1.5,5.1,1.5,8.2"/>
      </g>
    </g>
  </g>
</svg>