<svg id="Group_46" data-name="Group 46" xmlns="http://www.w3.org/2000/svg" xmlns:xlink="http://www.w3.org/1999/xlink" width="150.004" height="184.115" viewBox="0 0 150.004 184.115">
  <defs>
    <clipPath id="clip-path">
      <rect id="Rectangle_42" data-name="Rectangle 42" width="150.004" height="184.114" fill="none"/>
    </clipPath>
  </defs>
  <g id="Group_45" data-name="Group 45" clip-path="url(#clip-path)">
    <path id="Path_223" data-name="Path 223" d="M103.117,24.55a19.007,19.007,0,0,1,4.63-1.648,20.72,20.72,0,0,0,3.461,9.623,2.7,2.7,0,1,0,4.469-3.021,15.465,15.465,0,1,1,25.654,0,2.7,2.7,0,1,0,4.469,3.021A20.723,20.723,0,0,0,149.26,22.9,19.1,19.1,0,0,1,156.9,56.669a2.7,2.7,0,1,0,3.306,4.263c.116-.09.229-.184.345-.277a20.486,20.486,0,0,0-.116,2.156,24.163,24.163,0,0,0,4.308,13.223c-.813-.071-1.633-.112-2.459-.112A28.051,28.051,0,0,0,147.4,80.176a2.7,2.7,0,0,0,2.858,4.576,22.782,22.782,0,0,1,20.89-1.645l.008,0a22.627,22.627,0,0,1,7.72,5.4,2.7,2.7,0,0,0,3.939-3.686,28.063,28.063,0,0,0-2.5-2.362,19.341,19.341,0,0,0,8.978-4.907c6.569-6.576,6.185-17.231,6.164-17.68A2.7,2.7,0,0,0,192.88,57.3a30.016,30.016,0,0,0-9.312,1.32c-1.856-9.258-9.175-16.068-9.529-16.394a2.7,2.7,0,0,0-3.645,0c-.061.057-.327.3-.728.716.025-.457.04-.916.04-1.375A24.544,24.544,0,0,0,149.07,17.381a20.86,20.86,0,0,0-41.136,0,24.227,24.227,0,0,0-7.267,2.364,2.7,2.7,0,0,0,2.45,4.806m82.359,49.192a14.058,14.058,0,0,1-6.654,3.53,25.439,25.439,0,0,0,5.118-13.067,23.641,23.641,0,0,1,5.993-1.392c-.313,2.983-1.309,7.778-4.457,10.929m-13.26-25.59c2.418,2.832,6.383,8.422,6.383,14.658s-4.009,11.447-6.383,13.983c-2.379-2.538-6.385-7.741-6.385-13.983s3.967-11.827,6.385-14.658" transform="translate(-48.034)" fill="#18604e"/>
    <path id="Path_224" data-name="Path 224" d="M165.742,209.466c3.373-6.651,2.453-14.315,2.405-14.693a2.706,2.706,0,0,0-2.785-2.354,27.068,27.068,0,0,0-3.8.506,28.154,28.154,0,0,0-.9-6.879,2.7,2.7,0,1,0-5.218,1.362,22.822,22.822,0,0,1,.732,5.752c0,.465-.017.927-.042,1.387a20.206,20.206,0,0,0-7.865,5.5,20.589,20.589,0,0,0-4.457,12.226,20.7,20.7,0,0,0-7.988-1.929,2.7,2.7,0,1,0-.209,5.39,15.466,15.466,0,0,1,14.522,12.272,2.7,2.7,0,1,0,5.28-1.105,20.707,20.707,0,0,0-3.238-7.561,21.5,21.5,0,0,0,9.936-5,22.744,22.744,0,0,1-27.724,30.334,35.65,35.65,0,0,0-.306-15.1,2.7,2.7,0,0,0-5.246,1.255A30,30,0,0,1,70.7,245.686c0-.013-.009-.026-.013-.039a30.285,30.285,0,0,1-.205-14.811,2.7,2.7,0,0,0-5.246-1.253,35.651,35.651,0,0,0-.305,15.094,22.767,22.767,0,0,1-20.92-4.016,2.7,2.7,0,0,0-3.384,4.2,28.158,28.158,0,0,0,25.745,5.014,35.4,35.4,0,0,0,66.575,0,28.12,28.12,0,0,0,32.8-40.41m-16.588,4.946c-.08-2.787.307-7.43,3.227-10.885,2.9-3.426,7.575-4.814,10.515-5.364-.055,2.991-.643,7.837-3.538,11.262s-7.435,4.594-10.2,4.987" transform="translate(-19.184 -89.113)" fill="#18604e"/>
    <path id="Path_225" data-name="Path 225" d="M16.327,156.554c-.246-12.208,10.5-22.981,22.732-22.732a2.7,2.7,0,1,0,0-5.394,28.349,28.349,0,0,0-6.632.783,22.747,22.747,0,0,0,2.6-10.3,23.922,23.922,0,0,0-2.375-10.032,22.6,22.6,0,0,1,5.159-3.049l.013-.008a22.778,22.778,0,0,1,20.883,1.646,2.7,2.7,0,0,0,2.858-4.575,28.132,28.132,0,0,0-23.741-2.823,18.912,18.912,0,0,1-2.611-9.632,19.194,19.194,0,0,1,6.9-14.684,24.554,24.554,0,0,0,6.651,7.895,2.7,2.7,0,1,0,3.306-4.263,19.111,19.111,0,0,1-4.9-24.559,2.7,2.7,0,1,0-4.682-2.676,24.391,24.391,0,0,0-1.353,2.762,17.782,17.782,0,0,0-1.284-1.444c-6.971-6.966-18.278-6.561-18.754-6.54a2.7,2.7,0,0,0-2.579,2.577c-.021.478-.429,11.788,6.538,18.759a21.277,21.277,0,0,0,11.262,5.585,24.594,24.594,0,0,0-6.491,16.588,24.264,24.264,0,0,0,3.042,11.825,28.217,28.217,0,0,0-2.9,1.89,35.7,35.7,0,0,0-4.888-5.827,2.7,2.7,0,0,0-3.644,0c-.354.326-7.673,7.136-9.529,16.394A29.977,29.977,0,0,0,2.585,113.4,2.7,2.7,0,0,0,.01,115.98c-.021.449-.4,11.1,6.168,17.68A20.19,20.19,0,0,0,17.1,138.984a28.146,28.146,0,0,0-3.966,28.479,2.7,2.7,0,1,0,4.97-2.092,22.588,22.588,0,0,1-1.774-8.817m7.69-104.117c3.189.3,8.5,1.34,12.017,4.849a14.272,14.272,0,0,1,3.286,5.409q-.05.8-.051,1.592a24.488,24.488,0,0,0,.429,4.576c-3.044-.249-7.617-1.193-10.833-4.409-3.51-3.512-4.547-8.829-4.849-12.016m-.766,51.819c2.418,2.832,6.383,8.422,6.383,14.658s-4.008,11.447-6.383,13.983c-2.379-2.538-6.385-7.741-6.385-13.983s3.967-11.828,6.385-14.658M5.524,118.917a23.557,23.557,0,0,1,6,1.392,25.426,25.426,0,0,0,5.117,13.067,14.08,14.08,0,0,1-6.653-3.53c-3.172-3.175-4.162-7.953-4.467-10.929" transform="translate(0 -22.721)" fill="#18604e"/>
    <path id="Path_226" data-name="Path 226" d="M145.789,88.189a2.7,2.7,0,0,0-3.645,0,30.127,30.127,0,0,0-5.65,7.52c-7.859-5.233-17.849-4.873-18.33-4.855a2.7,2.7,0,0,0-2.577,2.577c-.025.552-.495,13.586,7.514,21.595,6.206,6.207,15.05,6.975,19.043,6.975,1.2,0,1.963-.07,2.085-.08a2.7,2.7,0,0,0,1.506-.65c.783-.66,8.2-7.14,8.2-16.22,0-9.3-7.81-16.556-8.142-16.862m-24.724,8.145c3.714.29,10.472,1.442,14.878,5.849s5.261,10.928,5.374,14.4c-3.476-.115-9.988-.959-14.4-5.373s-5.559-11.168-5.851-14.879m25.264,15.92a25.441,25.441,0,0,0-5.621-12.859,23.546,23.546,0,0,1,3.259-5.227c1.89,2.318,4.568,6.4,4.57,10.885a14.077,14.077,0,0,1-2.209,7.2" transform="translate(-55.965 -42.361)" fill="#18604e"/>
    <path id="Path_227" data-name="Path 227" d="M129.712,243.829a2.7,2.7,0,0,0,3.787.467,15.473,15.473,0,0,1,19.012,0,2.7,2.7,0,0,0,3.319-4.251,20.692,20.692,0,0,0-7.348-3.684,20.6,20.6,0,0,0,4.484-12.212c0-9.295-7.807-16.558-8.14-16.863a2.7,2.7,0,0,0-3.644,0c-.332.305-8.14,7.568-8.14,16.863a20.607,20.607,0,0,0,4.485,12.212,20.724,20.724,0,0,0-7.349,3.684,2.7,2.7,0,0,0-.466,3.785M143,213.271c1.888,2.33,4.574,6.424,4.574,10.877,0,4.493-2.716,8.309-4.576,10.4-1.86-2.077-4.562-5.874-4.562-10.4,0-4.481,2.674-8.557,4.565-10.877" transform="translate(-62.535 -100.032)" fill="#18604e"/>
  </g>
</svg>
