<svg id="Group_27" data-name="Group 27" xmlns="http://www.w3.org/2000/svg" xmlns:xlink="http://www.w3.org/1999/xlink" width="186.727" height="139.179" viewBox="0 0 186.727 139.179">
  <defs>
    <clipPath id="clip-path">
      <rect id="Rectangle_32" data-name="Rectangle 32" width="186.727" height="139.179" fill="none"/>
    </clipPath>
  </defs>
  <g id="Group_26" data-name="Group 26" clip-path="url(#clip-path)">
    <path id="Path_79" data-name="Path 79" d="M21.1,563.282a1.263,1.263,0,0,0,.209,2.015,6.908,6.908,0,0,1,2.148,1.943,8.324,8.324,0,0,1,1.517,5.008,8.517,8.517,0,0,1-2.743,6.483,10.107,10.107,0,0,1-7.147,2.577H1.275A1.275,1.275,0,0,1,0,580.032v-28.16A1.275,1.275,0,0,1,1.275,550.6h13.1a9.037,9.037,0,0,1,6.607,2.286,7.086,7.086,0,0,1,2.368,5.319A6.783,6.783,0,0,1,22.19,562a6.538,6.538,0,0,1-1.089,1.278m-8.178-6.119H8.879A1.275,1.275,0,0,0,7.6,558.438v2.645a1.275,1.275,0,0,0,1.275,1.275h3.712a3.4,3.4,0,0,0,2.348-.727,2.421,2.421,0,0,0,.811-1.891,2.455,2.455,0,0,0-.769-1.828,2.825,2.825,0,0,0-2.057-.748M7.6,573.383a1.275,1.275,0,0,0,1.275,1.275h4.543a3.707,3.707,0,0,0,2.66-.872A2.869,2.869,0,0,0,17,571.624a2.917,2.917,0,0,0-.914-2.2,3.463,3.463,0,0,0-2.494-.872H8.879A1.275,1.275,0,0,0,7.6,569.824Z" transform="translate(0 -442.752)" fill="#fff"/>
    <path id="Path_80" data-name="Path 80" d="M137.895,545.414a4.121,4.121,0,0,1-4.239-4.239,3.96,3.96,0,0,1,1.226-2.971,4.169,4.169,0,0,1,3.013-1.184,4.1,4.1,0,0,1,2.992,1.184,4,4,0,0,1,1.205,2.971,4.113,4.113,0,0,1-1.205,3.034,4.063,4.063,0,0,1-2.992,1.205m3.7,3.293v20.424a1.257,1.257,0,0,1-1.257,1.257H135.5a1.257,1.257,0,0,1-1.257-1.257V548.708a1.257,1.257,0,0,1,1.257-1.257h4.841a1.257,1.257,0,0,1,1.257,1.257" transform="translate(-107.477 -431.834)" fill="#fff"/>
    <path id="Path_81" data-name="Path 81" d="M193.222,611.1a12.2,12.2,0,0,1-9.018-3.491,12.452,12.452,0,0,1,0-17.2,12.128,12.128,0,0,1,9.018-3.532,11.957,11.957,0,0,1,9.017,3.532,12.345,12.345,0,0,1,0,17.2,12.118,12.118,0,0,1-9.017,3.491m0-6.857a5.024,5.024,0,0,0,3.7-1.5,5.3,5.3,0,0,0,1.5-3.781,5.174,5.174,0,1,0-10.347,0,5.3,5.3,0,0,0,1.5,3.781,4.975,4.975,0,0,0,3.657,1.5" transform="translate(-145.351 -471.925)" fill="#fff"/>
    <path id="Path_82" data-name="Path 82" d="M318.506,579.971a16.152,16.152,0,0,1-11.74-4.523,1.318,1.318,0,0,1-.156-1.688l2.434-3.548a1.323,1.323,0,0,1,1.938-.266,11.665,11.665,0,0,0,7.648,2.878,4.662,4.662,0,0,0,2.452-.6,1.842,1.842,0,0,0,1-1.641q0-1.454-2.493-2.369l-2.743-.914a39.891,39.891,0,0,1-3.906-1.579q-5.07-2.7-5.07-7.979a8.5,8.5,0,0,1,3.2-6.774,12.318,12.318,0,0,1,8.228-2.7,16.614,16.614,0,0,1,9.936,3.1,1.333,1.333,0,0,1,.372,1.78l-2.26,3.689a1.334,1.334,0,0,1-1.833.43A12.38,12.38,0,0,0,323.2,556.2a11.592,11.592,0,0,0-3.782-.707,4.434,4.434,0,0,0-2.41.561,1.662,1.662,0,0,0-.872,1.434q0,1.331,2.452,2.286l2.7,1q2.244.79,3.533,1.33,5.859,2.494,5.859,8.062a8.9,8.9,0,0,1-3.325,7.065q-3.283,2.742-8.851,2.743" transform="translate(-246.366 -440.876)" fill="#fff"/>
    <path id="Path_83" data-name="Path 83" d="M443.878,577.213h-4.65a1.332,1.332,0,0,1-1.332-1.332V546.838a1.332,1.332,0,0,1,1.332-1.332h4.484a1.332,1.332,0,0,1,1.332,1.332v7.273a1.323,1.323,0,0,0,2.088,1.073q.348-.236.738-.452a8.865,8.865,0,0,1,4.363-1.08,8.769,8.769,0,0,1,6.275,2.452q2.576,2.452,2.576,7.023v12.756a1.332,1.332,0,0,1-1.332,1.332h-4.692a1.332,1.332,0,0,1-1.332-1.332v-10.8a5.163,5.163,0,0,0-1.08-3.491,3.7,3.7,0,0,0-2.951-1.247,4.21,4.21,0,0,0-3.241,1.351,5.032,5.032,0,0,0-1.247,3.553v10.637a1.332,1.332,0,0,1-1.332,1.332" transform="translate(-352.125 -438.658)" fill="#fff"/>
    <path id="Path_84" data-name="Path 84" d="M570.065,545.414a4.121,4.121,0,0,1-4.238-4.239,3.959,3.959,0,0,1,1.226-2.971,4.17,4.17,0,0,1,3.013-1.184,4.1,4.1,0,0,1,2.992,1.184,4,4,0,0,1,1.205,2.971,4.113,4.113,0,0,1-1.205,3.034,4.063,4.063,0,0,1-2.992,1.205m3.7,3.375v20.262a1.339,1.339,0,0,1-1.339,1.339h-4.678a1.339,1.339,0,0,1-1.339-1.339V548.789a1.339,1.339,0,0,1,1.339-1.339h4.678a1.339,1.339,0,0,1,1.339,1.339" transform="translate(-454.999 -431.834)" fill="#fff"/>
    <path id="Path_85" data-name="Path 85" d="M637.158,598.77a17.638,17.638,0,0,1-.123,2.049,1.022,1.022,0,0,1-1.014.9H622.207a1.021,1.021,0,0,0-.8,1.657,5.623,5.623,0,0,0,4.735,1.959,12.217,12.217,0,0,0,6.07-1.588,1.023,1.023,0,0,1,1.391.368l1.868,3.221a1.019,1.019,0,0,1-.33,1.37,17.041,17.041,0,0,1-9.332,2.612q-6.068,0-9.392-3.449a11.88,11.88,0,0,1-3.283-8.519,11.66,11.66,0,0,1,3.408-8.6,13.094,13.094,0,0,1,17.287-.374,10.874,10.874,0,0,1,3.325,8.394m-11.76-5.61a4.757,4.757,0,0,0-4.146,1.909,1.021,1.021,0,0,0,.821,1.623H628.6a1.02,1.02,0,0,0,.833-1.607,4.408,4.408,0,0,0-.963-.99,4.979,4.979,0,0,0-3.075-.935" transform="translate(-493.044 -472.267)" fill="#fff"/>
    <path id="Path_86" data-name="Path 86" d="M750.5,546.89v28.939a1.384,1.384,0,0,1-1.384,1.384h-4.546a1.384,1.384,0,0,1-1.384-1.384V546.89a1.384,1.384,0,0,1,1.384-1.384h4.546a1.384,1.384,0,0,1,1.384,1.384" transform="translate(-597.621 -438.658)" fill="#fff"/>
    <path id="Path_87" data-name="Path 87" d="M805.577,554.734v-8.6a.625.625,0,0,1,.625-.625h6.106a.625.625,0,0,1,.625.625v30.458a.625.625,0,0,1-.625.625h-5.9a.625.625,0,0,1-.625-.625v0a.626.626,0,0,0-1.01-.492,8.769,8.769,0,0,1-5.389,1.7,10.458,10.458,0,0,1-8.021-3.408,13.219,13.219,0,0,1,0-17.246,10.566,10.566,0,0,1,8.021-3.449,8.794,8.794,0,0,1,5.214,1.564.626.626,0,0,0,.977-.521M800.631,571.1a4.969,4.969,0,0,0,3.74-1.558,5.337,5.337,0,0,0,1.5-3.844,5.215,5.215,0,0,0-1.5-3.782,5,5,0,0,0-3.74-1.537,4.94,4.94,0,0,0-3.74,1.579,5.165,5.165,0,0,0-1.5,3.74,5.409,5.409,0,0,0,1.5,3.865,5,5,0,0,0,3.74,1.537" transform="translate(-633.787 -438.657)" fill="#fff"/>
    <path id="Path_88" data-name="Path 88" d="M922.569,548.523a3,3,0,0,1,.409-1.521,3.057,3.057,0,0,1,.47-.611,2.952,2.952,0,0,1,.611-.473,3.1,3.1,0,0,1,.72-.3,2.993,2.993,0,0,1,1.6,0,3.052,3.052,0,0,1,.72.3,3.011,3.011,0,0,1,1.08,1.082,3.088,3.088,0,0,1,.3.724,2.959,2.959,0,0,1,.109.8,2.916,2.916,0,0,1-.109.8,3.069,3.069,0,0,1-.3.718,2.957,2.957,0,0,1-.471.607,3.053,3.053,0,0,1-.609.469,3.011,3.011,0,0,1-4.424-1.8,2.963,2.963,0,0,1-.107-.8m.463,0a2.477,2.477,0,0,0,.2.993,2.553,2.553,0,0,0,1.357,1.355,2.57,2.57,0,0,0,1.671.109,2.565,2.565,0,0,0,.607-.257,2.608,2.608,0,0,0,.516-.4,2.523,2.523,0,0,0,.4-.514,2.551,2.551,0,0,0,.257-.609,2.517,2.517,0,0,0,.091-.678,2.45,2.45,0,0,0-.2-.989,2.585,2.585,0,0,0-1.357-1.357,2.449,2.449,0,0,0-.989-.2,2.51,2.51,0,0,0-.678.091,2.578,2.578,0,0,0-.611.257,2.5,2.5,0,0,0-.516.4,2.617,2.617,0,0,0-.4.516,2.559,2.559,0,0,0-.257.609,2.507,2.507,0,0,0-.091.674m1.467,1.673a.148.148,0,0,1-.077-.02c-.023-.013-.034-.043-.034-.091v-3.149a.12.12,0,0,1,.134-.138h1.27a1.092,1.092,0,0,1,.435.095,1.121,1.121,0,0,1,.35.245,1.16,1.16,0,0,1,.233.356,1.1,1.1,0,0,1,.085.431,1.123,1.123,0,0,1-.16.583,1.209,1.209,0,0,1-.182.233,1.127,1.127,0,0,1-.235.18l.546,1.131.018.036a.09.09,0,0,1,.01.04.06.06,0,0,1-.028.045.214.214,0,0,1-.119.022h-.174a.147.147,0,0,1-.085-.026.3.3,0,0,1-.065-.059.373.373,0,0,1-.045-.069c-.012-.024-.021-.042-.026-.055q-.111-.241-.222-.477l-.226-.477-.132.014c-.043,0-.088.006-.132.006h-.823v1.032a.1.1,0,0,1-.034.087.124.124,0,0,1-.073.024Zm1.962-2.27a.7.7,0,0,0-.052-.265.746.746,0,0,0-.142-.225.677.677,0,0,0-.216-.156.641.641,0,0,0-.271-.057h-.965v1.4h.965a.647.647,0,0,0,.267-.055.674.674,0,0,0,.215-.15.726.726,0,0,0,.144-.22.669.669,0,0,0,.053-.267" transform="translate(-741.866 -438.657)" fill="#fff"/>
    <path id="Path_89" data-name="Path 89" d="M476.654,10h0Z" transform="translate(-383.292 -8.045)" fill="#fff"/>
    <path id="Path_90" data-name="Path 90" d="M301.361,100.285a1.95,1.95,0,0,1-.37-.035A52.183,52.183,0,0,1,258.661,49V14.724a1.959,1.959,0,0,1,1.373-1.869L300.713.11a2.122,2.122,0,0,1,.647-.11h0a1.958,1.958,0,0,1,.646.11l40.678,12.745a1.959,1.959,0,0,1,1.373,1.869V49a52.184,52.184,0,0,1-42.329,51.245,1.948,1.948,0,0,1-.37.035M262.578,16.162V49A48.332,48.332,0,0,0,301.361,96.33,48.332,48.332,0,0,0,340.142,49V16.162L301.361,4.012Z" transform="translate(-207.997)" fill="#fff"/>
    <path id="Path_91" data-name="Path 91" d="M346.392,136.253a1.974,1.974,0,0,1-.473-.057,41.275,41.275,0,0,1-31.258-40V69.977a1.958,1.958,0,0,1,1.373-1.868l29.772-9.328a1.962,1.962,0,0,1,1.171,0l29.772,9.328a1.957,1.957,0,0,1,1.373,1.868V96.2a41.273,41.273,0,0,1-4.8,19.274,1.959,1.959,0,0,1-3.461-1.836A37.331,37.331,0,0,0,374.2,96.2V71.416L346.391,62.7l-27.813,8.714V96.2a37.232,37.232,0,0,0,27.813,36.072,36.954,36.954,0,0,0,12.591-6.019,1.959,1.959,0,1,1,2.323,3.154,40.874,40.874,0,0,1-14.441,6.788,1.971,1.971,0,0,1-.472.057" transform="translate(-253.028 -47.195)" fill="#fff"/>
    <path id="Path_92" data-name="Path 92" d="M405.674,254.293" transform="translate(-326.215 -204.485)" fill="#1a1818"/>
    <path id="Path_93" data-name="Path 93" d="M571.839,375.019a1.959,1.959,0,1,1,1.385-.574,1.968,1.968,0,0,1-1.385.574" transform="translate(-458.258 -298.414)" fill="#fff"/>
    <path id="Path_94" data-name="Path 94" d="M486.794,165.378l-.121-1.419a.918.918,0,0,0-.891-.84l-1.424-.037c-5.726-.148-10.256.56-13.843,2.168a17.347,17.347,0,0,0-7.074,5.777,18.169,18.169,0,0,0-3.01,7.422,32.326,32.326,0,0,0-.547,6.019c0,2.551-.056,13.29-.057,13.395a.918.918,0,0,0,.913.923l3.183.015h0a.918.918,0,0,0,.918-.913c0-.062.018-3.675.033-7.209l2.222-.079c.226-.007,5.572-.2,8.846-1.773a17.746,17.746,0,0,0,9.523-9.942c1.99-5.282,1.351-13.173,1.323-13.507m-6.02,11.737a12.96,12.96,0,0,1-7,7.187c-1.919.922-5.678,1.242-6.845,1.281l-2.03.072c0-.482,0-.886,0-1.18,0-2.611.344-7.443,2.577-10.47,2.083-2.823,5.431-5.711,14.409-5.913.033,2.27-.08,6.278-1.115,9.023" transform="translate(-369.762 -131.123)" fill="#fff"/>
    <path id="Path_95" data-name="Path 95" d="M372.74,195.763c-3.462-4.616-8.726-6.643-15.224-5.863l-1.242.149a.918.918,0,0,0-.8.8l-.148,1.243a24.192,24.192,0,0,0,.013,4.858c.394,3.774,1.636,6.634,3.692,8.5,3.921,3.56,7.531,3.813,10.733,3.956v9.916a.918.918,0,0,0,.918.918h3.183a.918.918,0,0,0,.918-.918V204.883c.008-1.058-.053-6.471-2.04-9.119m-2.982,8.623c-2.745-.127-4.816-.342-7.356-2.648-1.046-.949-2.123-3.262-2.179-6.982a10.094,10.094,0,0,1,8.5,4.019c.586.781.992,3.464,1.033,5.611" transform="translate(-285.634 -152.573)" fill="#fff"/>
  </g>
</svg>
