<svg id="Group_5" data-name="Group 5" xmlns="http://www.w3.org/2000/svg" xmlns:xlink="http://www.w3.org/1999/xlink" width="337.983" height="251.918" viewBox="0 0 337.983 251.918">
  <defs>
    <clipPath id="clip-path">
      <rect id="Rectangle_19" data-name="Rectangle 19" width="337.983" height="251.918" fill="none"/>
    </clipPath>
  </defs>
  <g id="Group_4" data-name="Group 4" clip-path="url(#clip-path)">
    <path id="Path_20" data-name="Path 20" d="M38.2,573.557a2.285,2.285,0,0,0,.378,3.647,12.5,12.5,0,0,1,3.887,3.517,15.065,15.065,0,0,1,2.745,9.064,15.417,15.417,0,0,1-4.965,11.734q-5.04,4.664-12.937,4.664h-25A2.308,2.308,0,0,1,0,603.876V552.9A2.307,2.307,0,0,1,2.307,550.6H26.025q7.746,0,11.96,4.137a12.826,12.826,0,0,1,4.287,9.627,12.278,12.278,0,0,1-2.106,6.883,11.841,11.841,0,0,1-1.97,2.313m-14.8-11.076H16.072a2.307,2.307,0,0,0-2.307,2.307v4.787a2.308,2.308,0,0,0,2.307,2.308h6.719a6.161,6.161,0,0,0,4.249-1.316,4.383,4.383,0,0,0,1.467-3.422,4.444,4.444,0,0,0-1.392-3.31,5.113,5.113,0,0,0-3.723-1.354m-9.628,29.359a2.307,2.307,0,0,0,2.307,2.307H24.3a6.711,6.711,0,0,0,4.814-1.579,5.193,5.193,0,0,0,1.654-3.912,5.281,5.281,0,0,0-1.654-3.986,6.269,6.269,0,0,0-4.514-1.579H16.072a2.307,2.307,0,0,0-2.307,2.307Z" transform="translate(0 -355.393)" fill="#232517"/>
    <path id="Path_21" data-name="Path 21" d="M141.328,552.214a7.459,7.459,0,0,1-7.672-7.672,7.168,7.168,0,0,1,2.219-5.379,7.547,7.547,0,0,1,5.453-2.143,7.424,7.424,0,0,1,5.416,2.143,7.233,7.233,0,0,1,2.181,5.379,7.445,7.445,0,0,1-2.181,5.491,7.354,7.354,0,0,1-5.416,2.182m6.695,5.961v36.969a2.276,2.276,0,0,1-2.276,2.276h-8.762a2.276,2.276,0,0,1-2.276-2.276V558.175a2.276,2.276,0,0,1,2.276-2.276h8.762a2.276,2.276,0,0,1,2.276,2.276" transform="translate(-86.271 -346.629)" fill="#232517"/>
    <path id="Path_22" data-name="Path 22" d="M203.321,630.728q-10,0-16.323-6.318a22.538,22.538,0,0,1,0-31.14q6.318-6.392,16.323-6.394,10.154,0,16.322,6.394a22.344,22.344,0,0,1,0,31.14q-6.244,6.318-16.322,6.318m0-12.411a9.094,9.094,0,0,0,6.694-2.708,9.6,9.6,0,0,0,2.708-6.845,9.365,9.365,0,1,0-18.729,0,9.6,9.6,0,0,0,2.708,6.845,9,9,0,0,0,6.619,2.708" transform="translate(-116.672 -378.81)" fill="#232517"/>
    <path id="Path_23" data-name="Path 23" d="M328.332,605.655q-12.833,0-21.25-8.186a2.386,2.386,0,0,1-.283-3.056l4.406-6.422a2.394,2.394,0,0,1,3.508-.482,21.114,21.114,0,0,0,13.843,5.208A8.438,8.438,0,0,0,333,591.627a3.334,3.334,0,0,0,1.8-2.971q0-2.632-4.513-4.288l-4.965-1.654a72.259,72.259,0,0,1-7.07-2.859q-9.177-4.888-9.177-14.442a15.385,15.385,0,0,1,5.792-12.26q5.791-4.888,14.893-4.889a30.072,30.072,0,0,1,17.985,5.607,2.413,2.413,0,0,1,.674,3.222l-4.091,6.678a2.414,2.414,0,0,1-3.318.777,22.41,22.41,0,0,0-4.178-1.917,20.982,20.982,0,0,0-6.846-1.279,8.026,8.026,0,0,0-4.363,1.015,3.008,3.008,0,0,0-1.579,2.595q0,2.409,4.438,4.137l4.889,1.806q4.062,1.429,6.394,2.407,10.6,4.514,10.605,14.593a16.1,16.1,0,0,1-6.017,12.787q-5.942,4.964-16.021,4.964" transform="translate(-197.755 -353.887)" fill="#232517"/>
    <path id="Path_24" data-name="Path 24" d="M448.724,602.9h-8.417a2.41,2.41,0,0,1-2.41-2.411v-52.57a2.41,2.41,0,0,1,2.41-2.411h8.117a2.411,2.411,0,0,1,2.41,2.411v13.165a2.4,2.4,0,0,0,3.779,1.941q.629-.428,1.336-.819a16.046,16.046,0,0,1,7.9-1.956,15.871,15.871,0,0,1,11.358,4.438q4.663,4.439,4.663,12.712v23.089a2.41,2.41,0,0,1-2.41,2.411h-8.492a2.41,2.41,0,0,1-2.41-2.411V580.934a9.345,9.345,0,0,0-1.956-6.318,6.7,6.7,0,0,0-5.341-2.257,7.621,7.621,0,0,0-5.867,2.444,9.109,9.109,0,0,0-2.257,6.431v19.253a2.41,2.41,0,0,1-2.41,2.411" transform="translate(-282.648 -352.107)" fill="#232517"/>
    <path id="Path_25" data-name="Path 25" d="M573.5,552.214a7.459,7.459,0,0,1-7.672-7.672,7.166,7.166,0,0,1,2.219-5.378,7.548,7.548,0,0,1,5.453-2.143,7.424,7.424,0,0,1,5.416,2.143,7.231,7.231,0,0,1,2.181,5.378,7.444,7.444,0,0,1-2.181,5.491,7.353,7.353,0,0,1-5.416,2.182m6.695,6.108V595a2.423,2.423,0,0,1-2.423,2.423H569.3A2.423,2.423,0,0,1,566.88,595V558.322A2.423,2.423,0,0,1,569.3,555.9h8.468a2.423,2.423,0,0,1,2.423,2.423" transform="translate(-365.224 -346.629)" fill="#232517"/>
    <path id="Path_26" data-name="Path 26" d="M656.615,608.061a31.925,31.925,0,0,1-.223,3.709,1.85,1.85,0,0,1-1.835,1.632H629.552a1.849,1.849,0,0,0-1.44,3q2.757,3.546,8.57,3.545a22.115,22.115,0,0,0,10.987-2.875,1.851,1.851,0,0,1,2.519.667l3.381,5.831a1.844,1.844,0,0,1-.6,2.48,30.846,30.846,0,0,1-16.891,4.729q-10.983,0-17-6.243a21.5,21.5,0,0,1-5.942-15.42,21.105,21.105,0,0,1,6.168-15.57q6.242-6.242,16.021-6.243,9.252,0,15.269,5.566t6.018,15.194m-21.287-10.154q-5.033,0-7.5,3.456a1.849,1.849,0,0,0,1.487,2.937h11.818a1.846,1.846,0,0,0,1.509-2.909,7.975,7.975,0,0,0-1.743-1.793,9.011,9.011,0,0,0-5.566-1.692" transform="translate(-395.762 -379.084)" fill="#232517"/>
    <path id="Path_27" data-name="Path 27" d="M756.427,548.011v52.381a2.505,2.505,0,0,1-2.505,2.505h-8.228a2.505,2.505,0,0,1-2.505-2.505V548.011a2.505,2.505,0,0,1,2.505-2.505h8.228a2.505,2.505,0,0,1,2.505,2.505" transform="translate(-479.705 -352.107)" fill="#232517"/>
    <path id="Path_28" data-name="Path 28" d="M819.681,562.21V546.636a1.131,1.131,0,0,1,1.131-1.131h11.052a1.131,1.131,0,0,1,1.131,1.131v55.13a1.131,1.131,0,0,1-1.131,1.131H821.188a1.131,1.131,0,0,1-1.131-1.131v-.005a1.134,1.134,0,0,0-1.829-.89,15.873,15.873,0,0,1-9.755,3.079,18.93,18.93,0,0,1-14.518-6.168,23.928,23.928,0,0,1,0-31.216,19.126,19.126,0,0,1,14.518-6.243,15.917,15.917,0,0,1,9.438,2.831,1.133,1.133,0,0,0,1.769-.943m-8.951,29.629a8.995,8.995,0,0,0,6.77-2.821,9.66,9.66,0,0,0,2.708-6.957,9.44,9.44,0,0,0-2.708-6.845,9.059,9.059,0,0,0-6.77-2.783,8.941,8.941,0,0,0-6.769,2.858,9.348,9.348,0,0,0-2.708,6.77,9.791,9.791,0,0,0,2.708,7,9.056,9.056,0,0,0,6.769,2.783" transform="translate(-508.736 -352.106)" fill="#232517"/>
    <path id="Path_29" data-name="Path 29" d="M922.569,550.968a5.431,5.431,0,0,1,.741-2.753,5.526,5.526,0,0,1,.852-1.106,5.341,5.341,0,0,1,1.106-.856,5.617,5.617,0,0,1,1.3-.551,5.416,5.416,0,0,1,2.9,0,5.525,5.525,0,0,1,1.3.551,5.448,5.448,0,0,1,1.954,1.958,5.575,5.575,0,0,1,.551,1.31,5.355,5.355,0,0,1,.2,1.454,5.277,5.277,0,0,1-.2,1.446,5.54,5.54,0,0,1-.551,1.3,5.345,5.345,0,0,1-.852,1.1,5.524,5.524,0,0,1-1.1.848,5.451,5.451,0,0,1-8.007-3.254,5.361,5.361,0,0,1-.193-1.447m.837-.007a4.484,4.484,0,0,0,.362,1.8,4.62,4.62,0,0,0,2.455,2.452,4.653,4.653,0,0,0,3.025.2,4.639,4.639,0,0,0,1.1-.466,4.723,4.723,0,0,0,.934-.719,4.574,4.574,0,0,0,.723-.931,4.623,4.623,0,0,0,.466-1.1,4.559,4.559,0,0,0,.164-1.228,4.436,4.436,0,0,0-.365-1.79,4.679,4.679,0,0,0-2.456-2.456,4.433,4.433,0,0,0-1.79-.365,4.543,4.543,0,0,0-1.228.165,4.675,4.675,0,0,0-1.106.465,4.513,4.513,0,0,0-.934.723,4.727,4.727,0,0,0-.719.934,4.622,4.622,0,0,0-.466,1.1,4.538,4.538,0,0,0-.165,1.221m2.656,3.028a.269.269,0,0,1-.14-.036c-.041-.024-.061-.079-.061-.164v-5.7a.218.218,0,0,1,.243-.25h2.3a1.979,1.979,0,0,1,.788.172,2.03,2.03,0,0,1,.634.444,2.1,2.1,0,0,1,.422.645,1.991,1.991,0,0,1,.154.78,2.032,2.032,0,0,1-.29,1.056,2.2,2.2,0,0,1-.329.422,2.044,2.044,0,0,1-.426.326l.988,2.047.032.065a.163.163,0,0,1,.018.072.108.108,0,0,1-.05.082.388.388,0,0,1-.215.039h-.315a.265.265,0,0,1-.154-.046.554.554,0,0,1-.118-.107.669.669,0,0,1-.082-.125c-.022-.043-.037-.077-.047-.1q-.2-.437-.4-.863t-.409-.863c-.081.01-.161.018-.24.025s-.159.011-.24.011h-1.489v1.869a.181.181,0,0,1-.061.157.225.225,0,0,1-.133.043Zm3.551-4.109a1.264,1.264,0,0,0-.093-.48,1.352,1.352,0,0,0-.257-.408,1.224,1.224,0,0,0-.39-.283,1.16,1.16,0,0,0-.49-.1h-1.747v2.527h1.747a1.172,1.172,0,0,0,.483-.1,1.219,1.219,0,0,0,.39-.272,1.314,1.314,0,0,0,.261-.4,1.213,1.213,0,0,0,.1-.483" transform="translate(-595.489 -352.106)" fill="#232517"/>
    <path id="Path_30" data-name="Path 30" d="M342.4,10.006l-73.743,23.1v62.05A90.911,90.911,0,0,0,342.4,184.433a90.911,90.911,0,0,0,73.743-89.274V33.109Zm53.887,85.153A71.165,71.165,0,0,1,342.4,164.11a71.165,71.165,0,0,1-53.889-68.951V47.694L342.4,30.812l53.887,16.882Z" transform="translate(-173.412 -6.459)" fill="#f6a926"/>
    <path id="Path_31" data-name="Path 31" d="M476.654,10h0Z" transform="translate(-307.665 -6.457)" fill="#6ba0d6"/>
    <path id="Path_32" data-name="Path 32" d="M335.949,181.52a3.531,3.531,0,0,1-.67-.064A94.453,94.453,0,0,1,258.661,88.7V26.651a3.545,3.545,0,0,1,2.486-3.383L334.778.2a3.841,3.841,0,0,1,1.171-.2h0a3.545,3.545,0,0,1,1.169.2l73.629,23.068a3.546,3.546,0,0,1,2.486,3.383V88.7a94.456,94.456,0,0,1-76.617,92.756,3.528,3.528,0,0,1-.67.064m-70.2-152.266V88.7a87.483,87.483,0,0,0,70.2,85.661,87.482,87.482,0,0,0,70.2-85.661V29.255l-70.2-21.992Z" transform="translate(-166.958)" fill="#232517"/>
    <path id="Path_33" data-name="Path 33" d="M372.1,199.08a3.573,3.573,0,0,1-.856-.1,74.71,74.71,0,0,1-56.578-72.393V79.119a3.544,3.544,0,0,1,2.485-3.382l53.889-16.883a3.551,3.551,0,0,1,2.12,0l53.889,16.883a3.543,3.543,0,0,1,2.485,3.382v47.465a74.706,74.706,0,0,1-8.682,34.887,3.546,3.546,0,0,1-6.264-3.324,67.57,67.57,0,0,0,7.855-31.563V81.723L372.094,65.951,321.752,81.723v44.861a67.392,67.392,0,0,0,50.342,65.292,66.889,66.889,0,0,0,22.79-10.895,3.545,3.545,0,1,1,4.2,5.709,73.983,73.983,0,0,1-26.139,12.287,3.567,3.567,0,0,1-.854.1" transform="translate(-203.104 -37.883)" fill="#232517"/>
    <path id="Path_34" data-name="Path 34" d="M405.674,254.293" transform="translate(-261.85 -164.138)" fill="#1a1818"/>
    <path id="Path_35" data-name="Path 35" d="M573.425,378.193a3.547,3.547,0,1,1,2.507-1.039,3.563,3.563,0,0,1-2.507,1.039" transform="translate(-367.84 -239.535)" fill="#232517"/>
    <path id="Path_36" data-name="Path 36" d="M508.638,167.253l-.218-2.569a1.662,1.662,0,0,0-1.612-1.52l-2.577-.067c-10.364-.268-18.564,1.014-25.057,3.924a31.4,31.4,0,0,0-12.8,10.457,32.887,32.887,0,0,0-5.449,13.435,58.516,58.516,0,0,0-.991,10.9c-.007,4.618-.1,24.055-.1,24.245a1.661,1.661,0,0,0,1.653,1.67l5.761.028h.008a1.662,1.662,0,0,0,1.661-1.653c0-.113.032-6.652.061-13.048l4.023-.144c.409-.013,10.085-.362,16.012-3.21,8.591-4.127,14.229-10.013,17.236-17.995,3.6-9.56,2.445-23.844,2.395-24.448m-10.9,21.245c-2.143,5.688-6.287,9.944-12.669,13.01-3.473,1.668-10.277,2.248-12.389,2.319l-3.675.131c0-.873,0-1.6.006-2.137.007-4.726.623-13.472,4.665-18.951,3.77-5.111,9.831-10.337,26.08-10.7.06,4.108-.145,11.363-2.018,16.331" transform="translate(-296.804 -105.251)" fill="#6db33e"/>
    <path id="Path_37" data-name="Path 37" d="M386.942,200.644c-6.266-8.355-15.794-12.024-27.556-10.612l-2.249.27a1.661,1.661,0,0,0-1.452,1.453l-.269,2.251a43.787,43.787,0,0,0,.023,8.792c.713,6.831,2.962,12.008,6.683,15.387,7.1,6.444,13.632,6.9,19.427,7.161v17.947a1.661,1.661,0,0,0,1.661,1.661h5.761a1.661,1.661,0,0,0,1.661-1.661V217.151c.015-1.916-.1-11.713-3.692-16.507m-5.4,15.607c-4.968-.23-8.718-.618-13.315-4.793-1.892-1.718-3.842-5.9-3.944-12.638,6.614.028,11.787,2.471,15.389,7.274,1.06,1.413,1.795,6.271,1.87,10.157" transform="translate(-229.276 -122.469)" fill="#14b3c5"/>
  </g>
</svg>
