<?xml version="1.0" encoding="UTF-8"?>
<svg xmlns="http://www.w3.org/2000/svg" version="1.1" xmlns:xlink="http://www.w3.org/1999/xlink" viewBox="0 0 606.7 639.1">
  <defs>
    <style>
      .cls-1 {
        fill: #d9991c;
      }

      .cls-2 {
        fill: #59794d;
      }

      .cls-3 {
        fill: #6c9e65;
      }

      .cls-4 {
        fill: #5c8655;
      }

      .cls-5 {
        fill: #4f7148;
      }

      .cls-6 {
        fill: #719f66;
      }

      .cls-7 {
        fill: #3d7541;
      }

      .cls-8 {
        fill: #ffcbb4;
      }

      .cls-9 {
        fill: #8cbe7e;
      }

      .cls-10 {
        fill: #fff;
      }

      .cls-11 {
        fill: #aebfde;
      }

      .cls-12 {
        opacity: .4;
      }

      .cls-13 {
        fill: none;
      }

      .cls-14 {
        fill: #7aad6e;
      }

      .cls-15 {
        fill: #5f8a58;
      }

      .cls-16 {
        fill: #e0d8cd;
      }

      .cls-17 {
        fill: #618e5a;
      }

      .cls-18 {
        fill: #753b32;
      }

      .cls-19 {
        clip-path: url(#clippath-1);
      }

      .cls-20 {
        fill: #502c16;
      }

      .cls-21 {
        fill: #618555;
      }

      .cls-22 {
        fill: #79ac6d;
      }

      .cls-23 {
        fill: #e9f2f4;
      }

      .cls-24 {
        clip-path: url(#clippath-3);
      }

      .cls-25 {
        fill: #f3be58;
      }

      .cls-26 {
        fill: #f6c157;
      }

      .cls-27 {
        fill: #4d87db;
      }

      .cls-28 {
        fill: #133a50;
      }

      .cls-29 {
        fill: #527349;
      }

      .cls-30 {
        fill: #7eb473;
      }

      .cls-31 {
        fill: #689ce8;
      }

      .cls-32 {
        fill: #5d8856;
      }

      .cls-33 {
        fill: #5d8756;
      }

      .cls-34 {
        fill: #46874b;
      }

      .cls-35 {
        clip-path: url(#clippath-2);
      }

      .cls-36 {
        fill: #608d59;
      }

      .cls-37 {
        fill: #c48a19;
      }

      .cls-38 {
        fill: #679860;
      }

      .cls-39 {
        clip-path: url(#clippath);
      }

      .cls-40 {
        fill: #73a166;
      }

      .cls-41 {
        fill: #79b975;
      }
    </style>
    <clipPath id="clippath">
      <rect class="cls-13" x="31.6" y="93.7" width="550.1" height="545.4"/>
    </clipPath>
    <clipPath id="clippath-1">
      <rect class="cls-13" x="31.6" y="93.7" width="550.1" height="545.4"/>
    </clipPath>
    <clipPath id="clippath-2">
      <rect class="cls-13" x="369.3" y="298.4" width="6.1" height="31.7"/>
    </clipPath>
    <clipPath id="clippath-3">
      <rect class="cls-13" x="371.9" y="298.7" width="3.7" height="31.9"/>
    </clipPath>
  </defs>
  <!-- Generator: Adobe Illustrator 28.7.1, SVG Export Plug-In . SVG Version: 1.2.0 Build 142)  -->
  <g>
    <g id="Group_60">
      <g>
        <path class="cls-25" d="M215.7,5.2C55.4,40.5-35.4,247.2,13,466.9c14.2,64.4,38.7,122.7,70.4,172.1h487.2c36.7-83.6,47.3-190.2,23.1-300C545.3,119.3,376.1-30.1,215.7,5.2Z"/>
        <g class="cls-39">
          <g id="Group_59">
            <g id="Group_58">
              <g class="cls-19">
                <g id="Group_57">
                  <path id="Path_235" class="cls-30" d="M370.3,105c-.9,1.2,3.1,3.4.5,3.7-1.8.2-9.7-10-10.1-10.7,2.9,1.7,9.1,3.1,9.5,7.1"/>
                  <path id="Path_236" class="cls-6" d="M371.5,109.5c-.8-2.7,4-9.1,6.1-10.7-1.1,4-3.2,7.7-6.1,10.7"/>
                  <path id="Path_237" class="cls-3" d="M370.6,102.6s1,5.7,1,6.2c5.2-.3-2.2-14-3.6-15.1.9,2.7,1.1,6.6,2.6,9"/>
                  <path id="Path_238" class="cls-15" d="M367.9,108.4c-.3,1.2,6.5-.8.4,2.6-3.1,1.7-5.6-3.1-6.1-5.4,1.6.9,4.8,1.6,5.8,2.8"/>
                  <path id="Path_239" class="cls-4" d="M383.6,272.8c.2.1-4.6,9.7-4.7,10.1-11.9-4.6,8-22.1,13.6-22.8-3.3,4-5.3,10.3-8.9,12.7"/>
                  <path id="Path_240" class="cls-21" d="M378.6,292.5s1.1-9.5,1-10.2c7.4-2.9,22.2,41.6,22.7,45.6-6.5-7.9-29.8-23-23.7-35.4"/>
                  <path id="Path_241" class="cls-4" d="M379.7,282.7c10.8,5.8,40.2-16.1,46-23.2-37.7,5.9-44,21.2-46,23.2"/>
                  <path id="Path_242" class="cls-21" d="M393.7,292.6c-3.5-2.4-11.7-9.9-13.3-10.6,2.8-4.8,18.2-2.4,21.9-.7,9.1,4.1,13.9,15.4,15.3,26.8-6.4-6.1-18-11.5-23.9-15.5"/>
                  <path id="Path_243" class="cls-5" d="M376.6,298.5c.6,0,2.4-14.9,2.8-16.4-18.1-4.4-7.9,42.9-3.9,48.1-.2-9.7,3.6-22.7,1.1-31.7"/>
                  <g id="Group_53" class="cls-12">
                    <g id="Group_52">
                      <g class="cls-35">
                        <g id="Group_51">
                          <path id="Path_244" class="cls-9" d="M372.6,298.4c-3.7,5.4,2.9-5.1-3.2,5.3,3.2-3.1,3.2-2.4,0,1.9,3.3-3.6,3.4-2.8.2,2.4,2.7-3.7,2.7-3-.1,2.1,1.4-1.5,1.9-.5.4,3.3,1.8-3.1,1,1.9.7,3.7.4-1,2.3,6.1,5,13.1-2.4-7.3.6-26.7-2.9-31.7"/>
                        </g>
                      </g>
                    </g>
                  </g>
                  <g id="Group_56" class="cls-12">
                    <g id="Group_55">
                      <g class="cls-24">
                        <g id="Group_54">
                          <path id="Path_245" class="cls-9" d="M372.7,298.7c-1.6,10.6-1,21.9,2.9,31.9-2.4-7.2-2.2-14.4-1.6-13.6-1.1-2.4-2-5.9,0-3.6-3.8-5.9,1,0-1.8-7.3,2.5,3.6,2.5,2.8,0-2.2,2.6,3,1.7-.7.9-3.5,3.9,5.6,0-1.1-.4-1.7"/>
                        </g>
                      </g>
                    </g>
                  </g>
                  <path id="Path_246" class="cls-32" d="M347.6,200.8s2,7.1,2.1,7.4c10.8.7-3.7-16.4-7.6-18,2.4,3.8,2.9,8.3,5.5,10.6"/>
                  <path id="Path_247" class="cls-32" d="M350.4,207.4c11,6.1,24.5,17.8,25.4,31.4l-2.3-.5c-.9-13.4-14.6-24.5-23.1-31"/>
                  <path id="Path_248" class="cls-40" d="M335.2,210.1c4.1-.9,8.1-1.9,12.1-3.2,5.5,3-28.1,28-31.9,29.4,5.8-10.7,5.2-23.3,19.8-26.2"/>
                  <path id="Path_249" class="cls-32" d="M350.9,207.9c-11.5,2-35.5-13.9-43.1-21.3,33.9,7.6,40.4,19.1,43.1,21.3"/>
                  <path id="Path_250" class="cls-33" d="M348.1,207.3c-4.5-15.5-47.2-1-53.3,6,9.8-2,50.9-6,53.3-6"/>
                  <path id="Path_251" class="cls-29" d="M349.6,207.6c19.3,3.5,8.9,25-7.1,26.9,8.6-9.7-.6-18.9,7.1-26.9"/>
                  <path id="Path_252" class="cls-14" d="M362.7,146.3s2.5,3.2,2.6,3.4c4.5-4.4-3.7-8.6-7.4-7.1,1.4.9,3.4,3.5,4.8,3.7"/>
                  <path id="Path_253" class="cls-41" d="M360.3,156.9c.4,0,3.6-6.3,3.8-7,2.5-.5-4.8,30.4-4.8,30.5-.4-7.6-4.7-17,1-23.4"/>
                  <path id="Path_254" class="cls-14" d="M357.6,149.6c.8-1.3,6.9-.7,8.2-.6-3.2,4.9-17.1,7-21.8,6,2.8-1.6,10.3-6.4,13.7-5.4"/>
                  <path id="Path_255" class="cls-22" d="M356.4,159.8c0,0,7.9-9.7,8.1-10-5.4-6.7-18.7,23.5-18.9,26.1,3.3-5.4,8.5-10.5,10.8-16.1"/>
                  <path id="Path_256" class="cls-38" d="M367.6,155.7c0,0-2.2-6-2.4-6.3,9.2-6.9,6.5,15.1,4,18.5-.2-4.4-2.5-9-1.6-12.2"/>
                  <path id="Path_257" class="cls-14" d="M374.5,120c-.1-3,.2,8.4,4.7-.9-1.3.4-3.8.2-4.7.9"/>
                  <path id="Path_258" class="cls-41" d="M370.4,113.5c-.3.3,1.1,4.9,1.4,5.5-1.3,1.8-12.9-16.8-13-17.2,4.2,3.4,11.6,5.7,11.6,11.8"/>
                  <path id="Path_259" class="cls-14" d="M375.7,115.5c-.5,1.1-3.7,4.2-4.5,4.9-.7-4.3,6.5-13,9.7-15.1-.9,2.6-4,7.6-5.2,10.2"/>
                  <path id="Path_260" class="cls-22" d="M371.1,110s.8,15.2.8,15.9c7,.2-.9-27.5-2.8-29.6.9,4.4.5,9.8,2,13.7"/>
                  <path id="Path_261" class="cls-38" d="M366.7,118.2c0,.1,4.4,1.6,4.7,1.7-1.8,8.4-11.5-2.4-12-6.6,1.9,1.6,6.3,3.1,7.3,4.9"/>
                  <path id="Path_262" class="cls-32" d="M366.3,334.7c0,.2,9.9,0,10.2,0,.9-11.1-21.6-1.7-24.2,2.3,4.6-1.1,10.5-.3,14-2.3"/>
                  <path id="Path_263" class="cls-33" d="M384.6,338.1c0,0-8.3-2.6-8.8-2.9-5,4.5,25.7,32.8,28.6,34.4-4.2-8.6-7.2-31.7-19.8-31.5"/>
                  <path id="Path_264" class="cls-32" d="M360.2,343.1c0-2.9,13.5-6.9,15.8-7.7.4,10.5-29.6,25.6-37.5,27.4,4.6-5.7,14.2-18.3,21.7-19.7"/>
                  <path id="Path_265" class="cls-33" d="M375.7,349.8c.5,0-.6-13.2-.5-14.2-21.7,1.7-1.1,34,6.7,38.7-2.4-7.2-1.8-19.1-6.1-24.5"/>
                  <path id="Path_266" class="cls-29" d="M390.3,338.7c-.3.6-13.1-3.5-14.7-3.8,3.7-16.1,38.6,9.5,41.3,14.6-8-3.7-20.2-5.5-26.6-10.8"/>
                  <path id="Path_267" class="cls-32" d="M435.4,388.6s-7.2,10.7-7.8,11.7c-14.3-3.5,17.1-26.5,22.1-27.2-5.1,4.8-8.8,12.3-14.3,15.6"/>
                  <path id="Path_268" class="cls-32" d="M427.3,398.7c-21.2,6.7-43.9,21.8-53.8,42.4,1.1,0,2.2.2,3.2.2,10.2-21.6,32.8-32,50.5-42.6"/>
                  <path id="Path_269" class="cls-40" d="M429.6,398.1c-11.4,3.6,13.8,58.7,18.5,63.8,9-39.6-17.8-62.7-18.5-63.8"/>
                  <path id="Path_270" class="cls-32" d="M426.4,399.3c13.7,9,57.9-10.9,68.5-17.6-47-1.6-64.8,15.7-68.5,17.6"/>
                  <path id="Path_271" class="cls-33" d="M427.3,398.8c5.2-7.7,33.4,1.4,39,3.9,12,5.3,20,14.3,22.6,29.4-10.7-7.6-58.8-32.3-61.6-33.3"/>
                  <path id="Path_272" class="cls-29" d="M421.4,417.5c1-1.6,5.4-15.7,6.7-18.2-8.9-.8-21.2,15.9-23.3,22.3-3.5,10.6-.6,19,13,26.6.1-8.2,0-24.5,3.7-30.7"/>
                  <path id="Path_273" class="cls-32" d="M426.9,399.5c2.9-.8,3.1-1.6.6-2.3-1.2.1-3.7,2.5-.6,2.3"/>
                  <path id="Path_274" class="cls-32" d="M425,326.2c0,0-6.4,10.5-6.6,10.9-13-3.5,14.2-24.6,18.9-25.4-4.5,4.6-7.5,11.5-12.2,14.5"/>
                  <path id="Path_275" class="cls-32" d="M418.1,335.7c-18.4,6.4-37.8,21.1-45.8,39.5l2.7.2c8.1-18.7,27.2-31,43.1-39.7"/>
                  <path id="Path_276" class="cls-40" d="M421.7,336c-10.1,3.4,11.9,54.8,15.8,59.4,3-38.8-15.3-58.6-15.8-59.4"/>
                  <path id="Path_277" class="cls-32" d="M438.9,326.6c-2.9-2.3-18.7,7.9-21.6,9.6,11.3,8.1,49.9-10.6,58.4-16.4-10,.4-28.5.6-36.7,6.7"/>
                  <path id="Path_278" class="cls-33" d="M420.6,336.3c4.4-7.1,28.7,1.2,33.3,3.7,10.3,5.5,17,13,19.3,27.4-8.7-6.8-50.2-30.1-52.5-31"/>
                  <path id="Path_279" class="cls-29" d="M418.8,336.3c-8-.8-19.7,16.6-21.2,22.3-2.1,8.2,2.4,17.1,12.3,23.1.1-7.8,7.8-43.3,8.8-45.5"/>
                  <path id="Path_280" class="cls-32" d="M333.5,492.2c18.9-1.8-2.6-27.6-12.4-30-1.7,10.2,12.2,29,12.4,30"/>
                  <path id="Path_281" class="cls-32" d="M334.7,490.7c18,7.7,42.5,27.3,43.7,49.1l-4-.2c-1.1-23.4-26.9-37.4-39.7-48.9"/>
                  <path id="Path_282" class="cls-40" d="M308.8,499.7c8.4-5.8,18.6-7.8,20.6-9.2,8.8,3.7-48.7,58.4-54.7,61.7,10.9-22.5,14.3-38.9,34.1-52.5"/>
                  <path id="Path_283" class="cls-32" d="M335.5,491.4c-20.4,7.2-62.5-17.4-72.4-26,26.2,1.3,51.4,10.4,72.4,26"/>
                  <path id="Path_284" class="cls-33" d="M330.8,491.1c-2.5-9.1-46.3-2.1-51.6-.7-15.6,4.1-29.3,13.4-38.7,26.5,18-6.8,87-25.2,90.3-25.8"/>
                  <path id="Path_285" class="cls-29" d="M333.4,491.3c8.8.2,17.3,17.5,17.6,23.6.7,13.2-15.3,22.2-30.3,26.6,4.9-10,12.9-47.9,12.7-50.2"/>
                  <path id="Path_286" class="cls-32" d="M334.7,491.6c-2.9-1.4-2.7-2.2.5-2.4,1.7.4,2.7,2.9-.5,2.4"/>
                  <path id="Path_287" class="cls-32" d="M343.4,348.6c-.1,0,1.4,11.2,1.4,11.9,16.5,2.3-.4-25.7-7.2-29.1,2.5,5.6,2.4,13.2,5.9,17.2"/>
                  <path id="Path_288" class="cls-32" d="M346,359.4c15.4,11.1,32.5,31.5,30.9,52.1l-3.4-1c1.9-22.1-17.1-37.6-27.5-51.2"/>
                  <path id="Path_289" class="cls-40" d="M322.6,362.1c3.9-.1,17.1-3.1,18.9-3.9,7.9,5.6-49.2,41.7-54.5,43.3,12-17.6,12.8-38.8,35.6-39.4"/>
                  <path id="Path_290" class="cls-32" d="M326.7,343.2c5.2-.8,16.6,13.5,20,17.1-18.5,2.1-51.7-27.7-59.7-38,11.1,4.2,32.7,11,39.7,20.9"/>
                  <path id="Path_291" class="cls-33" d="M342.6,359c-1.1-8.4-36.6-10.7-41.8-10.7-14.6,0-27.8,3.6-39.4,15,28.5,4.8,78.1-4.5,81.3-4.3"/>
                  <path id="Path_292" class="cls-29" d="M344.9,359.6c8.1,2.1,12.9,19.1,11.9,25.1-2,11.4-14.4,15.9-28.7,16.7,4.8-7,21.6-27,16.8-41.8"/>
                  <path id="Path_293" class="cls-32" d="M346,360.2c-2.3-1.8-2.1-2.5.7-2,1.3.6,2.2,3.2-.7,2"/>
                  <path id="Path_294" class="cls-32" d="M374.1,637.2h4.9c1.1-44.2-3-510.7-6.1-510.7-2.2,0,1.8,465.9,1.2,510.7"/>
                  <path id="Path_295" class="cls-32" d="M379.7,455.1c9.9-10.6-21.4-20.1-28-18,8.6,12.8,27,17.1,28,18"/>
                  <path id="Path_296" class="cls-40" d="M387.1,464.5c-2.5-3.4-4.9-7-7-10.6-9,.5-.8,55.2,1.7,61.2,3-14.3,19.2-40.2,5.3-50.6"/>
                  <path id="Path_297" class="cls-40" d="M380.1,454.4c-9.2,12.8-55,1.8-63.5-2.3,49.3-6.6,60.4,1.2,63.5,2.3"/>
                  <path id="Path_298" class="cls-33" d="M379.1,454c-7.2-4.8-21.3,7.7-24.6,11.9-7.5,9.6-5.9,22.4-.8,35.3,3.7-10.5,24.1-45.7,25.5-47.3"/>
                  <path id="Path_299" class="cls-29" d="M378.1,452.9c5.2-4.2,23,14.1,25.1,16.9,6.6,8.7,9.2,21.4,7,33.7-5.6-10.9-30.7-49.1-32.1-50.6"/>
                  <path id="Path_300" class="cls-6" d="M400.1,239.5c-14.6,2,1.1-21.8,6-24.3-2.2,5.1-6,23.8-6,24.3"/>
                  <path id="Path_301" class="cls-6" d="M399.1,238.6c-13,9.3-27.1,26.3-25.8,43.5l2.8-.8c-1.4-17.1,13.3-33,22.9-42.7"/>
                  <path id="Path_302" class="cls-30" d="M402.9,237.5c-6.5,4.6,40.2,34.5,45.4,36.1-16.3-38.3-44.2-35.6-45.4-36.1"/>
                  <path id="Path_303" class="cls-6" d="M398.6,239.2c15.1,1.8,42.6-22.5,49.8-31.6-8.9,3.4-36.4,10-49.8,31.6"/>
                  <path id="Path_304" class="cls-3" d="M401.9,238.2c.9-7.1,30.4-9,34.9-8.9,12.1.3,22.8,2.6,32.9,12.5-16.5-3.4-63.1-.2-67.7-3.6"/>
                  <path id="Path_305" class="cls-15" d="M400,238.8c-6.5,1.7-10.9,16-9.9,20.9,1.9,9.1,11.8,13.2,23.9,14-4-5.8-13.9-33.2-14-34.9"/>
                  <path id="Path_306" class="cls-6" d="M364.2,288c-3-17.5,35.5-6.2,40.8.4-7.5-1.1-39.3-.6-40.8-.4"/>
                  <path id="Path_307" class="cls-3" d="M365.4,288.6c8.9,6.7-37,57.5-42.9,61.6,4.1-10.5,10.5-32.2,21.3-46.4,7.6-10,21.2-14.9,21.6-15.2"/>
                  <path id="Path_308" class="cls-6" d="M392.6,299.6c-.3-5-23.7-9.6-27.5-10.6.3,7.8,26.5,23.1,32.1,26.6,11.4,7.2,19,11.7,34.5,13.8-9.1-9.6-25.5-28.5-39-29.8"/>
                  <path id="Path_309" class="cls-3" d="M366.4,289.4c9.3,0,17,21.8,17.6,27.8,1.4,14.9-9.1,27.6-23.3,37.7,3.5-14.3,6.1-63,5.7-65.5"/>
                  <path id="Path_310" class="cls-15" d="M365.6,288.1c-2.5-7.7-35.1-1.3-39.7.6-10.7,4.4-21.9,17.2-27.2,29.6,29.8-2.9,64.5-29.6,66.9-30.2"/>
                  <path id="Path_311" class="cls-30" d="M378,163.3c-2.1-8.9,17.9-3.9,20.4-1.2-3.8-.3-20.3,1.1-20.4,1.2"/>
                  <path id="Path_312" class="cls-30" d="M372.9,164.8s5.4-1,5.8-1.4c4.7,3.1-17.3,30.5-19.5,32.2,2.4-7.7-1.3-20.3,13.6-30.9"/>
                  <path id="Path_313" class="cls-6" d="M378.5,163.7c.9,8.8,27.9,17.6,34.7,18-19.6-18-33.2-17.8-34.7-18"/>
                  <path id="Path_314" class="cls-3" d="M379.2,163.9c16,4,5.2,28.2-.7,33,1.2-6.4.9-32.2.7-33"/>
                  <path id="Path_315" class="cls-15" d="M367.1,168.3c.2.4,11-4.8,11.7-5-5.2-13.2-30.9,12.7-32.5,17.3,6.2-4.1,16.1-7.1,20.8-12.3"/>
                  <path id="Path_316" class="cls-17" d="M381.7,142.8c-.1.2-9-3.9-9.4-4.1,3.6-10.5,20.4,7.1,21.3,11.7-3.8-2.8-9.5-4.4-11.9-7.7"/>
                  <path id="Path_317" class="cls-36" d="M361.5,139.7c0,0,8.5-1.5,9.1-1.9,4.4,5-29.5,29.4-32.6,30.7,5.2-8,11-30.6,23.5-28.8"/>
                  <path id="Path_318" class="cls-17" d="M370.4,138.1c-1.7,10.3,26.3,29,33.9,31.7-14-22.1-31.7-30.6-33.9-31.7"/>
                  <path id="Path_319" class="cls-36" d="M368.9,152.5c-.5-.1,2.2-13,2.3-14,21.3,4.3-3,33.9-11.3,37.6,3.3-6.9,4.1-18.7,9.1-23.5"/>
                  <path id="Path_320" class="cls-2" d="M355.8,139.6c.2.6,13.4-1.9,15-2-1.7-16.4-39.4,4.7-42.7,9.5,8.4-2.7,20.7-3,27.7-7.5"/>
                  <path id="Path_321" class="cls-6" d="M368.8,122.8c0,0,4.2,3.8,4.5,4-6.5,5.3-12.2-5.7-9.3-11,1.1,2,4.7,5.1,4.8,6.9"/>
                  <path id="Path_322" class="cls-30" d="M384.3,121c-4,1.6-9.5,4-10.5,4.2-.9,3,42.7-1.9,44.1-2.4-11-1.6-21.3-6.9-33.6-1.9"/>
                  <path id="Path_323" class="cls-6" d="M372.3,127.3c7.1-3.5,12.1-22.1,11.2-28.7-10.5,16.4-11.2,27-11.2,28.7"/>
                  <path id="Path_324" class="cls-3" d="M373.6,125.8c-8.5-7.8,36.1-22,39.5-22-25.6,21.9-31.9,19.1-39.5,22"/>
                  <path id="Path_325" class="cls-15" d="M380.9,131.5c0-.2-8.1-4.4-8.5-4.6-.4-9.1,21.8,12.6,22.7,14.8-4.6-3.7-10.8-6.2-14.2-10.2"/>
                  <path id="Path_326" class="cls-14" d="M372.6,135.1c4,4.9,8.9-3,7.6-6.8-1,1.3-5,1.8-7.6,6.8"/>
                  <path id="Path_327" class="cls-41" d="M365.7,129.5c0,.4,6,4,6.7,4.3.3,2.5-29.9-7-30-7.1,7.6.2,17.3-3.4,23.3,2.7"/>
                  <path id="Path_328" class="cls-14" d="M373.2,135.6c-4.6-3.5-5.8-17.5-4.4-22.2,4.8,7.2,4.6,21,4.4,22.2"/>
                  <path id="Path_329" class="cls-22" d="M363.2,125.4c0,0,9.1,8.6,9.4,8.8,7.1-4.9-22.1-20.4-24.6-20.8,5.2,3.7,9.9,9.3,15.3,11.9"/>
                  <path id="Path_330" class="cls-38" d="M372.9,135c6.2,9.7-15.5,5.3-18.7,2.6,4.4.1,18.4-2.5,18.7-2.6"/>
                  <path id="Path_331" class="cls-6" d="M374.2,185.1c1.8-10.3-20.2-3.3-23,.2,7.4,2.4,22.6-.3,23-.2"/>
                  <path id="Path_332" class="cls-3" d="M381.5,188.9s-7.6-3.1-8.1-3.5c-5.1,3.8,21.6,32.9,24.2,34.7-3.3-8.4-4.3-30.4-16.1-31.2"/>
                  <path id="Path_333" class="cls-6" d="M373.7,185.7c-.4,9.9-29.9,21.7-37.5,22.8,9.9-11.2,23-19.1,37.5-22.8"/>
                  <path id="Path_334" class="cls-3" d="M372.9,185.9c-20.5-.1-3.8,32,3.2,36.9,3.6-8.4-3.4-36-3.2-36.9"/>
                  <path id="Path_335" class="cls-15" d="M373.3,185.1c4.8-14.8,35.6,12,37.7,17-17.5-1.8-36.9-16.8-37.7-17"/>
                  <path id="Path_336" class="cls-32" d="M377.1,252.4c0,.2-9.8-1.2-10.2-1.2.4-11.1,21.6,1,23.8,5.2-4.4-1.7-10.4-1.6-13.6-4"/>
                  <path id="Path_337" class="cls-33" d="M358.5,253.4c0,0,8.5-1.5,9.1-1.9,4.4,5-29.5,29.4-32.6,30.7,5.2-8,11-30.6,23.5-28.8"/>
                  <path id="Path_338" class="cls-32" d="M367.3,251.8c-1.7,10.3,26.3,29,33.9,31.7-14.7-24.6-31.7-30.6-33.9-31.7"/>
                  <path id="Path_339" class="cls-33" d="M365.8,266.2c-.5-.1,2.2-13,2.3-14,21.3,4.3-3,33.9-11.3,37.6,3.3-6.9,4.1-18.7,9.1-23.5"/>
                  <path id="Path_340" class="cls-29" d="M352.8,253.4c.2.6,13.4-1.9,15-2-1.7-16.4-39.4,4.7-42.7,9.5,8.4-2.7,20.7-3,27.7-7.5"/>
                  <path id="Path_341" class="cls-28" d="M116.2,421c2,8.9-1.7,80.1-2.3,87.7-1.3,17.5-6.1,115.9-6.1,115.9,0,0-9.3,4-16,0l-6.3-110.6c-4.9-15.8-16.9-66.6-21.7-77.6s12.3-43.8,12.3-43.8c0,0,34.2,14.4,37.6,17.8s1.3,5.5,2.4,10.5"/>
                  <path id="Path_342" class="cls-28" d="M93.2,397.5c.3,5.2-10.5,29.1-10.6,34.7-.2,17-16.5,76-17.7,86.7l-13.2,105.2s-18.4,1.2-18.4,0,3.1-87.7,5.5-108.8-2.4-95.6,7.7-119c10.1-23.5,46.6,1.2,46.6,1.2"/>
                  <path id="Path_343" class="cls-8" d="M77.2,280.9s-3,12.5-6,17.1-21.9,11.1-21.9,11.1c0,0,14.9,14.6,25.6,15.5s25.1-8.3,25.1-8.3c0,0-5.8-5.4-8.4-11.3s4.9-14.9,4.9-14.9l-19.3-9.3Z"/>
                  <path id="Path_344" class="cls-31" d="M94.5,300.7l-1.9,2.3s-3.8,6.3-5.6,7.3l-17.6-12.4c-2.7,1.6-5.5,2.9-8.5,3.8-6.5,2.1-8.7,4.4-8.7,4.4,0,0,9.5,39.8,9,54.1s-2.4,27.5-2.4,27.5l3.9,11.2s8.4,5.9,22.7,3.6l14.2-2.3s-12-15.7-8.1-35.8,9.9-58.8,9.9-58.8l-6.9-4.9Z"/>
                  <path id="Path_345" class="cls-27" d="M85.7,308.6l-5,5.7-12.1-15.4,3.3-2.9,13.9,12.6Z"/>
                  <path id="Path_346" class="cls-27" d="M91.2,299.2l-3.1,9.8,4.1,6.3,2.2-14.6-3.2-1.5Z"/>
                  <path id="Path_347" class="cls-10" d="M68.5,298.9s15.1,63,15.7,74.9c.3,5.4,1.5,35.1.6,62.1-1,32.6-4.3,63-6.8,64.6-4.6,2.9-31,1.6-44.4-2.1,0,0,3.5-93.8,4.1-115.4.5-17.8,1.9-35.7,4.2-53.4,3.7-26,9.5-50.1,9.5-50.1l17,19.3Z"/>
                  <path id="Path_348" class="cls-10" d="M94.5,300.7s-9.7,62.2-10.6,69.5-3.3,123.7,7.4,129.5c0,0,24.7,3.8,37.5-2.2,0,0-13-109.1-13.6-120.5-1-18.4-9.2-77.4-9.2-77.4l-11.6,1.1Z"/>
                  <path id="Path_349" class="cls-8" d="M99.9,263.3s1.7,8.9,1.8,10.5.8,4.9.9,7.2-2,11.2-3.5,13.6-5.6,3.6-8.9,2.7-8.9-4-12.2-5.8-7.7-9.8-7.7-9.8c0,0-4.2-5.6,4.1-12.8s9.1-9.7,13.2-10.4c10.5-1.8,12.4,4.8,12.4,4.8"/>
                  <path id="Path_350" class="cls-20" d="M66.6,284c6.5,4,7.9,5.8,7.9,5.8,0,0,5.6-8.8.9-7.4s-6.4-8.1-2.4-7.4,7.1,6,7.1,6v-3.5c.1,0-2-4-2-4-2.2-4-2.1-6,.6-7.2,4.9-2.3,9.9-4.1,15.2-5.4.6-.2,1.2-.2,1.8-.2,2.6.3,2.8,3,4.1,2.5,1.7-.7,3.1-2.2,3.7-3.9,1.1-3.4-4.1-8.3-11.7-9.9-25.2-5.3-25.7,10.2-25.7,10.2,0,0-2.5-1.2-6,2-4.3,3.9-.1,18.4,6.4,22.4"/>
                  <path id="Path_351" class="cls-28" d="M51.7,627.2l12.4,11.8h-30.6l5-21.2,13.2-2.2v11.6Z"/>
                  <path id="Path_352" class="cls-28" d="M106.8,627.2l12.4,11.8h-27.5l1.9-21.2,13.2-2.2v11.6Z"/>
                  <path id="Path_353" class="cls-10" d="M96.5,309.5s21.6-25.6,21.7-30-3-56.4-3-56.4l13.3-8.3s10.4,70.2,11.4,74.7l-30.4,46.8-12.9-26.8Z"/>
                  <path id="Path_354" class="cls-8" d="M128.2,216.8l-5.9-15.2-6.3-1.6-6.7,1.9,7.1,6.8-3.7,10.8,4.3,4.4,11.2-7.1Z"/>
                  <path id="Path_355" class="cls-10" d="M83.7,389.3c0,1.3-1.1,2.4-2.4,2.4s-2.4-1.1-2.4-2.4c0-1.3,1.1-2.4,2.4-2.4h0c1.3,0,2.4,1.1,2.4,2.4"/>
                  <path id="Path_356" class="cls-10" d="M83.7,420.8c0,1.3-1.1,2.4-2.4,2.4s-2.4-1.1-2.4-2.4c0-1.3,1.1-2.4,2.4-2.4h0c1.3,0,2.4,1.1,2.4,2.4"/>
                  <path id="Path_357" class="cls-1" d="M225.6,314.6h0c-2.3,3-6.7,3.6-9.7,1.3,0,0,0,0,0,0l-108.2-81.3,8.4-11,108.2,81.3c3,2.3,3.6,6.7,1.3,9.7,0,0,0,0,0,0"/>
                  <path id="Path_358" class="cls-37" d="M111.8,229.2s76.2,52.9,97.5,75c6.5,6.7,4.9,9,3.2,9.3l3.3,2.5c3,2.3,7.4,1.8,9.7-1.2,2.3-3,1.8-7.4-1.2-9.7,0,0,0,0,0,0l-108.2-81.3-4.2,5.5Z"/>
                  <path id="Path_359" class="cls-34" d="M93.8,197.4h0c-2,0-4-.5-5.6-1.6l-28.7-18.9c-4.6-3-10.7-1.7-13.7,2.8-2.7,4.1-2,9.6,1.7,12.8l25.8,22.7c1.5,1.3,2.6,3.1,3.1,5,2.3,8.8,7.1,16.8,13.9,22.9l2.3,2.1,14.4-19.7,15.2-19.2-2.6-1.7c-7.7-4.9-16.6-7.4-25.8-7.3"/>
                  <path id="Path_360" class="cls-7" d="M114.7,202c-8.7,12.9-18.3,25.1-28.6,36.7,1.3,1.5,2.7,3,4.2,4.4l2.3,2.1,14.4-19.7,15.2-19.1-2.6-1.7c-1.6-1-3.2-1.9-4.9-2.6"/>
                  <path id="Path_361" class="cls-34" d="M134.3,208.7l-36.3,47.6c-1,1.3-2.8,1.5-4.1.6,0,0,0,0,0,0l-6.5-4.9c-1.3-1-1.5-2.8-.6-4.1l36.3-47.6c1-1.3,2.8-1.5,4.1-.6l6.5,4.9c1.3,1,1.5,2.8.6,4.1,0,0,0,0,0,0"/>
                  <path id="Path_362" class="cls-8" d="M51.1,195.6l.9-5.5,3.8-7.1,6.3,5.3-1,8.4.6,8,3.5,2.9-3.3,2.3-3.4,1.6-4.4,3.3-8.9-7.1,5.9-12Z"/>
                  <path id="Path_363" class="cls-10" d="M60.6,298.1s-5.3-37.3-6.8-40.7c-1.1-2.6,4.6-45.9,4.6-45.9l-11.2-10.4s-17.1,53.6-15.6,59.6c1.6,6,10.3,69,10.3,69l18.6-31.5Z"/>
                  <path id="Path_364" class="cls-8" d="M117.8,200.5l-9-2.1-5,6.9,11.8.4,2.2-5.2Z"/>
                  <path id="Path_365" class="cls-10" d="M264.1,406.9v-1.4h-69.7v1.4c0,6.3-7.9,19.7-15.2,30.7-7.7,11.6-11.8,25.3-11.8,39.2v142c0,11.2,9,20.2,20.2,20.2h83.3c11.2,0,20.2-9,20.2-20.2v-142c0-13.9-4.1-27.6-11.8-39.2-7.3-11-15.2-24.4-15.2-30.7"/>
                  <path id="Path_366" class="cls-16" d="M266.4,415c-1.4-3.2-2.2-6.1-2.2-8.1v-1.4h-69.7v1.4c0,2.1-.9,4.9-2.2,8.1h74.2Z"/>
                  <rect id="Rectangle_53" class="cls-34" x="166.8" y="480.9" width="125.4" height="111.4"/>
                  <path id="Path_367" class="cls-10" d="M255.2,552.8c13.7-2.5,19.9-8.2,19.9-8.2,0,0-7.5-3.9-21.3-2.6-5.4.5-10.6,2-15.6,4.2,5.6-4.1,10.5-9,14.5-14.7,9.6-13.6,10.4-23.4,10.4-23.4,0,0-9.2,3.4-19.8,16.2-3.8,4.6-6.8,9.6-9.2,15.1,1.6-7,2.3-14.1,2.1-21.3-.7-19-5.9-28.4-5.9-28.4,0,0-5.3,9.4-5.9,28.4-.2,6.9.4,13.8,2,20.6-2.3-5.2-5.3-10-8.9-14.4-10.6-12.8-19.8-16.2-19.8-16.2,0,0,.8,9.8,10.4,23.4,4,5.7,8.9,10.6,14.5,14.7-4.9-2.3-10.2-3.7-15.6-4.2-13.8-1.3-21.3,2.6-21.3,2.6,0,0,6.2,5.7,19.8,8.2,5.2.9,10.6,1,15.9.1-2,.8-3.9,1.9-5.6,3.2-7,5.1-8.9,10-8.9,10,0,0,5.3.1,12.7-4.3,4.4-2.7,8-6.4,10.5-10.9,0,2.3-.3,14.5-.5,21.8.5,0,1,0,1.5.1-.1-5.1-.3-11.5-.4-13.9,0-2.7-.2-6.7-.2-8h0c2.5,4.5,6.2,8.2,10.6,10.9,7.4,4.5,12.7,4.3,12.7,4.3,0,0-1.9-4.9-8.9-10-1.8-1.3-3.7-2.3-5.6-3.2,5.3.8,10.6.8,15.9-.1"/>
                  <path id="Path_368" class="cls-10" d="M266.3,392.4h-72.8c-2.2,0-4,1.8-4,4v5.2c0,2.2,1.8,4,4,4h72.8c2.2,0,4-1.8,4-4h0v-5.2c0-2.2-1.8-4-4-4h0"/>
                  <path id="Path_369" class="cls-1" d="M249.5,360.3c1.9,13.6-8.7,24.8-19.5,24.8s-21.8-11.3-19.5-24.8c2.6-15,19.5-38.1,19.5-38.1,0,0,17.3,23.1,19.5,38.1"/>
                  <path id="Path_370" class="cls-37" d="M245.1,346.9c-2.6,5-6.2,9.5-10.5,13.1-6.7,5.5-14.5,9.4-22.9,11.4,3.1,8.1,10.8,13.7,18.4,13.7,10.8,0,21.4-11.3,19.5-24.8-.9-4.7-2.4-9.2-4.5-13.4"/>
                  <path id="Path_371" class="cls-8" d="M429.4,290.7s-16.1-7-18.6-8.4-7.6-4.1-9-4.2-7.2,0-8,.8-4.9,3-4.9,3c.1.8.7,1.5,1.6,1.8,1,.3,3.1-.6,3.1-.6,0,0,3.2-.6,3.6-.6s4.9,3.3,5.2,3.8c0,0-2.7-.4-3.2-.5-1.1,0-2.1.1-3.2.3-.6,0-.5.8-.4,1.5s2.6,1.8,4.1,2.3,3.9,2.8,5.2,3.5,3.5-.1,5.1.2,6.5,1.1,10,2.7,8.7,5.9,12.9,7.9l-3.5-13.4Z"/>
                  <path id="Path_372" class="cls-18" d="M529.9,286.3c.8,0,1.5-.2,2.3-.3.9-8.2-7.4-8-1.9-17.5,5.8-10,7.5-25.7,7.5-25.7l7.6-6.5c-6.3-6.3-15.9-3.6-22.5-.4-12.6,6.2-9.6,24.7-9.3,29.4s-4.8,12.6-5.2,18.1c-.1,1.2-.1,2.3,0,3.5,5.1,1.9,18.3-.2,21.6-.6"/>
                  <path id="Path_373" class="cls-18" d="M528.4,287.4c10.4-1.1,22.5,7.1,26.7-2.5,1.8-4.2.2-12.4,0-16.5-.3-8.3,4.8-16.7.6-24.7s-10.3-7.4-10.3-7.4l-15.4,3.2c-.8,8.4-.7,16.9.1,25.3.6,7.6,0,15.2-1.7,22.7"/>
                  <path id="Path_374" class="cls-8" d="M521.5,240.8c-.8,3-4.1,11.9-4.9,17.7s-1,15.5,2.6,18.5,11.1,1.6,16.6,0,7.2-5.3,8.5-8.6,1.9-12.4,1.3-19.1-4.5-9.7-9.2-11-14.9,2.5-14.9,2.5"/>
                  <path id="Path_375" class="cls-8" d="M536.4,267.3s-.4,12.2,2.5,17.8c2,3.8,9.3,5.1,9.3,5.1.3,7.7-1.7,15.3-5.6,21.9-6.5,11-28.8,16.2-28.8,16.2-3.2-5.8-5.8-12-7.8-18.3-2.9-9.7-1.6-16.4-1.6-16.4,0,0,10.4-3.7,13.3-4.9,6.9-3.1,5.4-14.3,5.4-14.3l13.3-7.1Z"/>
                  <path id="Path_376" class="cls-18" d="M544.9,237.9c-3.2,0-10.2,8.1-16.2,10.7-3.5,1.5-7.6,1.6-11.1.2l3-9.1s4.9-5.6,10.2-4.6,14.1,2.8,14.1,2.8"/>
                  <path id="Path_377" class="cls-18" d="M542.3,288c-2,1-1.5,9.1-1.5,15.7,0,0,3.9-7.6,8.6-11.5,3.2-2.6-1.6-12.6-1.6-12.6l-5.6,8.4Z"/>
                  <path id="Path_378" class="cls-8" d="M522.3,403.9c1.8,18.6,7.1,66.7,10.1,84.1s6.7,88.9,7.3,97.9-.6,31.8-3,35.4-6,14.4-6,14.4l18.7,1.4s-1.7-14,.7-35.7,8.2-58,5.8-87.3,3-67.3,4.8-86.1-5.7-42.3-5.7-42.3l-32.8,18Z"/>
                  <path id="Path_379" class="cls-8" d="M496,403.9c1.8,18.6-.3,66.7,2.7,84.1s8.4,88.9,9,97.9-.6,31.8-3,35.4-14.6,14.4-14.6,14.4l11.2-1.8,8.7-4.3,8,2.5s-2.4-9,0-30.6,7-49.3,5.7-87.3c-1-29.4,8.9-67.3,10.7-86.1s0-42.3,0-42.3l-38.5,18Z"/>
                  <path id="Path_380" class="cls-8" d="M499.1,351.9l59.5-14.4v-44.2l-18.1-6.5-27.9,2.4-5.7,4.4-7.9,58.2Z"/>
                  <path id="Path_381" class="cls-31" d="M546.1,295.3l-4.1-8.7-12.7,3.5-11.4-3.5-3.4.8-3.4,14.2.8,113.1,32.2-8.2,2-111.2Z"/>
                  <path id="Path_382" class="cls-23" d="M423,287.9l-4.5-2.1-3.1,10.8,7.9,6.1-.3-14.9Z"/>
                  <path id="Path_383" class="cls-10" d="M464,300.5s-37.3-11-41-12.5c-2,4.8-4.3,9.5-6.8,14,7.5,3.5,19.9,9.4,26,12.7,10.8,5.8,17.6,6.6,17.6,6.6,7.8,1.5,50.4.2,50.4.2l-3.6-31.2-42.6,10.3Z"/>
                  <path id="Path_384" class="cls-28" d="M500.7,394.9c-.8,3.1-1.7,6.4-2.7,9.9-9.3,32.5,1.5,100,1.5,100,10.6,3.9,47.6,6.8,58.2,3,0,0,5.6-34.6,5.5-83.2,0-10.1-1.9-19.6-3.8-28.9l-58.7-.7Z"/>
                  <path id="Path_385" class="cls-11" d="M525.4,288.8s-1.9-.8-4.1-4.9l-3.4,2.7,4.1,12,3.4-9.7Z"/>
                  <path id="Path_386" class="cls-11" d="M525.4,288.8s9.6-.8,12.7-4.9l3.9,2.7-11.1,11.7-5.5-9.5Z"/>
                  <path id="Path_387" class="cls-10" d="M521.6,462.6l-.6-132.8-1.8,3.6-3.8-46.1-4.4,1-4.4,2c-1.1,3.3-6.6,16.2-8.8,23.3-1.1,3.4-2.4,13.1-1.6,19.1.6,4.2-2.3,39.2-7,66.2-3,17.6-.9,41.6,1.5,61.2,8.8.5,22.2,2.9,30.9,2.5"/>
                  <path id="Path_388" class="cls-10" d="M567.7,458c1.1-14.8,1.4-33.2-1.4-49.8-4.3-25-8.6-76.4-7.1-81.5,1.9-6.6,3.4-11.6,3.4-11.6,0,0-1.6-18.8-2.7-22l-13.4-4.8-4.2-1-16.3,45.7,3.1,129.2c11.4-.8,27.2-2.2,38.4-4.1"/>
                  <path id="Path_389" class="cls-10" d="M542.3,286.9l4.4,1.3-.5,13.9-5.6-.4,1.1,8.1c-9.9,5.9-16.4,26.8-16.4,26.8,0,0,4.3-21,6.7-27.7,6.4-17.7,10.3-22,10.3-22"/>
                  <path id="Path_390" class="cls-10" d="M515,287.7l-4.8,1.8-2.6,10.5,4.4-.6-3,9.1c5.9,5.5,10.1,25.4,10.1,25.4,0,0-.3-17.2-1.6-27-2.3-18.2-2.6-19.1-2.6-19.1"/>
                  <path id="Path_391" class="cls-28" d="M533.4,627.4c2.9-.7,6-.1,8.5,1.6,2.7,1.8,7.5-4.9,7.5-4.9v13.1h-20.9l4.8-9.8Z"/>
                  <path id="Path_392" class="cls-28" d="M499.4,632.1s2.4.2,8.1-1.4c4.5-1.3,9.7-7.7,9.7-7.7l1,14h-5.8l-.7-4-4,4.3h-25.1l13.4-7,3.5,1.9Z"/>
                  <path id="Path_393" class="cls-18" d="M537.8,250.7c-.3,4.4,6,8.5,2.1,18-2.4,5.9,2.3,9.4.6,15.6,5.5-.8,5.2.6,10.6-.8-1.3-3.2-4.4-11.5-3.5-16.8,1.1-6.6,3.3-16.7-1.5-23.3s-10.2-5.4-10.2-5.4c1.7.3,2.1,8.3,1.9,12.7"/>
                  <path id="Path_394" class="cls-8" d="M540.3,259.7s3.3-3,5.2-2.3,1.8,3.7,0,5.9-7.4,3.1-7.4,3.1l2.2-6.8Z"/>
                  <path id="Path_395" class="cls-10" d="M556,369.3l-1.9,4.6-41.1-52.7,5.5-2.3,35.5-.7,2,51.2Z"/>
                  <path id="Path_396" class="cls-28" d="M554.1,373.9l-36.7,2.5-4.4-55.2,39.4-1.4,1.8,54.1Z"/>
                  <path id="Path_397" class="cls-8" d="M567.7,356.1c-10.9-1.9-24.4-3.3-27.6-4.8-4.3-1.9-8.2-4.6-11.4-7.9-1.6-1.5-3.5-2.6-5.6-3.5l-.6,2.6s1,1.2,1.6,2c.6.9,1.1,2.3.5,2.2s-5.8-1.3-7.8-2.6-3.7-2.2-3.7-2.2l-1.1,4.4,1.5,1.9.4,1.7,2.9,2.2.8,2.1s5.5,2.3,9.5,3.7c4.6,1.7,9.3,2.9,14.2,3.6,3,.4,14.9,3.2,29.4,6.3-1-3.9-1.9-7.8-2.9-11.6"/>
                  <path id="Path_398" class="cls-23" d="M546.4,351.7c0,2.4,4.8,16.1,4.8,16.1l-8.6-3.6-.9-12.9,4.7.4Z"/>
                  <path id="Path_399" class="cls-10" d="M560.7,291.7c-8.4,1-12,7.8-6.7,26.4,5.7,20.1,8.6,34.4,8.6,34.4l-16.1-.9-.5,15,6.4,1.8c0,.1,0,.2,0,.3,4.8,1.2,24.7,6.3,25.5,6.3,10.5.1-3.5-57.5-4.5-66.2-1.4-11.2-7-17.9-12.7-17.2"/>
                  <rect id="Rectangle_54" class="cls-26" x="519.2" y="319.3" width="27.1" height="6.1" transform="translate(-12.8 22.1) rotate(-2.4)"/>
                  <path id="Path_400" class="cls-26" d="M528,322.5l9.5-.4v-.7c-.1-2.6-2.4-4.7-5-4.6-2.6.1-4.7,2.3-4.6,5h0v.7Z"/>
                </g>
              </g>
            </g>
          </g>
        </g>
      </g>
    </g>
  </g>
</svg>