<svg id="Group_104" data-name="Group 104" xmlns="http://www.w3.org/2000/svg" xmlns:xlink="http://www.w3.org/1999/xlink" width="358" height="90.562" viewBox="0 0 358 90.562">
  <defs>
    <clipPath id="clip-path">
      <rect id="Rectangle_85" data-name="Rectangle 85" width="358" height="90.562" fill="none"/>
    </clipPath>
  </defs>
  <g id="Group_103" data-name="Group 103" clip-path="url(#clip-path)">
    <path id="Path_678" data-name="Path 678" d="M455.314,26.393V79.462a9.625,9.625,0,0,1-9.625,9.625h-47.95a9.625,9.625,0,0,1-9.624-9.625V12.655a9.625,9.625,0,0,1,9.624-9.624h35.329V18.978a7.43,7.43,0,0,0,7.437,7.437h14.809Z" transform="translate(-99.589 -0.778)" fill="#009cdc"/>
    <path id="Path_679" data-name="Path 679" d="M448.584,3.031,470.83,26.415H456.021a7.431,7.431,0,0,1-7.437-7.438Z" transform="translate(-115.105 -0.778)" fill="#58bbac"/>
    <path id="Path_680" data-name="Path 680" d="M433.856.7a2.187,2.187,0,0,0-1.575-.7H396.954a11.95,11.95,0,0,0-11.9,11.878V78.684a11.95,11.95,0,0,0,11.9,11.878H444.9a11.951,11.951,0,0,0,11.9-11.878V25.615a2.351,2.351,0,0,0-.635-1.531Zm.636,7.021,14.94,15.684h-9.713a5.214,5.214,0,0,1-5.228-5.228ZM444.9,86.187H396.954a7.577,7.577,0,0,1-7.525-7.5V11.878a7.577,7.577,0,0,1,7.525-7.5h33.163v13.8a9.587,9.587,0,0,0,9.6,9.6h12.709v50.9a7.562,7.562,0,0,1-7.524,7.5" transform="translate(-98.804)" fill="#042a4f"/>
    <path id="Path_681" data-name="Path 681" d="M444.346,95.633H408.34a2.187,2.187,0,0,0,0,4.375h36.028a2.188,2.188,0,1,0-.022-4.375" transform="translate(-104.218 -24.539)" fill="#042a4f"/>
    <path id="Path_682" data-name="Path 682" d="M426.544,73.638a2.172,2.172,0,0,0,3.194,0l12.8-13.759a2.182,2.182,0,1,0-3.193-2.975l-9.012,9.691V42.707a2.188,2.188,0,1,0-4.376,0V66.594l-9.012-9.69a2.182,2.182,0,1,0-3.194,2.974Z" transform="translate(-106.016 -10.397)" fill="#042a4f"/>
    <path id="Path_683" data-name="Path 683" d="M0,73.118V31.487H15.939a22.783,22.783,0,0,1,8.3,1.487A19.482,19.482,0,0,1,30.9,37.225a19.728,19.728,0,0,1,4.4,6.513,21.287,21.287,0,0,1,1.576,8.325v.6a20.764,20.764,0,0,1-1.606,8.266,19.539,19.539,0,0,1-4.46,6.483,20.073,20.073,0,0,1-6.661,4.223,22.351,22.351,0,0,1-8.207,1.487Zm9.516-4.877L5.591,64.256h9.575A12.905,12.905,0,0,0,21.381,62.8,10.579,10.579,0,0,0,25.6,58.725a11.872,11.872,0,0,0,1.517-6.065v-.6a12.324,12.324,0,0,0-1.487-6.184A10.436,10.436,0,0,0,21.47,41.8a13,13,0,0,0-6.3-1.457H5.591l3.925-3.985Z" transform="translate(0 -8.079)" fill="#232517"/>
    <path id="Path_684" data-name="Path 684" d="M65.9,77.755a16.488,16.488,0,0,1-7.94-1.9,14.358,14.358,0,0,1-5.59-5.293,14.745,14.745,0,0,1-2.052-7.792v-.594a14.593,14.593,0,0,1,2.052-7.761,14.434,14.434,0,0,1,5.59-5.263,16.489,16.489,0,0,1,7.94-1.9,16.321,16.321,0,0,1,7.91,1.9,14.328,14.328,0,0,1,7.612,13.024v.594a14.745,14.745,0,0,1-2.052,7.792,14.422,14.422,0,0,1-5.561,5.293,16.321,16.321,0,0,1-7.91,1.9m0-7.79a6.564,6.564,0,0,0,3.479-.922,6.234,6.234,0,0,0,2.349-2.558,8.075,8.075,0,0,0,.833-3.717v-.594a7.9,7.9,0,0,0-.833-3.687,6.288,6.288,0,0,0-2.349-2.528,6.564,6.564,0,0,0-3.479-.922,6.409,6.409,0,0,0-3.45.922A6.567,6.567,0,0,0,60.1,58.487a7.674,7.674,0,0,0-.862,3.687v.594a7.842,7.842,0,0,0,.862,3.717,6.5,6.5,0,0,0,2.349,2.558,6.409,6.409,0,0,0,3.45.922" transform="translate(-12.912 -12.123)" fill="#232517"/>
    <path id="Path_685" data-name="Path 685" d="M98.478,77.367l-7.2-29.32h8.8L105.02,71.9l-1.784-.059,5.947-23.789h9.4l5.947,23.789-1.784.059,4.936-23.848h8.8l-7.2,29.32H118.937l-6.6-27.476h3.093l-6.6,27.476Z" transform="translate(-23.423 -12.329)" fill="#232517"/>
    <path id="Path_686" data-name="Path 686" d="M154,77.162V47.842h8.624v8.207h-2.38a12.487,12.487,0,0,1,1.785-4.52,9,9,0,0,1,2.705-2.647,10.359,10.359,0,0,1,3.093-1.279,12.922,12.922,0,0,1,2.824-.357,9.991,9.991,0,0,1,7.85,3.271q2.914,3.272,2.914,8.98V77.162H172.5V60.985a6.4,6.4,0,0,0-1.189-4.312,4.152,4.152,0,0,0-3.271-1.338,5.114,5.114,0,0,0-2.647.684,4.673,4.673,0,0,0-1.814,1.992,7.131,7.131,0,0,0-.654,3.212V77.162Z" transform="translate(-39.516 -12.123)" fill="#232517"/>
    <path id="Path_687" data-name="Path 687" d="M203.837,72.5a10.159,10.159,0,0,1-6.987-2.29,8.162,8.162,0,0,1-2.588-6.453V32.6l3.985,3.985H189.92V29.087h13.262V63.938a1.221,1.221,0,0,0,1.19,1.189h3.389V72.5Z" transform="translate(-48.733 -7.464)" fill="#232517"/>
    <path id="Path_688" data-name="Path 688" d="M229.022,77.755a16.488,16.488,0,0,1-7.94-1.9,14.358,14.358,0,0,1-5.59-5.293,14.745,14.745,0,0,1-2.052-7.792v-.594a14.593,14.593,0,0,1,2.052-7.761,14.434,14.434,0,0,1,5.59-5.263,16.489,16.489,0,0,1,7.94-1.9,16.321,16.321,0,0,1,7.91,1.9,14.328,14.328,0,0,1,7.612,13.024v.594a14.745,14.745,0,0,1-2.052,7.792,14.422,14.422,0,0,1-5.561,5.293,16.321,16.321,0,0,1-7.91,1.9m0-7.79a6.564,6.564,0,0,0,3.479-.922,6.234,6.234,0,0,0,2.349-2.558,8.075,8.075,0,0,0,.833-3.717v-.594a7.9,7.9,0,0,0-.833-3.687,6.289,6.289,0,0,0-2.349-2.528,6.564,6.564,0,0,0-3.479-.922,6.409,6.409,0,0,0-3.45.922,6.567,6.567,0,0,0-2.349,2.528,7.674,7.674,0,0,0-.862,3.687v.594a7.842,7.842,0,0,0,.862,3.717,6.5,6.5,0,0,0,2.349,2.558,6.409,6.409,0,0,0,3.45.922" transform="translate(-54.768 -12.123)" fill="#232517"/>
    <path id="Path_689" data-name="Path 689" d="M266.6,77.756a11.865,11.865,0,0,1-7.821-2.439,7.743,7.743,0,0,1-2.944-6.244,8.055,8.055,0,0,1,1.4-4.7,9.256,9.256,0,0,1,4.1-3.183,16.677,16.677,0,0,1,6.572-1.159q5.412,0,8,2.319a7.9,7.9,0,0,1,2.587,6.185h-2.617a9.571,9.571,0,0,1-2.26,6.809q-2.26,2.41-7.018,2.409m8.029-.595V68.538l-1.07-3.39V58.9a3.409,3.409,0,0,0-1.368-3.093,5.966,5.966,0,0,0-3.33-.892,13.053,13.053,0,0,0-4.312.8,13.668,13.668,0,0,0-4.014,2.171L256.613,52a14.51,14.51,0,0,1,5.441-3.42,20.469,20.469,0,0,1,7.405-1.337,16.084,16.084,0,0,1,6.691,1.308,10.688,10.688,0,0,1,4.55,3.776,10.547,10.547,0,0,1,1.665,6.037v9.574q0,2.321.03,4.61t.149,4.609Zm-5.471-5.828a6.021,6.021,0,0,0,3.211-.773,2.312,2.312,0,0,0,1.249-2.022,2.272,2.272,0,0,0-1.249-1.963,6.021,6.021,0,0,0-3.211-.773,5.9,5.9,0,0,0-3.152.773,2.271,2.271,0,0,0-1.249,1.963,2.31,2.31,0,0,0,1.249,2.022,5.9,5.9,0,0,0,3.152.773" transform="translate(-65.648 -12.123)" fill="#232517"/>
    <path id="Path_690" data-name="Path 690" d="M308.235,73.1a13.759,13.759,0,0,1-7.078-1.843,13.274,13.274,0,0,1-4.995-5.2,16.125,16.125,0,0,1-1.844-7.881v-.594a15.966,15.966,0,0,1,1.873-7.85,13.537,13.537,0,0,1,12.1-7.137,12.185,12.185,0,0,1,5.411,1.19,11.832,11.832,0,0,1,4.1,3.27l-1.844,2.141v-20.1h8.921V72.5h-7.969V65.6l1.725,1.844a12.426,12.426,0,0,1-4.431,4.193,12.192,12.192,0,0,1-5.977,1.456m1.487-7.79a7.086,7.086,0,0,0,3.509-.862,6.12,6.12,0,0,0,2.438-2.528,8.458,8.458,0,0,0,.892-4.043,8.61,8.61,0,0,0-.892-4.1,6.134,6.134,0,0,0-2.438-2.527,7.093,7.093,0,0,0-3.509-.862,6.46,6.46,0,0,0-3.212.833,6.135,6.135,0,0,0-2.38,2.438,7.992,7.992,0,0,0-.891,3.926v.594a7.856,7.856,0,0,0,.891,3.866,6.128,6.128,0,0,0,2.38,2.438,6.46,6.46,0,0,0,3.212.833" transform="translate(-75.521 -7.463)" fill="#232517"/>
    <path id="Path_691" data-name="Path 691" d="M349.395,77.636a20.333,20.333,0,0,1-11.717-3.508l3.747-6.007a26.181,26.181,0,0,0,3.9,1.9,11.175,11.175,0,0,0,4.075.773,4.986,4.986,0,0,0,2.557-.566,1.71,1.71,0,0,0,.952-1.517,1.66,1.66,0,0,0-1.012-1.575,12.634,12.634,0,0,0-2.586-.892q-1.577-.387-3.361-.893a14.351,14.351,0,0,1-3.359-1.426A7.277,7.277,0,0,1,340,61.312a8.713,8.713,0,0,1-1.01-4.491,8.6,8.6,0,0,1,3.18-6.9q3.181-2.677,8.773-2.678a21.7,21.7,0,0,1,5.709.743,17.6,17.6,0,0,1,4.877,2.112l-3.807,5.946A15.062,15.062,0,0,0,354.3,54.5a11.881,11.881,0,0,0-3.479-.536,4.532,4.532,0,0,0-2.438.566,1.726,1.726,0,0,0-.892,1.516,1.675,1.675,0,0,0,1.041,1.547,11.813,11.813,0,0,0,2.676.922q1.635.388,3.449.922a14.8,14.8,0,0,1,3.449,1.517,7.867,7.867,0,0,1,2.676,2.675,8.518,8.518,0,0,1,1.041,4.49,8.009,8.009,0,0,1-1.6,4.938,10.693,10.693,0,0,1-4.4,3.359,15.929,15.929,0,0,1-6.422,1.219" transform="translate(-86.647 -12.123)" fill="#232517"/>
  </g>
</svg>
