<svg xmlns="http://www.w3.org/2000/svg" xmlns:xlink="http://www.w3.org/1999/xlink" width="52.511" height="24.202" viewBox="0 0 52.511 24.202">
  <defs>
    <clipPath id="clip-path">
      <rect id="Rectangle_26" data-name="Rectangle 26" width="52.511" height="24.202" fill="none"/>
    </clipPath>
  </defs>
  <g id="Group_14" data-name="Group 14" clip-path="url(#clip-path)">
    <path id="Path_75" data-name="Path 75" d="M22.971,16.949a1.185,1.185,0,0,0,1.184-1.184V4.133A3.958,3.958,0,0,0,20.2.18H3.953A3.958,3.958,0,0,0,0,4.133V20.382a3.958,3.958,0,0,0,3.953,3.953H20.2a3.958,3.958,0,0,0,3.953-3.953,1.184,1.184,0,1,0-2.368,0A1.587,1.587,0,0,1,20.2,21.968H15.939V15.75h1.876a1.185,1.185,0,0,0,1.176-1.042l.122-1.016a1.183,1.183,0,0,0-1.175-1.325h-2V9.534A1.125,1.125,0,0,1,17.063,8.41h1.154A1.185,1.185,0,0,0,19.4,7.226V6.292a1.18,1.18,0,0,0-1.062-1.178c-.26-.027-.9-.088-1.276-.088a4.537,4.537,0,0,0-3.143,1.321,4.461,4.461,0,0,0-1.364,3.195v2.824H10.739A1.185,1.185,0,0,0,9.555,13.55v1.016a1.185,1.185,0,0,0,1.184,1.184h1.817v6.218h-8.6a1.587,1.587,0,0,1-1.586-1.586V4.133A1.587,1.587,0,0,1,3.953,2.548H20.2a1.587,1.587,0,0,1,1.586,1.586V15.766a1.185,1.185,0,0,0,1.184,1.184" transform="translate(0 -0.133)" fill="#fff"/>
    <path id="Path_76" data-name="Path 76" d="M137.867,23.207a6.031,6.031,0,1,0,6.031,6.031,6.037,6.037,0,0,0-6.031-6.031m3.663,6.031a3.663,3.663,0,1,1-3.663-3.663,3.667,3.667,0,0,1,3.663,3.663" transform="translate(-97.48 -17.159)" fill="#fff"/>
    <path id="Path_77" data-name="Path 77" d="M132.939,9.147a15.743,15.743,0,0,0-.365-3.773,6.724,6.724,0,0,0-2.261-3.646A7.248,7.248,0,0,0,126.136.145c-1.667-.1-3.385-.155-5.244-.144-1.855-.006-3.575.042-5.25.144a7.248,7.248,0,0,0-4.178,1.583A6.723,6.723,0,0,0,109.2,5.374a15.741,15.741,0,0,0-.365,3.773c-.012.863-.024,1.887-.027,2.933s.015,2.064.027,2.928a15.739,15.739,0,0,0,.365,3.773,6.72,6.72,0,0,0,2.261,3.646,7.249,7.249,0,0,0,4.177,1.583c1.6.1,3.235.145,5,.145h.482c1.775,0,3.415-.047,5.014-.145a7.248,7.248,0,0,0,4.178-1.583,6.527,6.527,0,0,0,1.87-2.493,1.184,1.184,0,0,0-2.173-.941,4.176,4.176,0,0,1-1.193,1.6,4.833,4.833,0,0,1-2.825,1.055c-1.621.1-3.286.15-5.106.14-1.8.008-3.475-.041-5.1-.14a4.832,4.832,0,0,1-2.825-1.055,4.408,4.408,0,0,1-1.463-2.4,13.938,13.938,0,0,1-.291-3.22c-.011-.857-.024-1.872-.027-2.9s.015-2.044.027-2.9a13.934,13.934,0,0,1,.291-3.22,4.409,4.409,0,0,1,1.463-2.4,4.832,4.832,0,0,1,2.825-1.055c1.62-.1,3.29-.147,5.106-.14s3.488.042,5.1.14a4.831,4.831,0,0,1,2.825,1.055,4.408,4.408,0,0,1,1.463,2.4,13.953,13.953,0,0,1,.291,3.22c.012.857.024,1.871.027,2.9s-.015,2.044-.027,2.9a1.186,1.186,0,0,0,1.168,1.2h.016a1.185,1.185,0,0,0,1.183-1.168c.012-.863.024-1.887.027-2.933s-.015-2.064-.027-2.928" transform="translate(-80.455 0.001)" fill="#fff"/>
    <path id="Path_78" data-name="Path 78" d="M176.576,17.767a1.645,1.645,0,1,0-1.645,1.645,1.647,1.647,0,0,0,1.645-1.645" transform="translate(-128.126 -11.921)" fill="#fff"/>
  </g>
</svg>
