<?xml version="1.0" encoding="UTF-8"?>
<svg xmlns="http://www.w3.org/2000/svg" version="1.1" viewBox="0 0 24.2 24.2">
  <defs>
    <style>
      .cls-1 {
        fill: #fff;
      }
    </style>
  </defs>
  <!-- Generator: Adobe Illustrator 28.7.1, SVG Export Plug-In . SVG Version: 1.2.0 Build 142)  -->
  <g>
    <g id="Layer_1">
      <path id="Path_75" class="cls-1" d="M23,16.8c.7,0,1.2-.5,1.2-1.2V4c0-2.2-1.8-4-4-4H4C1.8,0,0,1.8,0,4v16.2c0,2.2,1.8,4,4,4h16.2c2.2,0,4-1.8,4-4,0-.7-.5-1.2-1.2-1.2-.7,0-1.2.5-1.2,1.2h0c0,.9-.7,1.6-1.6,1.6h-4.3v-6.2h1.9c.6,0,1.1-.4,1.2-1v-1c.2-.6-.3-1.2-.9-1.3,0,0,0,0-.1,0h-2v-2.8c0-.6.5-1.1,1.1-1.1h1.2c.7,0,1.2-.5,1.2-1.2v-.9c0-.6-.5-1.1-1.1-1.2-.3,0-.9,0-1.3,0-1.2,0-2.3.5-3.1,1.3-.9.8-1.4,2-1.4,3.2v2.8h-1.8c-.7,0-1.2.5-1.2,1.2v1c0,.7.5,1.2,1.2,1.2h1.8v6.2H4c-.9,0-1.6-.7-1.6-1.6V4c0-.9.7-1.6,1.6-1.6h16.2c.9,0,1.6.7,1.6,1.6v11.6c0,.7.5,1.2,1.2,1.2"/>
    </g>
  </g>
</svg>