<svg id="Group_42" data-name="Group 42" xmlns="http://www.w3.org/2000/svg" xmlns:xlink="http://www.w3.org/1999/xlink" width="186.893" height="186.783" viewBox="0 0 186.893 186.783">
  <defs>
    <clipPath id="clip-path">
      <rect id="Rectangle_40" data-name="Rectangle 40" width="186.893" height="186.783" fill="none"/>
    </clipPath>
  </defs>
  <g id="Group_41" data-name="Group 41" clip-path="url(#clip-path)">
    <path id="Path_220" data-name="Path 220" d="M275.481,195.56a14.4,14.4,0,0,0-8.295-7.43,14.914,14.914,0,0,0-8.719-.376,10.658,10.658,0,0,0-8.939-4.688l.092-14.124a15.542,15.542,0,0,0,5.1,2.175,2.738,2.738,0,0,0,3.282-2.08,15.314,15.314,0,0,0,.038-5.192,25.7,25.7,0,0,0,17.662-4.179,2.737,2.737,0,0,0,.164-4.319,22.4,22.4,0,0,0-12.329-4.9c4.912-4.65,7.823-9.646,8.838-15.133q.106-3.189-3.083-3.209c-5.938.859-10.919,4.04-14.609,7.291.335-6.565-.656-13.953-5.432-20.339a2.777,2.777,0,0,0-4.384,0c-4.793,6.4-5.787,13.8-5.458,20.368a35.78,35.78,0,0,0-4.546-3.354V107.363a20.153,20.153,0,0,0,7.842,4.061,2.907,2.907,0,0,0,3.266-1.723,19.323,19.323,0,0,0,.415-9.009c9.5,1.529,19.26-.481,26.319-5.589a2.738,2.738,0,0,0,.147-4.322c-5.943-4.955-13.211-6.7-19.852-6.985,8.166-7.061,12.943-14.673,14.531-23.1a2.761,2.761,0,0,0-3.16-3.2c-7.789,1.359-15.841,5.81-22.65,12.343.933-9.991.047-21.748-7.413-31.7a2.763,2.763,0,0,0-4.382,0c-7.453,9.945-8.346,21.689-7.417,31.675-5.342-5.226-13.171-10.947-22.753-12.327q-3.185.022-3.081,3.207C198.233,69.1,203,76.712,211.2,83.788c-6.713.266-14.051,2-20.009,7a2.736,2.736,0,0,0,.163,4.322c7.042,5.052,16.8,7.061,26.33,5.59a22.537,22.537,0,0,0-.253,8.667,2.736,2.736,0,0,0,3.283,2.078,21.115,21.115,0,0,0,8.679-4.226v26.152a25.361,25.361,0,0,0-4.487-1.227,2.762,2.762,0,0,0-3.161,3.2,27.03,27.03,0,0,0,7.649,13.953v1.335a22.087,22.087,0,0,0-11.054,4.732,2.737,2.737,0,0,0,.148,4.319,23.672,23.672,0,0,0,10.905,4.144v24.067a21.513,21.513,0,0,0-11.7-3.525c-3.443,0-3.468,5.458-.026,5.475a16.2,16.2,0,0,1,12.1,5.6,3.055,3.055,0,0,0,4.747-.424,5.542,5.542,0,0,1,5.62-.308,2.782,2.782,0,0,0,4-1.941A5.078,5.078,0,0,1,249,188.555a5.2,5.2,0,0,1,5.509,3.468,2.737,2.737,0,0,0,3.782,1.6,9.255,9.255,0,0,1,7.063-.333,8.949,8.949,0,0,1,5.175,4.608,8.847,8.847,0,0,1,.842,3.763c0,3.436,5.475,3.608,5.475,0a14.371,14.371,0,0,0-1.365-6.1m-52.845-90.526a22.424,22.424,0,0,1,1.514-6.99,2.761,2.761,0,0,0-3.291-3.624,32.754,32.754,0,0,1-22.871-1.705c6.856-3.865,15.242-3.869,21.478-3.063a2.754,2.754,0,0,0,1.893-4.977c-9.686-6.616-15.566-13.31-18.183-20.787,5.308,1.7,13.4,5.9,21.2,16.315a2.753,2.753,0,0,0,4.88-2.157c-2.739-14.236-1.836-24.942,2.867-33.278,4.7,8.325,5.6,19.019,2.876,33.234a2.752,2.752,0,0,0,4.878,2.157C245.7,72.388,253.351,66.586,260.984,64c-2.654,7.441-8.508,14.093-18.094,20.649a2.755,2.755,0,0,0,1.888,4.978c6.158-.776,14.451-.746,21.28,3.095a32.588,32.588,0,0,1-22.675,1.7,2.762,2.762,0,0,0-3.333,3.549,19.183,19.183,0,0,1,1.183,7.07,16.521,16.521,0,0,1-6.757-6.561,2.761,2.761,0,0,0-4.74,0,15.933,15.933,0,0,1-7.1,6.551m9.537,50.8c.083,0,.167-.006.249-.014a31.652,31.652,0,0,1,5.762.219,2.754,2.754,0,0,0,1.888-4.975c-5.684-3.894-9.416-7.818-11.439-12.094A32.006,32.006,0,0,1,241,149.154,2.753,2.753,0,0,0,245.886,147c-1.685-8.819-1.319-15.616,1.175-20.989,2.486,5.376,2.838,12.181,1.133,21.012a2.753,2.753,0,0,0,4.88,2.16c4.455-5.955,9.027-8.894,12.473-10.346-2.009,4.317-5.775,8.289-11.549,12.238a2.754,2.754,0,0,0,1.9,4.975c3.694-.481,8.511-.54,12.717,1.228a22.229,22.229,0,0,1-13.569.424,2.761,2.761,0,0,0-3.293,3.62,15.3,15.3,0,0,1,.821,3,10.281,10.281,0,0,1-3.161-3.416,2.771,2.771,0,0,0-4.74,0,11.027,11.027,0,0,1-3.034,3.42,13.378,13.378,0,0,1,.711-3.067,2.765,2.765,0,0,0-3.333-3.547A22.01,22.01,0,0,1,225.6,157.3a20.477,20.477,0,0,1,6.574-1.467m7.563,32.978a11.07,11.07,0,0,0-4.867.131v-24.97c.437-.03.875-.07,1.312-.123a13.277,13.277,0,0,0,.475,5.527,2.9,2.9,0,0,0,3.268,1.724,14.578,14.578,0,0,0,4.219-1.865l-.1,15.183a10.381,10.381,0,0,0-4.308,4.394" transform="translate(-89.953 -17.521)" fill="#18604e"/>
    <path id="Path_221" data-name="Path 221" d="M103.844,168.458a11.234,11.234,0,0,0-3.908,1.063V140.608a16.5,16.5,0,0,0,5.519,2.614,2.9,2.9,0,0,0,3.264-1.723,15.135,15.135,0,0,0,.474-6.673c7.445,1.011,15.015-.647,20.547-4.65a2.738,2.738,0,0,0,.148-4.322,25.833,25.833,0,0,0-14.726-5.593c5.96-5.436,9.479-11.289,10.7-17.75a2.763,2.763,0,0,0-3.161-3.2c-5.886,1.027-11.951,4.234-17.2,8.951.529-7.705-.443-16.535-6.114-24.1a2.763,2.763,0,0,0-4.382,0c-5.66,7.552-6.641,16.36-6.118,24.058-4.251-3.907-10.169-7.894-17.3-8.92Q68.4,99.319,68.5,102.5c1.192,6.447,4.706,12.3,10.681,17.749a27.242,27.242,0,0,0-12.034,3.616V76.778a22.029,22.029,0,0,0,9.034,4.844A2.9,2.9,0,0,0,79.446,79.9a21.2,21.2,0,0,0,.381-10.207c10.55,1.8,21.428-.39,29.265-6.061a2.739,2.739,0,0,0,.148-4.321c-6.728-5.609-15.019-7.461-22.5-7.677,9.315-7.9,14.745-16.406,16.523-25.843a2.762,2.762,0,0,0-3.159-3.205c-8.769,1.532-17.842,6.633-25.442,14.109C75.8,25.546,74.982,12.268,66.6,1.081a2.759,2.759,0,0,0-4.38,0c-8.379,11.177-9.206,24.444-8.063,35.594-5.877-5.888-14.69-12.538-25.548-14.1q-3.189.023-3.082,3.207a37.482,37.482,0,0,0,4.3,11.685c1.745,3.078,6.507.378,4.762-2.7a32.874,32.874,0,0,1-2.608-5.831c5.891,1.778,15.177,6.382,24.1,18.3a2.753,2.753,0,0,0,4.88-2.157c-3.09-16.052-2-28.073,3.451-37.408,5.446,9.326,6.538,21.327,3.462,37.358a2.753,2.753,0,0,0,4.879,2.158C79.361,38.359,88.1,31.821,96.77,29.042c-2.859,8.506-9.415,16.069-20.295,23.51a2.754,2.754,0,0,0,1.888,4.977c6.99-.882,16.456-.825,24.156,3.724-7.325,3.762-17.006,4.635-25.744,2.139a2.761,2.761,0,0,0-3.331,3.547,21.175,21.175,0,0,1,1.3,8.362,18.412,18.412,0,0,1-7.981-7.557,2.762,2.762,0,0,0-4.74,0,17.857,17.857,0,0,1-8.4,7.547,24.958,24.958,0,0,1,1.712-8.281,2.761,2.761,0,0,0-3.292-3.622C43.06,65.9,33.472,65.05,26.087,61.244c7.724-4.576,17.3-4.6,24.373-3.689a2.753,2.753,0,0,0,1.895-4.975,77.587,77.587,0,0,1-9.15-7.209c-2.594-2.41-6.322,1.6-3.729,4.01q1.221,1.135,2.538,2.247c-7.555.194-15.914,2.037-22.654,7.689a2.738,2.738,0,0,0,.163,4.322c7.822,5.612,18.706,7.8,29.3,6.061a24.845,24.845,0,0,0-.365,9.865,2.739,2.739,0,0,0,3.284,2.079,23.064,23.064,0,0,0,9.935-5v64.385a25.155,25.155,0,0,0-12.234-4.126c5.54-5.125,8.807-10.631,9.93-16.69q.106-3.189-3.083-3.207c-6.638.96-12.17,4.613-16.195,8.255.447-7.237-.536-15.464-5.827-22.54a2.776,2.776,0,0,0-4.383,0c-5.309,7.087-6.3,15.325-5.858,22.565a33.293,33.293,0,0,0-16.089-8.244,2.761,2.761,0,0,0-3.162,3.2c1.137,6.07,4.4,11.578,9.924,16.688A24.482,24.482,0,0,0,.984,142.245a2.739,2.739,0,0,0,.148,4.319c5.219,3.783,12.346,5.367,19.373,4.452a14.4,14.4,0,0,0,.472,6.205,2.907,2.907,0,0,0,3.268,1.725,15.74,15.74,0,0,0,5.145-2.411l-.065,9.138a14.416,14.416,0,0,0-7.392,6.028,14.537,14.537,0,0,0-16.479,1.274A14.245,14.245,0,0,0,0,184.138c0,3.438,5.475,3.61,5.475,0a8.8,8.8,0,0,1,3.392-6.883,9.075,9.075,0,0,1,12.223.66,2.763,2.763,0,0,0,4.586-1.2,8.9,8.9,0,0,1,6.257-6.148,9.09,9.09,0,0,1,8.742,1.981,9,9,0,0,1,2.607,4.4,2.782,2.782,0,0,0,4.087,1.681,16.237,16.237,0,0,1,15.333-.772,2.78,2.78,0,0,0,3.907-2.214,5.207,5.207,0,0,1,3.689-4.417,5.375,5.375,0,0,1,7.009,4.666,2.76,2.76,0,0,0,4.632,1.848,9.3,9.3,0,0,1,13.169.478,2.764,2.764,0,0,0,4.615-.9,5.181,5.181,0,0,1,4.595-3.407,5.314,5.314,0,0,1,5.15,2.588c1.752,3.076,6.51.368,4.759-2.708a10.714,10.714,0,0,0-10.38-5.337M87.072,125.952a2.753,2.753,0,0,0,1.9-4.975c-7.1-4.846-11.576-9.732-13.793-15.1,4.1,1.536,9.844,4.92,15.415,12.359a2.753,2.753,0,0,0,4.88-2.158c-2.048-10.641-1.509-18.749,1.723-25.112,3.226,6.356,3.767,14.453,1.728,25.077A2.753,2.753,0,0,0,103.8,118.2a36.675,36.675,0,0,1,15.327-12.206c-2.244,5.335-6.7,10.177-13.7,14.968a2.753,2.753,0,0,0,1.888,4.975c4.5-.567,10.451-.586,15.534,1.863a25.532,25.532,0,0,1-16.557.843,2.762,2.762,0,0,0-3.333,3.549,15.206,15.206,0,0,1,.9,4.456,12.772,12.772,0,0,1-4.3-4.525,2.762,2.762,0,0,0-4.74,0,12.145,12.145,0,0,1-4.506,4.517,17.567,17.567,0,0,1,1.085-4.381,2.76,2.76,0,0,0-3.291-3.622,25.734,25.734,0,0,1-16.721-.844c5.111-2.464,11.137-2.428,15.692-1.838M25.885,152.3a14.484,14.484,0,0,1,.831-3.9,2.766,2.766,0,0,0-3.333-3.55A24.081,24.081,0,0,1,8.1,144.185c4.723-2.173,10.192-2.148,14.344-1.626a2.753,2.753,0,0,0,1.888-4.975c-6.468-4.428-10.628-8.9-12.78-13.809a34.711,34.711,0,0,1,14.122,11.388,2.752,2.752,0,0,0,4.88-2.154c-1.889-9.9-1.418-17.468,1.514-23.428,2.924,5.964,3.38,13.546,1.467,23.455a2.754,2.754,0,0,0,4.881,2.16c5.117-6.839,10.384-10.05,14.222-11.556-2.137,4.949-6.329,9.466-12.892,13.955a2.753,2.753,0,0,0,1.9,4.974c4.208-.543,9.744-.594,14.485,1.59a24.288,24.288,0,0,1-15.445.676,2.762,2.762,0,0,0-3.293,3.62,16.649,16.649,0,0,1,.983,3.837,11.4,11.4,0,0,1-3.958-4.08,2.772,2.772,0,0,0-4.741,0,12.067,12.067,0,0,1-3.791,4.089M47.412,172.49a14.39,14.39,0,0,0-12.6-7.763l.057-8.179a16.563,16.563,0,0,0,5.591,2.411,2.735,2.735,0,0,0,3.281-2.078,16.621,16.621,0,0,0-.007-5.871,28.286,28.286,0,0,0,17.943-3.54v24.185a21.889,21.889,0,0,0-14.26.835m34.228-1.153a10.951,10.951,0,0,0-14.492-4.728V131.815a30.158,30.158,0,0,0,17.876,3.015,17.491,17.491,0,0,0-.045,6.33,2.735,2.735,0,0,0,3.282,2.08,17.4,17.4,0,0,0,6.2-2.767V171.12a14.811,14.811,0,0,0-12.82.217" transform="translate(0 0)" fill="#18604e"/>
  </g>
</svg>
