<svg id="Group_94" data-name="Group 94" xmlns="http://www.w3.org/2000/svg" xmlns:xlink="http://www.w3.org/1999/xlink" width="277.511" height="107.635" viewBox="0 0 277.511 107.635">
  <defs>
    <clipPath id="clip-path">
      <rect id="Rectangle_80" data-name="Rectangle 80" width="277.511" height="107.635" fill="#54542a"/>
    </clipPath>
  </defs>
  <g id="Group_93" data-name="Group 93" clip-path="url(#clip-path)">
    <path id="Path_610" data-name="Path 610" d="M268.065,105.866a.611.611,0,0,0,.1.976,3.349,3.349,0,0,1,1.04.942,4.03,4.03,0,0,1,.734,2.425,4.125,4.125,0,0,1-1.328,3.14,4.9,4.9,0,0,1-3.462,1.248h-6.689a.617.617,0,0,1-.617-.617v-13.64a.617.617,0,0,1,.617-.617h6.347a4.378,4.378,0,0,1,3.2,1.107,3.434,3.434,0,0,1,1.147,2.576,3.284,3.284,0,0,1-.564,1.842,3.145,3.145,0,0,1-.527.619M264.1,102.9h-1.959a.617.617,0,0,0-.617.617V104.8a.617.617,0,0,0,.617.617h1.8a1.65,1.65,0,0,0,1.138-.353,1.171,1.171,0,0,0,.392-.916,1.189,1.189,0,0,0-.372-.886,1.369,1.369,0,0,0-1-.362m-2.576,7.856a.617.617,0,0,0,.617.617h2.2a1.8,1.8,0,0,0,1.288-.422,1.39,1.39,0,0,0,.443-1.047,1.413,1.413,0,0,0-.443-1.067,1.679,1.679,0,0,0-1.208-.422h-2.281a.617.617,0,0,0-.617.617Z" transform="translate(-70.779 -27.374)" fill="#54542a"/>
    <path id="Path_611" data-name="Path 611" d="M277.375,102.012a1.995,1.995,0,0,1-2.053-2.053,1.918,1.918,0,0,1,.593-1.439,2.021,2.021,0,0,1,1.46-.573,1.985,1.985,0,0,1,1.449.573,1.935,1.935,0,0,1,.584,1.439,1.992,1.992,0,0,1-.584,1.47,1.967,1.967,0,0,1-1.449.583m1.791,1.6V113.5a.609.609,0,0,1-.609.609h-2.345a.609.609,0,0,1-.609-.609v-9.893a.609.609,0,0,1,.609-.609h2.345a.609.609,0,0,1,.609.609" transform="translate(-75.576 -26.886)" fill="#54542a"/>
    <path id="Path_612" data-name="Path 612" d="M287.52,116.2a5.911,5.911,0,0,1-4.368-1.691,6.032,6.032,0,0,1,0-8.333,5.875,5.875,0,0,1,4.368-1.711,5.79,5.79,0,0,1,4.367,1.711,5.978,5.978,0,0,1,0,8.333,5.868,5.868,0,0,1-4.367,1.691m0-3.321a2.433,2.433,0,0,0,1.791-.725,2.568,2.568,0,0,0,.725-1.831,2.506,2.506,0,1,0-5.012,0,2.57,2.57,0,0,0,.724,1.831,2.41,2.41,0,0,0,1.772.725" transform="translate(-77.267 -28.676)" fill="#54542a"/>
    <path id="Path_613" data-name="Path 613" d="M303.785,114.775a7.824,7.824,0,0,1-5.687-2.191.637.637,0,0,1-.075-.818l1.179-1.719a.64.64,0,0,1,.939-.128,5.653,5.653,0,0,0,3.7,1.394,2.259,2.259,0,0,0,1.188-.292.893.893,0,0,0,.483-.8q0-.7-1.208-1.148l-1.328-.443a19.514,19.514,0,0,1-1.892-.765,4.165,4.165,0,0,1-2.456-3.865,4.116,4.116,0,0,1,1.551-3.281,5.963,5.963,0,0,1,3.984-1.308,8.046,8.046,0,0,1,4.813,1.5.646.646,0,0,1,.181.862l-1.095,1.788a.646.646,0,0,1-.888.207,6.032,6.032,0,0,0-1.119-.513,5.617,5.617,0,0,0-1.832-.342,2.148,2.148,0,0,0-1.167.271.805.805,0,0,0-.422.694q0,.644,1.188,1.107l1.307.483q1.087.383,1.711.644a4.064,4.064,0,0,1,2.839,3.9,4.311,4.311,0,0,1-1.611,3.422,6.478,6.478,0,0,1-4.287,1.328" transform="translate(-81.776 -27.29)" fill="#54542a"/>
    <path id="Path_614" data-name="Path 614" d="M318.006,114.414h-2.253a.645.645,0,0,1-.645-.645V99.7a.645.645,0,0,1,.645-.645h2.172a.645.645,0,0,1,.645.645v3.523a.641.641,0,0,0,1.011.519q.169-.114.358-.219a4.3,4.3,0,0,1,2.113-.523,4.246,4.246,0,0,1,3.039,1.188,4.473,4.473,0,0,1,1.249,3.4v6.178a.646.646,0,0,1-.646.645h-2.272a.645.645,0,0,1-.645-.645v-5.232a2.5,2.5,0,0,0-.524-1.691,1.792,1.792,0,0,0-1.428-.6,2.042,2.042,0,0,0-1.571.654,2.441,2.441,0,0,0-.6,1.722v5.152a.645.645,0,0,1-.645.645" transform="translate(-86.498 -27.191)" fill="#54542a"/>
    <path id="Path_615" data-name="Path 615" d="M333.89,102.012a2,2,0,0,1-2.053-2.053,1.917,1.917,0,0,1,.593-1.439,2.021,2.021,0,0,1,1.46-.574,1.985,1.985,0,0,1,1.449.574,1.934,1.934,0,0,1,.584,1.439,1.99,1.99,0,0,1-.584,1.469,1.965,1.965,0,0,1-1.449.584m1.792,1.635v9.815a.649.649,0,0,1-.649.648h-2.266a.648.648,0,0,1-.649-.648v-9.815a.648.648,0,0,1,.649-.649h2.266a.649.649,0,0,1,.649.649" transform="translate(-91.09 -26.886)" fill="#54542a"/>
    <path id="Path_616" data-name="Path 616" d="M349.659,110.076a8.527,8.527,0,0,1-.06.992.494.494,0,0,1-.49.437h-6.692a.5.5,0,0,0-.385.8,2.724,2.724,0,0,0,2.293.949,5.917,5.917,0,0,0,2.94-.769.5.5,0,0,1,.674.178l.9,1.561a.493.493,0,0,1-.16.663,8.254,8.254,0,0,1-4.521,1.265,6.024,6.024,0,0,1-4.549-1.67,5.756,5.756,0,0,1-1.59-4.127,5.65,5.65,0,0,1,1.651-4.167,6.343,6.343,0,0,1,8.374-.181,5.266,5.266,0,0,1,1.611,4.066m-5.7-2.717a2.3,2.3,0,0,0-2.008.925.494.494,0,0,0,.4.786h3.162a.494.494,0,0,0,.4-.778,2.138,2.138,0,0,0-.467-.48,2.412,2.412,0,0,0-1.489-.453" transform="translate(-92.788 -28.691)" fill="#54542a"/>
    <path id="Path_617" data-name="Path 617" d="M358.574,99.726v14.017a.671.671,0,0,1-.67.67h-2.2a.671.671,0,0,1-.67-.67V99.726a.671.671,0,0,1,.67-.67h2.2a.671.671,0,0,1,.67.67" transform="translate(-97.457 -27.191)" fill="#54542a"/>
    <path id="Path_618" data-name="Path 618" d="M369.347,103.526V99.358a.3.3,0,0,1,.3-.3h2.957a.3.3,0,0,1,.3.3v14.752a.3.3,0,0,1-.3.3H369.75a.3.3,0,0,1-.3-.3h0a.3.3,0,0,0-.489-.239,4.245,4.245,0,0,1-2.61.824,5.066,5.066,0,0,1-3.885-1.651,6.4,6.4,0,0,1,0-8.353,5.119,5.119,0,0,1,3.885-1.671,4.258,4.258,0,0,1,2.525.757.3.3,0,0,0,.474-.252m-2.4,7.929a2.409,2.409,0,0,0,1.812-.755,2.586,2.586,0,0,0,.725-1.862,2.524,2.524,0,0,0-.725-1.831,2.422,2.422,0,0,0-1.812-.745,2.394,2.394,0,0,0-1.812.765,2.5,2.5,0,0,0-.725,1.812,2.62,2.62,0,0,0,.725,1.873,2.424,2.424,0,0,0,1.812.744" transform="translate(-99.071 -27.191)" fill="#54542a"/>
    <path id="Path_619" data-name="Path 619" d="M378.489,100.517a1.454,1.454,0,0,1,.2-.736,1.477,1.477,0,0,1,.228-.3,1.444,1.444,0,0,1,.3-.229,1.533,1.533,0,0,1,.349-.147,1.443,1.443,0,0,1,.775,0,1.488,1.488,0,0,1,.348.147,1.456,1.456,0,0,1,.3.229,1.412,1.412,0,0,1,.228.3,1.475,1.475,0,0,1,.148.35,1.445,1.445,0,0,1,.052.389,1.418,1.418,0,0,1-.052.387,1.484,1.484,0,0,1-.148.348,1.4,1.4,0,0,1-.228.294,1.449,1.449,0,0,1-.3.227,1.462,1.462,0,0,1-1.473,0,1.453,1.453,0,0,1-.3-.228,1.473,1.473,0,0,1-.228-.3,1.444,1.444,0,0,1-.147-.348,1.425,1.425,0,0,1-.052-.387m.223,0a1.2,1.2,0,0,0,.1.481,1.232,1.232,0,0,0,.657.656,1.2,1.2,0,0,0,.482.1,1.219,1.219,0,0,0,.327-.044,1.245,1.245,0,0,0,.544-.317,1.219,1.219,0,0,0,.194-.25,1.214,1.214,0,0,0,.168-.623,1.182,1.182,0,0,0-.1-.479,1.255,1.255,0,0,0-.657-.657,1.183,1.183,0,0,0-.479-.1,1.2,1.2,0,0,0-.329.044,1.271,1.271,0,0,0-.3.124,1.2,1.2,0,0,0-.25.194,1.262,1.262,0,0,0-.192.25,1.241,1.241,0,0,0-.125.3,1.222,1.222,0,0,0-.044.326m.711.81a.078.078,0,0,1-.037-.009c-.011-.007-.017-.021-.017-.044V99.747a.059.059,0,0,1,.065-.067h.615a.524.524,0,0,1,.21.046.541.541,0,0,1,.17.118.566.566,0,0,1,.113.173.532.532,0,0,1,.041.209.559.559,0,0,1-.02.149.589.589,0,0,1-.057.133.582.582,0,0,1-.089.112.532.532,0,0,1-.114.087l.264.548.009.017a.035.035,0,0,1,.005.019.028.028,0,0,1-.014.022.1.1,0,0,1-.057.011h-.084a.075.075,0,0,1-.041-.012.15.15,0,0,1-.031-.029.159.159,0,0,1-.022-.033c-.006-.012-.009-.02-.012-.027-.036-.078-.072-.155-.107-.231l-.109-.231-.065.007-.064,0h-.4v.5a.049.049,0,0,1-.016.042.058.058,0,0,1-.036.012Zm.95-1.1a.334.334,0,0,0-.025-.128.37.37,0,0,0-.069-.109.34.34,0,0,0-.1-.076.318.318,0,0,0-.131-.028h-.468v.676h.468a.31.31,0,0,0,.129-.027.322.322,0,0,0,.1-.073.343.343,0,0,0,.07-.107.321.321,0,0,0,.026-.129" transform="translate(-103.896 -27.191)" fill="#54542a"/>
    <path id="Path_620" data-name="Path 620" d="M320.176,29.028h0Z" transform="translate(-87.889 -7.968)" fill="#54542a"/>
    <path id="Path_621" data-name="Path 621" d="M312.352,76.295a1,1,0,0,1-.18-.017,25.276,25.276,0,0,1-20.5-24.822v-16.6a.948.948,0,0,1,.665-.905l19.7-6.173a1.035,1.035,0,0,1,.314-.054h0a.947.947,0,0,1,.313.054l19.7,6.173a.949.949,0,0,1,.665.905v16.6a25.278,25.278,0,0,1-20.5,24.822,1,1,0,0,1-.179.017M293.566,35.548V51.456a23.411,23.411,0,0,0,18.785,22.924,23.411,23.411,0,0,0,18.785-22.924V35.548l-18.785-5.885Z" transform="translate(-80.064 -7.609)" fill="#54542a"/>
    <path id="Path_622" data-name="Path 622" d="M314.362,72.963a.976.976,0,0,1-.229-.028,19.992,19.992,0,0,1-15.14-19.373v-12.7a.947.947,0,0,1,.665-.9l14.421-4.518a.957.957,0,0,1,.567,0l14.421,4.518a.948.948,0,0,1,.665.9v12.7a19.992,19.992,0,0,1-2.323,9.336.949.949,0,0,1-1.676-.889,18.09,18.09,0,0,0,2.1-8.447v-12l-13.473-4.221L300.89,41.558v12a18.035,18.035,0,0,0,13.471,17.473,17.915,17.915,0,0,0,6.1-2.916.949.949,0,1,1,1.125,1.528,19.8,19.8,0,0,1-6.995,3.288.971.971,0,0,1-.229.028" transform="translate(-82.074 -9.716)" fill="#54542a"/>
    <path id="Path_623" data-name="Path 623" d="M310.894,60.974" transform="translate(-85.341 -16.737)" fill="#54542a"/>
    <path id="Path_624" data-name="Path 624" d="M333.316,78.146a.949.949,0,1,1,.671-.278.955.955,0,0,1-.671.278" transform="translate(-91.235 -20.93)" fill="#54542a"/>
    <path id="Path_625" data-name="Path 625" d="M331.038,50.165l-.059-.688a.444.444,0,0,0-.431-.407l-.69-.018a15.39,15.39,0,0,0-6.705,1.051,8.4,8.4,0,0,0-3.427,2.8,8.8,8.8,0,0,0-1.458,3.595A15.655,15.655,0,0,0,318,59.412c0,1.236-.028,6.437-.028,6.488a.445.445,0,0,0,.443.447l1.542.007h0a.445.445,0,0,0,.445-.442c0-.03.009-1.78.016-3.492l1.077-.038a13.092,13.092,0,0,0,4.285-.859,8.6,8.6,0,0,0,4.613-4.816,18.09,18.09,0,0,0,.641-6.542m-2.916,5.685a6.28,6.28,0,0,1-3.39,3.482,10.708,10.708,0,0,1-3.316.62l-.983.035c0-.234,0-.429,0-.572a9.235,9.235,0,0,1,1.248-5.071c1.009-1.368,2.631-2.766,6.979-2.864a13.383,13.383,0,0,1-.54,4.37" transform="translate(-87.285 -13.463)" fill="#54542a"/>
    <path id="Path_626" data-name="Path 626" d="M312.787,55.451a7.561,7.561,0,0,0-7.374-2.84l-.6.072a.445.445,0,0,0-.388.389l-.072.6a11.711,11.711,0,0,0,.006,2.353,6.231,6.231,0,0,0,1.789,4.118,7.309,7.309,0,0,0,5.2,1.916v4.8a.444.444,0,0,0,.445.445h1.542a.445.445,0,0,0,.445-.445v-7c0-.513-.026-3.135-.988-4.418m-1.444,4.177a4.835,4.835,0,0,1-3.563-1.283,4.778,4.778,0,0,1-1.056-3.382,4.889,4.889,0,0,1,4.119,1.947,6.626,6.626,0,0,1,.5,2.718" transform="translate(-83.529 -14.42)" fill="#54542a"/>
    <path id="Path_627" data-name="Path 627" d="M7.613,76.394H1.161A1.16,1.16,0,0,0,0,77.554V94.37a1.16,1.16,0,0,0,1.161,1.16H3.682a1.16,1.16,0,0,0,1.161-1.16V90.683A1.16,1.16,0,0,1,6,89.523H7.277q3.884,0,5.7-1.812a6.317,6.317,0,0,0,1.838-4.661,6.628,6.628,0,0,0-1.787-4.739q-1.761-1.916-5.412-1.916m1.619,8.17a2.33,2.33,0,0,1-1.722.609H6a1.16,1.16,0,0,1-1.16-1.161V81.983A1.16,1.16,0,0,1,6,80.822H7.613a2.163,2.163,0,0,1,1.619.622,2.3,2.3,0,0,1,0,3.12" transform="translate(0 -20.97)" fill="#54542a"/>
    <path id="Path_628" data-name="Path 628" d="M33.733,83.068H31.3a1.076,1.076,0,0,0-1.076,1.076v7.029a2.4,2.4,0,0,1-.622,1.735,2.223,2.223,0,0,1-1.683.647,2.169,2.169,0,0,1-1.657-.66,2.411,2.411,0,0,1-.622-1.722V84.144a1.076,1.076,0,0,0-1.075-1.076H22.134a1.076,1.076,0,0,0-1.076,1.076v6.978a6.419,6.419,0,0,0,1.813,4.868,7,7,0,0,0,5.049,1.735,7.05,7.05,0,0,0,5.063-1.735,6.393,6.393,0,0,0,1.826-4.868V84.144a1.076,1.076,0,0,0-1.076-1.076" transform="translate(-5.78 -22.802)" fill="#54542a"/>
    <path id="Path_629" data-name="Path 629" d="M51.629,86.706l.287-3.445a.463.463,0,0,0-.3-.474,4.26,4.26,0,0,0-1.456-.254,4.184,4.184,0,0,0-3.022,1.177.461.461,0,0,1-.784-.327.462.462,0,0,0-.461-.462H42.436a.461.461,0,0,0-.461.462V96.754a.461.461,0,0,0,.461.461H46.07a.462.462,0,0,0,.462-.461v-5.7q0-4.117,3.159-4.117a5.536,5.536,0,0,1,1.356.177.463.463,0,0,0,.582-.406" transform="translate(-11.522 -22.655)" fill="#54542a"/>
    <path id="Path_630" data-name="Path 630" d="M67.614,84.485a8.158,8.158,0,0,0-10.772.233,7.263,7.263,0,0,0-2.124,5.36,7.4,7.4,0,0,0,2.046,5.309,7.747,7.747,0,0,0,5.852,2.149,10.6,10.6,0,0,0,5.942-1.709.48.48,0,0,0,.155-.642l-1.318-2.274a.476.476,0,0,0-.652-.171,7.624,7.624,0,0,1-3.918,1.067,3.391,3.391,0,0,1-3.162-1.529.478.478,0,0,1,.411-.724h9.045a.48.48,0,0,0,.474-.422,11.033,11.033,0,0,0,.094-1.416,6.775,6.775,0,0,0-2.072-5.231m-2.978,3.936H60a.479.479,0,0,1-.418-.71,2.925,2.925,0,0,1,2.774-1.491,3.106,3.106,0,0,1,1.917.583,2.768,2.768,0,0,1,.786.92.478.478,0,0,1-.424.7" transform="translate(-15.02 -22.665)" fill="#54542a"/>
    <path id="Path_631" data-name="Path 631" d="M93.93,83.75H86.847a.821.821,0,0,0-.821.821v2.5a.821.821,0,0,0,.821.821h2.708a.822.822,0,0,1,.822.821v.453a.812.812,0,0,1-.312.646,5.945,5.945,0,0,1-1.592.838,6.975,6.975,0,0,1-2.4.427,5,5,0,0,1-3.832-1.553,5.332,5.332,0,0,1-1.45-3.729,5.167,5.167,0,0,1,1.476-3.729,5.106,5.106,0,0,1,3.807-1.5A6.507,6.507,0,0,1,90,81.855a.818.818,0,0,0,1.1-.133l2.029-2.37a.82.82,0,0,0-.116-1.181,10.566,10.566,0,0,0-2.689-1.477,11.627,11.627,0,0,0-4.195-.764,10.278,10.278,0,0,0-7.354,2.8,9.423,9.423,0,0,0-2.927,7.121,9.535,9.535,0,0,0,2.823,7.07,10.036,10.036,0,0,0,7.3,2.771,12.136,12.136,0,0,0,8.521-3.408.811.811,0,0,0,.257-.6V84.571a.821.821,0,0,0-.821-.821" transform="translate(-20.82 -20.843)" fill="#54542a"/>
    <path id="Path_632" data-name="Path 632" d="M112.761,87.112a.464.464,0,0,0,.582-.406l.287-3.445a.462.462,0,0,0-.3-.474,4.242,4.242,0,0,0-1.456-.254,4.183,4.183,0,0,0-3.022,1.177.461.461,0,0,1-.784-.328.462.462,0,0,0-.462-.461H104.15a.461.461,0,0,0-.461.461V96.754a.461.461,0,0,0,.461.461h3.634a.462.462,0,0,0,.462-.461v-5.7q0-4.118,3.159-4.117a5.5,5.5,0,0,1,1.356.177" transform="translate(-28.463 -22.655)" fill="#54542a"/>
    <path id="Path_633" data-name="Path 633" d="M124.165,82.5a7.558,7.558,0,0,0-5.62,2.2,7.76,7.76,0,0,0,0,10.721,8.346,8.346,0,0,0,11.239,0,7.693,7.693,0,0,0,0-10.721,7.452,7.452,0,0,0-5.619-2.2m2.3,9.892a3.132,3.132,0,0,1-2.3.932,3.1,3.1,0,0,1-2.279-.932,3.306,3.306,0,0,1-.933-2.356,3.1,3.1,0,0,1,.933-2.279,3.059,3.059,0,0,1,2.279-.958,3.227,3.227,0,0,1,3.236,3.237,3.307,3.307,0,0,1-.932,2.356" transform="translate(-31.951 -22.646)" fill="#54542a"/>
    <path id="Path_634" data-name="Path 634" d="M159.218,83.068h-3.892a.431.431,0,0,0-.414.31l-1.957,6.682a.431.431,0,0,1-.822.015L149.9,83.363a.432.432,0,0,0-.409-.295H146.9a.43.43,0,0,0-.409.3l-2.192,6.7a.431.431,0,0,1-.822-.012L141.5,83.376a.432.432,0,0,0-.414-.308h-3.892a.431.431,0,0,0-.408.57l4.574,13.406a.43.43,0,0,0,.408.292h3.452a.432.432,0,0,0,.407-.288l2.161-6.149a.431.431,0,0,1,.813,0l2.183,6.152a.43.43,0,0,0,.406.287h3.453a.43.43,0,0,0,.408-.292l4.574-13.406a.431.431,0,0,0-.408-.57" transform="translate(-37.542 -22.802)" fill="#54542a"/>
    <path id="Path_635" data-name="Path 635" d="M170.672,83.068a1.472,1.472,0,1,0,1.5,1.463,1.479,1.479,0,0,0-1.5-1.463m.009,2.631a1.169,1.169,0,1,1,1.115-1.159A1.12,1.12,0,0,1,170.68,85.7" transform="translate(-46.436 -22.802)" fill="#54542a"/>
    <path id="Path_636" data-name="Path 636" d="M171.364,84.849v-.018a.375.375,0,0,0,.3-.339.405.405,0,0,0-.143-.321.909.909,0,0,0-.508-.107,2.967,2.967,0,0,0-.562.044v1.463h.34v-.588h.16c.187,0,.276.071.3.232a1.23,1.23,0,0,0,.116.356h.366a1.087,1.087,0,0,1-.107-.366.431.431,0,0,0-.268-.356m-.4-.107h-.16v-.419a.828.828,0,0,1,.187-.017c.214,0,.312.089.312.223,0,.152-.152.214-.339.214" transform="translate(-46.79 -23.076)" fill="#54542a"/>
    <path id="Path_637" data-name="Path 637" d="M177.532,34.363l-.12-1.414-1.418-.037c-5.566-.144-9.947.535-13.395,2.08a16.41,16.41,0,0,0-6.685,5.464,17.215,17.215,0,0,0-2.837,7.025,31.277,31.277,0,0,0-.528,5.826c0,2.551-.057,13.241-.057,13.349l3.171.015c0-.067.021-4.287.037-8.06l3.095-.11c.218-.007,5.358-.193,8.448-1.677a16.808,16.808,0,0,0,9.028-9.4c1.912-5.077,1.29-12.734,1.262-13.058M173.3,46.3a13.782,13.782,0,0,1-7.433,7.663c-2.063.991-5.882,1.322-7.183,1.366l-2.973.106c0-.906.006-1.654.007-2.125,0-2.713.366-7.747,2.746-10.973,2.294-3.109,6-6.248,15.984-6.274.082,2.335.065,7.022-1.147,10.238" transform="translate(-41.859 -9.029)" fill="#54542a"/>
    <path id="Path_638" data-name="Path 638" d="M130.628,54.136c3.775,3.427,7.14,3.575,10.394,3.717l.6.027V68.633h3.171v-14.4c.005-.648-.012-6.081-1.849-8.53-3.242-4.323-8.2-6.218-14.327-5.483l-1.238.149-.147,1.238a22.986,22.986,0,0,0,.014,4.637c.369,3.53,1.507,6.183,3.384,7.888M130.3,43.261c4.38-.223,7.778,1.237,10.111,4.348.862,1.149,1.23,4.558,1.215,6.609v.487l-.461-.021c-3.059-.133-5.475-.239-8.4-2.9-2.165-1.966-2.531-6.08-2.465-8.527" transform="translate(-34.895 -10.999)" fill="#54542a"/>
    <path id="Path_639" data-name="Path 639" d="M105.988,111.713a1.664,1.664,0,0,0-.424-.187q-.229-.065-.424-.131a1.144,1.144,0,0,1-.326-.163.373.373,0,0,1,.015-.579.775.775,0,0,1,.437-.1,2,2,0,0,1,.243.015c.083.009.163.022.241.038a2.046,2.046,0,0,1,.207.053.916.916,0,0,1,.146.059v-.807a1.161,1.161,0,0,0-.383-.124,2.912,2.912,0,0,0-.532-.048,1.526,1.526,0,0,0-1.042.318,1.364,1.364,0,0,0-.229,1.5,1.069,1.069,0,0,0,.326.35,1.506,1.506,0,0,0,.424.2q.229.065.424.131a1.4,1.4,0,0,1,.326.152.288.288,0,0,1,.131.258.36.36,0,0,1-.184.318.985.985,0,0,1-.522.115,2.642,2.642,0,0,1-.288-.017c-.105-.012-.211-.027-.318-.045a2.74,2.74,0,0,1-.3-.065c-.093-.025-.171-.05-.234-.074v.837a2.043,2.043,0,0,0,.252.068q.152.033.318.057c.111.015.223.028.339.038s.221.015.32.015a1.7,1.7,0,0,0,1.119-.329,1.156,1.156,0,0,0,.395-.941,1.1,1.1,0,0,0-.131-.576,1,1,0,0,0-.326-.335" transform="translate(-28.467 -30.124)" fill="#54542a"/>
    <path id="Path_640" data-name="Path 640" d="M113.792,111.1l-.843-1.276H111.91l1.431,2.072v1.965h.9v-1.977l1.431-2.06h-1.039Z" transform="translate(-30.72 -30.146)" fill="#54542a"/>
    <path id="Path_641" data-name="Path 641" d="M123.835,111.713a1.664,1.664,0,0,0-.424-.187q-.229-.065-.424-.131a1.144,1.144,0,0,1-.326-.163.337.337,0,0,1-.131-.288.332.332,0,0,1,.145-.291.774.774,0,0,1,.437-.1,2.006,2.006,0,0,1,.243.015c.083.009.163.022.241.038a2.1,2.1,0,0,1,.207.053.945.945,0,0,1,.146.059v-.807a1.161,1.161,0,0,0-.383-.124,2.918,2.918,0,0,0-.532-.048,1.526,1.526,0,0,0-1.042.318,1.364,1.364,0,0,0-.229,1.5,1.069,1.069,0,0,0,.326.35,1.506,1.506,0,0,0,.424.2q.229.065.424.131a1.4,1.4,0,0,1,.326.152.289.289,0,0,1,.131.258.359.359,0,0,1-.184.318.985.985,0,0,1-.522.115,2.621,2.621,0,0,1-.288-.017c-.105-.012-.211-.027-.318-.045a2.74,2.74,0,0,1-.3-.065c-.094-.025-.171-.05-.235-.074v.837a2.094,2.094,0,0,0,.252.068q.151.033.318.057c.111.015.223.028.338.038s.222.015.321.015a1.7,1.7,0,0,0,1.119-.329,1.156,1.156,0,0,0,.395-.941,1.1,1.1,0,0,0-.131-.576,1,1,0,0,0-.326-.335" transform="translate(-33.365 -30.124)" fill="#54542a"/>
    <path id="Path_642" data-name="Path 642" d="M129.929,110.617h1.188v3.242h.89v-3.242h1.188v-.8h-3.265Z" transform="translate(-35.666 -30.146)" fill="#54542a"/>
    <path id="Path_643" data-name="Path 643" d="M140.312,112.107h1.3v-.754h-1.3v-.736h1.49v-.8h-2.381v4.037h2.494v-.8h-1.6Z" transform="translate(-38.271 -30.146)" fill="#54542a"/>
    <path id="Path_644" data-name="Path 644" d="M151.067,109.821l-.979,2.173-.986-2.173h-.718l-.73,4.037h.908l.433-2.44.754,1.585h.665l.76-1.585.434,2.44h.914l-.736-4.037Z" transform="translate(-40.531 -30.146)" fill="#54542a"/>
    <path id="Path_645" data-name="Path 645" d="M161.485,111.713a1.664,1.664,0,0,0-.424-.187q-.229-.065-.424-.131a1.144,1.144,0,0,1-.326-.163.373.373,0,0,1,.015-.579.774.774,0,0,1,.437-.1,2,2,0,0,1,.243.015c.083.009.163.022.241.038a2.045,2.045,0,0,1,.207.053.916.916,0,0,1,.146.059v-.807a1.161,1.161,0,0,0-.383-.124,2.911,2.911,0,0,0-.532-.048,1.526,1.526,0,0,0-1.042.318,1.364,1.364,0,0,0-.229,1.5,1.069,1.069,0,0,0,.326.35,1.506,1.506,0,0,0,.424.2q.229.065.424.131a1.4,1.4,0,0,1,.326.152.288.288,0,0,1,.131.258.36.36,0,0,1-.184.318.985.985,0,0,1-.522.115,2.642,2.642,0,0,1-.288-.017c-.105-.012-.211-.027-.318-.045a2.74,2.74,0,0,1-.3-.065c-.093-.025-.171-.05-.234-.074v.837a2.044,2.044,0,0,0,.252.068c.1.022.207.041.318.057s.223.028.339.038.221.015.32.015a1.7,1.7,0,0,0,1.119-.329,1.156,1.156,0,0,0,.395-.941,1.1,1.1,0,0,0-.131-.576,1,1,0,0,0-.326-.335" transform="translate(-43.701 -30.124)" fill="#54542a"/>
    <rect id="Rectangle_79" data-name="Rectangle 79" width="2.274" height="107.635" transform="translate(158.211)" fill="#54542a"/>
  </g>
</svg>
