<svg id="Group_92" data-name="Group 92" xmlns="http://www.w3.org/2000/svg" xmlns:xlink="http://www.w3.org/1999/xlink" width="429.909" height="475" viewBox="0 0 429.909 475">
  <defs>
    <clipPath id="clip-path">
      <rect id="Rectangle_78" data-name="Rectangle 78" width="429.909" height="475" fill="none"/>
    </clipPath>
  </defs>
  <g id="Group_91" data-name="Group 91" clip-path="url(#clip-path)">
    <path id="Path_549" data-name="Path 549" d="M348.938,274.264s4.269-7.472,17.968-3.667,30.337,71.112,7.558,75.129S330,334.142,331.518,332.62s17.42-58.357,17.42-58.357" transform="translate(-31.597 -25.693)" fill="#371d14"/>
    <path id="Path_550" data-name="Path 550" d="M345.753,285.567l14.19-26.024,4.153-8.532s2.985-19.624,11.732-28.583,10.026-4.266,20.692-16.212c0,0,1.864-5.416,4.489-5.416s5.6,4.551,1.051,12.779-7.7,11.555-7.7,11.555l14.182,12.079s2.8-14.181,0-24.509-2.627-16.807,0-17.333,7.177,4.548,10.853,22.057,0,32.39-7.7,43.42-43.943,42.717-43.943,42.717Z" transform="translate(-32.961 -18.622)" fill="#bc6842"/>
    <path id="Path_551" data-name="Path 551" d="M355.511,272.09s-.741,32.174,20.224,36.106l-23.1,22.708-7.854-41.956,2.681-7.854Z" transform="translate(-32.869 -25.939)" fill="#fff"/>
    <path id="Path_552" data-name="Path 552" d="M385.487,281.117a1.263,1.263,0,0,1-.223-.02c-9.654-1.661-16.033-11.936-16.3-12.373a1.3,1.3,0,0,1,2.219-1.358c.059.1,6.042,9.708,14.523,11.168a1.3,1.3,0,0,1-.219,2.583" transform="translate(-35.156 -25.429)" fill="#8f5032"/>
    <path id="Path_553" data-name="Path 553" d="M391.2,268.242c-.5,0-.637-.1-2.348-1.288-11.132-7.759-18.267-10.626-21.2-8.545a1.3,1.3,0,0,1-1.509-2.121c5.251-3.731,15.688,2.6,24.2,8.531.645.45,1.1.774,1.329.908a1.3,1.3,0,0,1-.469,2.514" transform="translate(-34.853 -24.326)" fill="#8f5032"/>
    <path id="Path_554" data-name="Path 554" d="M370.131,280.772a5.45,5.45,0,0,1-3.92-2.056c-4.179-4.436-4.078-13.941-4.073-14.343a1.3,1.3,0,0,1,1.3-1.28h.019a1.3,1.3,0,0,1,1.281,1.32c0,.088-.089,8.853,3.366,12.519.565.6,1.641,1.549,2.491,1.129.989-.485,1.792-2.669,1.364-5.35a1.3,1.3,0,0,1,2.571-.409c.584,3.674-.564,7-2.788,8.094a3.643,3.643,0,0,1-1.612.376" transform="translate(-34.523 -25.081)" fill="#8f5032"/>
    <path id="Path_555" data-name="Path 555" d="M370.07,255.516a1.3,1.3,0,0,1-1.3-1.229c-.015-.279-.34-6.872,2.87-11.406,2.072-2.924,5.339-6.65,9.884-5.234,2.9.906,16.381,11.769,19.053,13.936a1.3,1.3,0,0,1-1.641,2.021c-6.036-4.9-16.314-12.889-18.187-13.474-1.513-.479-3.677-.42-6.983,4.254-2.694,3.8-2.4,9.7-2.4,9.759a1.3,1.3,0,0,1-1.227,1.371c-.024,0-.049,0-.073,0" transform="translate(-35.154 -22.626)" fill="#8f5032"/>
    <path id="Path_556" data-name="Path 556" d="M380.561,238.726c-.045,0-.091,0-.136-.006a1.3,1.3,0,0,1-1.159-1.428c.616-5.927,2.69-9.841,6.164-11.632,5.567-2.87,12.472.969,12.761,1.134a1.3,1.3,0,0,1-1.279,2.265c-.061-.034-5.978-3.316-10.3-1.082-2.639,1.365-4.242,4.589-4.761,9.584a1.3,1.3,0,0,1-1.291,1.166" transform="translate(-36.155 -21.411)" fill="#8f5032"/>
    <path id="Path_557" data-name="Path 557" d="M420.5,247.342a1.3,1.3,0,0,1-.831-.3l-5.483-4.552a1.3,1.3,0,0,1,1.663-2l5.483,4.551a1.3,1.3,0,0,1-.831,2.3" transform="translate(-39.44 -22.898)" fill="#8f5032"/>
    <path id="Path_558" data-name="Path 558" d="M134.182,165.686c97.626-7.239,106.134,35.9,116.434,58.125s25.974,66.717,25.974,66.717l40.752-27.854c-4.926,65.567,25.526,71.462,25.526,71.462-29.556,10.967-30.9,21.724-47.47,26.975s-29.556,0-29.556,0c12.091,31.672,22.838,126.856,22.838,126.856H56.261c4.926-46.125,16.65-104.122,16.65-104.122s-17.994-23.955-31.428-49.709S-3.3,268.535.283,228.778s55.083-44.609,55.083-44.609l9.675-6.686c5.556-4.679,10.234-15.2,11.988-20.76S89.6,147.951,89.6,147.951s28.093,1.23,31.91,3.382,12.67,14.353,12.67,14.353" transform="translate(0 -14.104)" fill="#d3dff0"/>
    <path id="Path_559" data-name="Path 559" d="M291.61,378.43a1.139,1.139,0,0,1-1.095-.83c-6.6-23.558-20.008-58.012-20.142-58.357a1.136,1.136,0,1,1,2.117-.826c.134.346,13.582,34.9,20.214,58.57a1.138,1.138,0,0,1-1.095,1.442" transform="translate(-25.768 -30.286)" fill="#97adcc"/>
    <path id="Path_560" data-name="Path 560" d="M93.858,473.4c-1.387,0-2.247-.023-2.459-.032a1.134,1.134,0,0,1-1.1-1.141l.052-8.214a1.134,1.134,0,0,1,.356-.819,1.209,1.209,0,0,1,.835-.309c6.447.315,19.279-.426,25.517-1.822,14.96-3.346,32.849-11.743,33.029-11.827a1.133,1.133,0,0,1,1.576.719l2.259,8.006a1.135,1.135,0,0,1-.467,1.257c-19.936,13.172-50.666,14.181-59.6,14.181m-1.279-2.285c6.363.073,38.618-.392,58.929-13.34l-1.671-5.924c-4.321,1.957-19.352,8.537-32.283,11.43-6.512,1.457-18.668,2.077-24.939,1.918Z" transform="translate(-8.608 -42.816)" fill="#97adcc"/>
    <path id="Path_561" data-name="Path 561" d="M304.766,457.689c-18.022,0-30.061-7.219-30.582-7.538a1.134,1.134,0,0,1-.545-.969V438.924a1.136,1.136,0,0,1,1.626-1.025c.17.083,17.3,8.167,29.63,6.95a1.136,1.136,0,1,1,.223,2.261c-10.813,1.068-24.53-4.386-29.206-6.425v7.835a63.1,63.1,0,0,0,30.776,6.868,1.175,1.175,0,0,1,1.17,1.1,1.137,1.137,0,0,1-1.1,1.169q-1.007.03-1.988.029" transform="translate(-26.086 -41.735)" fill="#97adcc"/>
    <path id="Path_562" data-name="Path 562" d="M290.339,315.089a1.135,1.135,0,0,1-.6-2.1l13.822-8.519a1.135,1.135,0,1,1,1.191,1.933l-13.822,8.519a1.132,1.132,0,0,1-.593.169" transform="translate(-27.57 -29.009)" fill="#97adcc"/>
    <path id="Path_563" data-name="Path 563" d="M250.879,279.516a1.138,1.138,0,0,1-1.1-.842l-11.26-42.04a1.137,1.137,0,0,1,2.2-.588l11.261,42.04a1.139,1.139,0,0,1-.8,1.391,1.166,1.166,0,0,1-.295.039" transform="translate(-22.735 -22.422)" fill="#97adcc"/>
    <path id="Path_564" data-name="Path 564" d="M226.023,511.61a1.138,1.138,0,0,1-1.136-1.1c-1.035-29.435-2-39.578-9.089-71.681-6.885-31.169-12.94-53.147-13-53.366a1.135,1.135,0,1,1,2.188-.605c.061.219,6.134,22.249,13.032,53.481,7.13,32.288,8.1,42.488,9.143,72.092a1.137,1.137,0,0,1-1.1,1.174h-.04" transform="translate(-19.329 -36.61)" fill="#97adcc"/>
    <path id="Path_565" data-name="Path 565" d="M101.116,1.5s31.91-7.508,48,11.082,5.363,36.068,9.3,56.465,15.015,35.054-3.575,57.934-60.059-4.648-60.059-4.648-10.48,26.2-43.456,12.715C13.9,119.746,17.2,70,41.865,46.382,55.108,33.7,39.362-7.705,101.116,1.5" transform="translate(-2.217 0)" fill="#393253"/>
    <path id="Path_566" data-name="Path 566" d="M133.659,189.9l-21.715,1.123c-9.755-11.458-18.561-23.457-21.232-33.347v-.019L90.287,135.6,89.745,107.2l36.792-1.9,3.523,41.959,1.935,22.935Z" transform="translate(-8.556 -10.039)" fill="#bc6842"/>
    <path id="Path_567" data-name="Path 567" d="M89.89,115.008s9.729,41.936,28.313,41.752c0,0,11.072,2.144,11.428-13.906s-39.74-27.847-39.74-27.847" transform="translate(-8.569 -10.964)" fill="#8f5032"/>
    <path id="Path_568" data-name="Path 568" d="M109.4,24.719C72.416,30.609,76.365,55.414,81.238,86.012s34.836,49.645,49.749,47.271,29.1-28.45,24.225-59.049S146.39,18.83,109.4,24.719" transform="translate(-7.45 -2.273)" fill="#bc6842"/>
    <path id="Path_569" data-name="Path 569" d="M69.734,103.416c5.685,7.008,13.893,9.77,18.333,6.168s3.432-12.2-2.253-19.212S71.921,80.6,67.48,84.2s-3.431,12.2,2.254,19.212" transform="translate(-6.169 -7.877)" fill="#bc6842"/>
    <path id="Path_570" data-name="Path 570" d="M82.084,105.637a1.3,1.3,0,0,1-1-.466c-7.229-8.646-2.219-15.1-2.168-15.16a1.3,1.3,0,0,1,2.036,1.62c-.166.214-3.675,4.931,2.128,11.87a1.3,1.3,0,0,1-1,2.135" transform="translate(-7.358 -8.535)" fill="#8f5032"/>
    <path id="Path_571" data-name="Path 571" d="M105.982,80.088a9.846,9.846,0,0,1,3.6-2.14,16.9,16.9,0,0,1,3.922-.878,25.9,25.9,0,0,1,3.979-.124c1.316.071,2.621.222,3.92.421a2.433,2.433,0,0,1-.735,4.81,2.46,2.46,0,0,1-.466-.119l-.033-.013c-1.073-.4-2.159-.759-3.262-1.053a22.215,22.215,0,0,0-3.335-.587,13.994,13.994,0,0,0-3.337.043,8.317,8.317,0,0,0-2.983.961l-.171.1a.905.905,0,0,1-1.1-1.424" transform="translate(-10.077 -7.333)" fill="#371d14"/>
    <path id="Path_572" data-name="Path 572" d="M158.345,76.219a8.343,8.343,0,0,0-3.124-.248,13.97,13.97,0,0,0-3.258.727,22.174,22.174,0,0,0-3.109,1.34c-1.006.539-1.979,1.142-2.933,1.776l-.018.013a2.433,2.433,0,0,1-2.7-4.05,2.654,2.654,0,0,1,.436-.231c1.219-.492,2.453-.94,3.718-1.313a26.007,26.007,0,0,1,3.9-.8,16.905,16.905,0,0,1,4.019-.05,9.855,9.855,0,0,1,4,1.254.905.905,0,0,1-.741,1.639Z" transform="translate(-13.549 -6.987)" fill="#371d14"/>
    <path id="Path_573" data-name="Path 573" d="M133.407,124.02a16.132,16.132,0,0,1-1.836-.094,1.3,1.3,0,0,1,.32-2.582c.049.005,4.852.562,7.524-1.483a1.3,1.3,0,0,1,1.58,2.065c-2.322,1.778-5.574,2.093-7.588,2.093" transform="translate(-12.434 -11.401)" fill="#8f5032"/>
    <path id="Path_574" data-name="Path 574" d="M121.943,91.315c0,3.248-1.459,5.88-3.26,5.88s-3.26-2.633-3.26-5.88,1.459-5.88,3.26-5.88,3.26,2.633,3.26,5.88" transform="translate(-11.003 -8.145)" fill="#371d14"/>
    <path id="Path_575" data-name="Path 575" d="M154.206,88.22c0,3.248-1.459,5.88-3.26,5.88s-3.26-2.633-3.26-5.88,1.459-5.88,3.26-5.88,3.26,2.633,3.26,5.88" transform="translate(-14.079 -7.85)" fill="#371d14"/>
    <path id="Path_576" data-name="Path 576" d="M136.314,106.772a1.3,1.3,0,0,1-.7-2.4l4.209-2.7-5.577-11.772a1.3,1.3,0,1,1,2.351-1.113l6.068,12.806a1.3,1.3,0,0,1-.475,1.652l-5.173,3.312a1.3,1.3,0,0,1-.7.206" transform="translate(-12.786 -8.394)" fill="#8f5032"/>
    <path id="Path_577" data-name="Path 577" d="M58.052,83.037s41.206,3.288,50.632-26.468c0,0,11.476-7.481,17.913-18.528,0,0,16.165,11.81,24.216,10.837L136.673,23.654l-32.24-1.845-24.173,8.23s-7.194,14.39-7.194,16.844S58.052,83.037,58.052,83.037" transform="translate(-5.534 -2.079)" fill="#393253"/>
    <path id="Path_578" data-name="Path 578" d="M136.974,185.259c-6.077,7.374-19.992,6.484-30.6,4.413C99.04,180.4,92.963,171.111,90.815,163.2v-.02L132.1,175.717s1.916,3.445,4.877,9.542" transform="translate(-8.658 -15.556)" fill="#bc6842"/>
    <path id="Path_579" data-name="Path 579" d="M168.283,281.143s-13.78-34.779-25.373-49.507c-6.116-7.78-18.289-19.935-29.224-32.766q-2.9-3.426-5.67-6.871c10.606,2.071,24.521,2.961,30.6-4.413,8.09,16.664,23.941,53.166,29.67,93.557" transform="translate(-10.297 -17.883)" fill="#fff"/>
    <path id="Path_580" data-name="Path 580" d="M131.367,37.137a1.163,1.163,0,0,1-.317-.044,1.132,1.132,0,0,1-.774-1.407c7.029-24.34-20.233-32.715-21.4-33.059a1.136,1.136,0,0,1,.645-2.179c.308.091,30.582,9.387,22.932,35.869a1.133,1.133,0,0,1-1.089.821" transform="translate(-10.302 -0.038)" fill="#371d14"/>
    <path id="Path_581" data-name="Path 581" d="M106.592,63.632a1.136,1.136,0,0,1-.385-2.2l6.611-2.382a1.136,1.136,0,0,1,.771,2.137l-6.611,2.383a1.153,1.153,0,0,1-.385.067" transform="translate(-10.053 -5.622)" fill="#371d14"/>
    <path id="Path_582" data-name="Path 582" d="M161.823,53.508a1.156,1.156,0,0,1-.215-.02l-5-.956a1.136,1.136,0,0,1,.427-2.232l5,.956a1.136,1.136,0,0,1-.212,2.252" transform="translate(-14.842 -4.793)" fill="#371d14"/>
    <path id="Path_583" data-name="Path 583" d="M65.233,90.506H54.663a1.136,1.136,0,0,1,0-2.272H65.233a1.136,1.136,0,1,1,0,2.272" transform="translate(-5.103 -8.411)" fill="#371d14"/>
    <path id="Path_584" data-name="Path 584" d="M255.949,266.31l18.109,29.407,13.506-11.2,10.087-2.45a16.085,16.085,0,0,0,7.513-4.192l5.4-5.332a5.99,5.99,0,0,0,1.654-5.091,4.4,4.4,0,0,1,.826-3.469c3.069-3.712,7.366-8.772,7.673-12.995a7.563,7.563,0,0,0-2.456-6.372s10.129-8.287,3.991-15.346c0,0,2.455-8.024.613-10.3s-15.654-9.033-20.564-7.191-12.891,4.911-19.03,4.3-12.278,3.99-14.426,13.812S266.384,257,255.949,266.31" transform="translate(-24.4 -20.159)" fill="#bc6842"/>
    <path id="Path_585" data-name="Path 585" d="M245.732,277.38s12.964,31.245,18.947,48.531l17.342-8.31s-13.148-31.855-27.045-45.511Z" transform="translate(-23.426 -25.939)" fill="#fff"/>
    <path id="Path_586" data-name="Path 586" d="M307.4,220.8l-11.461,4.687,8.662-29.537,9.288,2.723Z" transform="translate(-28.212 -18.681)" fill="#b0afb8"/>
    <path id="Path_587" data-name="Path 587" d="M336.758,103.869a25.189,25.189,0,0,0-12.618-1.142c-13.9,2.168-27.812,14.941-34.509,33.347-6,16.528-4.626,33.308,2.4,44.243a26.108,26.108,0,0,0,13.025,10.722,23.884,23.884,0,0,0,5.283,1.257,27.363,27.363,0,0,1-7.955-8.032h-.019c-7.18-10.916-8.632-27.831-2.555-44.494,6.406-17.67,19.47-30.135,32.824-33.018a26.422,26.422,0,0,1,8.961-.484,23.969,23.969,0,0,0-4.838-2.4" transform="translate(-27.25 -9.761)" fill="#b0afb8"/>
    <path id="Path_588" data-name="Path 588" d="M344.216,155.035c-7.238,19.9-24.7,32.205-40.76,29.689h-.019c-7.18-10.916-8.632-27.831-2.555-44.5,6.406-17.67,19.47-30.134,32.824-33.018,12.7,8.981,17.457,28.76,10.51,47.824" transform="translate(-28.321 -10.221)" fill="#d3dff0"/>
    <path id="Path_589" data-name="Path 589" d="M353.926,159.223c-7.877,21.638-25.741,35.476-41.824,33.463h-.02a27.371,27.371,0,0,1-7.954-8.032c16.063,2.516,33.521-9.793,40.759-29.689,6.948-19.063,2.188-38.843-10.509-47.824a26.42,26.42,0,0,1,8.961-.483.019.019,0,0,0,.019.019c13.644,8.767,18.463,30.889,10.567,52.546" transform="translate(-28.993 -10.151)" fill="#b0afb8"/>
    <path id="Path_590" data-name="Path 590" d="M309.4,159.725a1.136,1.136,0,0,1-.783-1.959l25.472-24.257a1.135,1.135,0,1,1,1.565,1.644L310.18,159.412a1.129,1.129,0,0,1-.783.314" transform="translate(-29.387 -12.698)" fill="#fff"/>
    <path id="Path_591" data-name="Path 591" d="M315.658,172.386a1.136,1.136,0,0,1-.758-1.983l17.453-15.625a1.136,1.136,0,1,1,1.515,1.694L316.416,172.1a1.131,1.131,0,0,1-.758.29" transform="translate(-29.984 -14.728)" fill="#fff"/>
    <path id="Path_592" data-name="Path 592" d="M312.716,202.779a15.233,15.233,0,0,1-9.006-2.715,1.136,1.136,0,0,1,1.408-1.782,13.615,13.615,0,0,0,8.6,2.192,1.136,1.136,0,0,1,.147,2.268c-.391.024-.774.037-1.145.037" transform="translate(-28.912 -18.879)" fill="#e2e1ec"/>
    <path id="Path_593" data-name="Path 593" d="M337.451,108.153a1.136,1.136,0,0,1-.391-2.2c.141-.052,3.561-1.263,9.484-.544a1.136,1.136,0,1,1-.272,2.255,20.432,20.432,0,0,0-8.441.425,1.135,1.135,0,0,1-.38.066" transform="translate(-32.061 -10.027)" fill="#e2e1ec"/>
    <path id="Path_594" data-name="Path 594" d="M293.18,229.194a2.362,2.362,0,0,1-1.109-.212,1.3,1.3,0,0,1,1.012-2.383c.376.036,3.425.058,15.788-5.885A1.3,1.3,0,0,1,310,223.057c-8.345,4.013-14.189,6.136-16.818,6.136" transform="translate(-27.779 -21.029)" fill="#8f5032"/>
    <path id="Path_595" data-name="Path 595" d="M310.355,248.3a1.3,1.3,0,0,1-.892-2.246l16.953-15.988a1.3,1.3,0,1,1,1.784,1.893l-16.954,15.987a1.3,1.3,0,0,1-.892.355" transform="translate(-29.462 -21.898)" fill="#8f5032"/>
    <path id="Path_596" data-name="Path 596" d="M312.152,260.3a1.3,1.3,0,0,1-.907-2.233l11.338-11.023a1.3,1.3,0,0,1,1.815,1.865L313.059,259.93a1.3,1.3,0,0,1-.907.367" transform="translate(-29.634 -23.516)" fill="#8f5032"/>
    <path id="Path_597" data-name="Path 597" d="M307.589,279.6a1.3,1.3,0,0,1-.854-2.282l10.247-8.917a1.3,1.3,0,1,1,1.709,1.961l-10.248,8.918a1.3,1.3,0,0,1-.854.319" transform="translate(-29.199 -25.556)" fill="#8f5032"/>
    <path id="Path_598" data-name="Path 598" d="M405.365,74.714a9.707,9.707,0,0,1,.846,1.341c7.419,17.4,11.361,35.493,10.674,54.481a84.6,84.6,0,0,1-2.361,16.974c-.071.292-.127.588-.232,1.084a4.223,4.223,0,0,0,.534-.457c6.6-8.7,14.905-15.456,24.187-21.076a108.313,108.313,0,0,1,22-10.17,2.841,2.841,0,0,1,1.221-.208c.759.1.982.815.511,1.738-1.482,2.9-2.89,5.855-4.522,8.675-6.506,11.246-14.513,21.241-24.843,29.241-1.931,1.5-3.978,2.846-6.095,4.351,1.7.091,3.288.162,4.872.264a61.5,61.5,0,0,1,23.522,6.343,1.552,1.552,0,0,1-.014,2.984c-9.329,4.445-19.1,6.924-29.508,6.4-1.412-.071-2.819-.233-4.365-.365.448.816.855,1.542,1.248,2.276a38.176,38.176,0,0,1,3.708,10.369c.327,1.594-.27,2.14-1.8,1.619-6.51-2.207-12.19-5.621-16.276-11.312-.556-.775-1.029-1.61-1.7-2.677-.033.621-.069,1.005-.069,1.39,0,4,0,7.995-.007,11.991a6.024,6.024,0,0,1-.1,1.259,1.961,1.961,0,0,1-3.819.077,4.821,4.821,0,0,1-.111-1.254q-.012-6.054,0-12.107V176.7c-1.2,1.642-2.185,3.229-3.4,4.62a32.62,32.62,0,0,1-14.834,9.328c-1.333.441-1.915-.162-1.617-1.659a37.758,37.758,0,0,1,4.372-11.579c.187-.324.361-.656.489-.888-3.42.045-6.828.28-10.216.1a61.874,61.874,0,0,1-23.835-6.485,1.754,1.754,0,0,1-.872-1.315,1.966,1.966,0,0,1,.926-1.4,60.569,60.569,0,0,1,20.733-6.2c2.592-.293,5.205-.394,7.871-.588a1.3,1.3,0,0,0-.246-.264c-10.233-6.351-18.306-14.91-25.189-24.674a103.365,103.365,0,0,1-9.815-17.174,1.9,1.9,0,0,1-.006-1.552c.166-.261,1-.3,1.431-.157,14.782,5,28.126,12.468,39.4,23.366,2.505,2.422,4.674,5.19,7,7.8.167.188.339.373.612.673-.5-2.569-1.01-4.963-1.431-7.372a91.776,91.776,0,0,1-1.02-21.6,130.417,130.417,0,0,1,10.548-43.541,10.418,10.418,0,0,1,.906-1.431Z" transform="translate(-33.086 -7.123)" fill="#7f9441"/>
    <path id="Path_599" data-name="Path 599" d="M404.714,164.789a1.305,1.305,0,0,1-1.134-.66l-4.059-7.176a1.3,1.3,0,0,1,2.264-1.281l4.059,7.175a1.3,1.3,0,0,1-1.13,1.942" transform="translate(-38.071 -14.777)" fill="#698025"/>
    <path id="Path_600" data-name="Path 600" d="M396.372,188.417h-4.333a1.3,1.3,0,1,1,0-2.6h4.333a1.3,1.3,0,0,1,0,2.6" transform="translate(-37.25 -17.714)" fill="#698025"/>
    <path id="Path_601" data-name="Path 601" d="M391.471,172.925a1.294,1.294,0,0,1-.465-.087l-5.393-2.066a1.3,1.3,0,1,1,.93-2.428l5.393,2.065a1.3,1.3,0,0,1-.465,2.516" transform="translate(-36.681 -16.04)" fill="#698025"/>
    <path id="Path_602" data-name="Path 602" d="M418.043,163.875a1.3,1.3,0,0,1-1.161-1.884l3.423-6.837a1.3,1.3,0,1,1,2.324,1.164l-3.422,6.837a1.3,1.3,0,0,1-1.164.719" transform="translate(-39.729 -14.723)" fill="#698025"/>
    <path id="Path_603" data-name="Path 603" d="M430.069,172.93a1.3,1.3,0,0,1-.486-2.508l5.008-2.019a1.3,1.3,0,0,1,.972,2.414l-5.008,2.018a1.294,1.294,0,0,1-.486.1" transform="translate(-40.875 -16.045)" fill="#698025"/>
    <path id="Path_604" data-name="Path 604" d="M429.2,187.905a1.3,1.3,0,0,1-.835-.3l-3.17-2.655a1.3,1.3,0,1,1,1.671-1.994l3.169,2.655a1.3,1.3,0,0,1-.835,2.3" transform="translate(-40.49 -17.412)" fill="#698025"/>
    <path id="Path_605" data-name="Path 605" d="M120.322,319.593a1.135,1.135,0,0,1-1-.6c-14.215-26.33-52.717-77.4-53.1-77.914a1.136,1.136,0,0,1,1.814-1.369c.387.514,38.993,51.722,53.29,78.2a1.135,1.135,0,0,1-1,1.675" transform="translate(-6.291 -22.809)" fill="#97adcc"/>
    <path id="Path_606" data-name="Path 606" d="M114.532,416.735A49.594,49.594,0,0,1,79.62,401.981a1.136,1.136,0,0,1,1.709-1.5,47.085,47.085,0,0,0,46.984,11.976c11.56-3.322,27.467-12.627,44.306-22.48,26.674-15.606,56.847-33.257,83.485-36.388l-8.348-21.721a1.136,1.136,0,1,1,2.121-.814l8.878,23.1a1.135,1.135,0,0,1-.95,1.537c-26.5,2.586-57.068,20.469-84.036,36.247-17.7,10.358-32.993,19.3-44.826,22.7a51.97,51.97,0,0,1-14.41,2.092" transform="translate(-7.564 -31.49)" fill="#97adcc"/>
    <path id="Path_607" data-name="Path 607" d="M167.235,294.5a1.125,1.125,0,0,1-.727-.264l-69.47-57.968a1.138,1.138,0,0,1-.293-1.37l8.679-17.831c-5.141-2.972-30.382-17.489-36.02-19.381-6.889-2.312-9.3-9.158-9.4-9.448a1.136,1.136,0,0,1,2.149-.737c.021.061,2.168,6.083,7.972,8.031,6.471,2.173,36.094,19.368,37.353,20.1a1.136,1.136,0,0,1,.45,1.479l-8.753,17.982,68.787,57.4a1.136,1.136,0,0,1-.727,2.008" transform="translate(-5.714 -17.801)" fill="#97adcc"/>
    <path id="Path_608" data-name="Path 608" d="M182.638,290.051a1.135,1.135,0,0,1-1.126-1c-2.994-25.212-5.44-41.885-7.071-48.217-2.147-8.337-3.374-35.77-3.549-39.929l-16.147-14.13a1.135,1.135,0,0,1-.112-1.6l6.275-7.287c-5.19-2.536-13.079-9.278-13.445-9.593a1.136,1.136,0,1,1,1.478-1.724c.1.081,9.629,8.23,14.211,9.806a1.135,1.135,0,0,1,.491,1.816l-6.553,7.611,15.665,13.708a1.144,1.144,0,0,1,.387.81c.011.312,1.283,31.338,3.5,39.942,2.094,8.121,5.031,30.865,7.127,48.516a1.138,1.138,0,0,1-.994,1.263c-.045,0-.09.007-.136.007" transform="translate(-14.02 -15.854)" fill="#97adcc"/>
    <path id="Path_609" data-name="Path 609" d="M116.207,326.989a1.136,1.136,0,0,1-.467-2.172c.522-.235,52.486-23.566,89.17-31.625l27.79-16.352a1.136,1.136,0,0,1,1.153,1.959l-27.946,16.443a1.144,1.144,0,0,1-.335.13c-36.458,7.974-88.378,31.283-88.9,31.517a1.139,1.139,0,0,1-.467.1" transform="translate(-10.97 -26.376)" fill="#97adcc"/>
  </g>
</svg>
