<?xml version="1.0" encoding="UTF-8"?>
<svg xmlns="http://www.w3.org/2000/svg" version="1.1" viewBox="0 0 135.8 59.9" width="161.45px" height="71.23px">
  <defs>
    <style>
      .cls-1 {
        fill: #FFFFFF;
      }
    </style>
  </defs>
  <g>
    <g id="Group_94">
      <g>
        <path id="Path_627" class="cls-1" d="M7.6,31.6H1.2C.5,31.6,0,32.1,0,32.7c0,0,0,0,0,0v16.8c0,.6.5,1.2,1.2,1.2h2.5c.6,0,1.2-.5,1.2-1.2,0,0,0,0,0,0v-3.7c0-.6.5-1.2,1.2-1.2h1.3c2.6,0,4.5-.6,5.7-1.8,1.2-1.2,1.9-2.9,1.8-4.7,0-1.8-.6-3.5-1.8-4.7-1.2-1.3-3-1.9-5.4-1.9M9.2,39.7c-.5.4-1.1.6-1.7.6h-1.5c-.6,0-1.2-.5-1.2-1.2s0,0,0,0v-2c0-.6.5-1.2,1.2-1.2h1.6c.6,0,1.2.2,1.6.6.8.9.8,2.2,0,3.1"/>
        <path id="Path_628" class="cls-1" d="M28,36.4h-2.4c-.6,0-1.1.5-1.1,1.1v7c0,.6-.2,1.3-.6,1.7-.4.4-1.1.7-1.7.6-.6,0-1.2-.2-1.7-.7-.4-.5-.6-1.1-.6-1.7v-7c0-.6-.5-1.1-1.1-1.1h-2.4c-.6,0-1.1.5-1.1,1.1v7c-.1,1.8.5,3.6,1.8,4.9,1.4,1.2,3.2,1.8,5,1.7,1.9.1,3.7-.5,5.1-1.7,1.3-1.3,1.9-3.1,1.8-4.9v-7c0-.6-.5-1.1-1.1-1.1"/>
        <path id="Path_629" class="cls-1" d="M40.1,40.2l.3-3.4c0-.2-.1-.4-.3-.5-.5-.2-1-.3-1.5-.3-1.1,0-2.2.4-3,1.2-.2.2-.5.2-.7,0,0,0-.1-.2-.1-.3,0-.3-.2-.5-.5-.5h-3.5c-.3,0-.5.2-.5.5h0v13.4c0,.3.2.5.5.5h3.6c.3,0,.5-.2.5-.5v-5.7c0-2.7,1.1-4.1,3.2-4.1.5,0,.9,0,1.4.2.2,0,.5,0,.6-.3,0,0,0,0,0,0"/>
        <path id="Path_630" class="cls-1" d="M52.6,38c-3.1-2.6-7.8-2.5-10.8.2-1.4,1.4-2.2,3.4-2.1,5.4,0,2,.7,3.9,2,5.3,1.6,1.5,3.7,2.3,5.9,2.1,2.1,0,4.2-.6,5.9-1.7.2-.1.3-.4.2-.6l-1.3-2.3c-.1-.2-.4-.3-.7-.2,0,0,0,0,0,0-1.2.7-2.5,1.1-3.9,1.1-1.3.1-2.5-.5-3.2-1.5-.1-.2,0-.5.2-.7,0,0,.2,0,.2,0h9c.2,0,.4-.2.5-.4,0-.5,0-.9,0-1.4.1-2-.7-3.9-2.1-5.2M49.6,41.9h-4.6c-.3,0-.5-.2-.5-.5,0,0,0-.2,0-.2.6-1,1.6-1.6,2.8-1.5.7,0,1.4.2,1.9.6.3.2.6.6.8.9.1.2,0,.5-.2.6,0,0-.1,0-.2,0"/>
        <path id="Path_631" class="cls-1" d="M73.1,39h-7.1c-.5,0-.8.4-.8.8v2.5c0,.5.4.8.8.8h2.7c.5,0,.8.4.8.8v.5c0,.3-.1.5-.3.6-.5.4-1,.6-1.6.8-.8.3-1.6.4-2.4.4-1.4,0-2.8-.5-3.8-1.6-.9-1-1.5-2.3-1.4-3.7,0-1.4.5-2.7,1.5-3.7,1-1,2.4-1.6,3.8-1.5,1.4,0,2.8.4,3.9,1.3.3.2.8.2,1.1-.1l2-2.4c.3-.3.3-.9,0-1.2,0,0,0,0,0,0-.8-.6-1.7-1.1-2.7-1.5-1.3-.5-2.8-.8-4.2-.8-2.7,0-5.4.9-7.4,2.8-1.9,1.8-3,4.4-2.9,7.1,0,2.6.9,5.2,2.8,7.1,2,1.9,4.6,2.9,7.3,2.8,3.2,0,6.2-1.2,8.5-3.4.2-.2.3-.4.3-.6v-7.1c0-.5-.4-.8-.8-.8"/>
        <path id="Path_632" class="cls-1" d="M84.3,40.6c.2,0,.5,0,.6-.3,0,0,0,0,0,0l.3-3.4c0-.2-.1-.4-.3-.5-.5-.2-1-.3-1.5-.3-1.1,0-2.2.4-3,1.2-.2.2-.5.2-.7,0,0,0-.1-.2-.1-.3,0-.3-.2-.5-.5-.5h-3.5c-.3,0-.5.2-.5.5v13.4c0,.3.2.5.5.5h3.6c.3,0,.5-.2.5-.5v-5.7c0-2.7,1.1-4.1,3.2-4.1.5,0,.9,0,1.4.2"/>
        <path id="Path_633" class="cls-1" d="M92.2,36c-2.1,0-4.1.7-5.6,2.2-2.9,3-2.9,7.7,0,10.7,3.2,2.9,8.1,2.9,11.2,0,2.9-3,2.9-7.7,0-10.7-1.5-1.5-3.5-2.3-5.6-2.2M94.5,45.9c-.6.6-1.4,1-2.3.9-.9,0-1.7-.3-2.3-.9-.6-.6-.9-1.5-.9-2.4,0-.9.3-1.7.9-2.3.6-.6,1.4-1,2.3-1,1.8,0,3.2,1.4,3.2,3.2,0,0,0,0,0,0,0,.9-.3,1.7-.9,2.4"/>
        <path id="Path_634" class="cls-1" d="M121.7,36.4h-3.9c-.2,0-.4.1-.4.3l-2,6.7c0,.2-.3.4-.5.3-.1,0-.2-.1-.3-.3l-2.2-6.7c0-.2-.2-.3-.4-.3h-2.6c-.2,0-.4.1-.4.3l-2.2,6.7c0,.2-.3.3-.5.3-.1,0-.2-.2-.3-.3l-2-6.7c0-.2-.2-.3-.4-.3h-3.9c-.2,0-.4.2-.4.4,0,0,0,0,0,.1l4.6,13.4c0,.2.2.3.4.3h3.5c.2,0,.3-.1.4-.3l2.2-6.1c0-.2.3-.3.5-.3.1,0,.2.1.3.3l2.2,6.2c0,.2.2.3.4.3h3.5c.2,0,.3-.1.4-.3l4.6-13.4c0-.2,0-.5-.3-.5,0,0,0,0-.1,0"/>
        <path id="Path_635" class="cls-1" d="M124.2,36.4c-.8,0-1.5.7-1.4,1.5,0,.8.7,1.5,1.5,1.4.8,0,1.4-.7,1.4-1.5,0-.8-.7-1.5-1.5-1.5,0,0,0,0,0,0M124.2,39c-.6,0-1.2-.5-1.2-1.1s.5-1.2,1.1-1.2c.6,0,1.2.5,1.2,1.1,0,0,0,0,0,0,0,.6-.5,1.1-1.1,1.2,0,0,0,0,0,0"/>
        <path id="Path_636" class="cls-1" d="M124.6,37.9h0c.2,0,.3-.2.3-.4,0-.1,0-.2-.1-.3-.2,0-.3-.1-.5-.1-.2,0-.4,0-.6,0v1.5h.3v-.6h.2c.2,0,.3,0,.3.2,0,.1,0,.2.1.4h.4c0-.1,0-.2-.1-.4,0-.2-.1-.3-.3-.4M124.2,37.8h-.2v-.4c0,0,.1,0,.2,0,.2,0,.3,0,.3.2s-.2.2-.3.2"/>
        <path id="Path_637" class="cls-1" d="M135.7,1.5V0c-.1,0-1.5,0-1.5,0-5.6-.1-9.9.5-13.4,2.1-2.7,1.2-5,3.1-6.7,5.5-1.5,2.1-2.4,4.5-2.8,7-.4,1.9-.5,3.9-.5,5.8,0,2.6,0,13.2,0,13.3h3.2c0,0,0-4.3,0-8h3.1c.2-.1,5.4-.3,8.4-1.8,4.2-1.8,7.4-5.2,9-9.4,1.9-5.1,1.3-12.7,1.3-13.1M131.4,13.4c-1.3,3.4-4,6.2-7.4,7.7-2.1,1-5.9,1.3-7.2,1.4h-3c0-.8,0-1.5,0-2,0-2.7.4-7.7,2.7-11,2.3-3.1,6-6.2,16-6.3,0,2.3,0,7-1.1,10.2"/>
        <path id="Path_638" class="cls-1" d="M95.7,19.3c3.8,3.4,7.1,3.6,10.4,3.7h.6v10.8h3.2v-14.4c0-.6,0-6.1-1.8-8.5-3.2-4.3-8.2-6.2-14.3-5.5h-1.2c0,.1-.1,1.4-.1,1.4-.2,1.5-.1,3.1,0,4.6.4,3.5,1.5,6.2,3.4,7.9M95.4,8.4c4.4-.2,7.8,1.2,10.1,4.3.9,1.1,1.2,4.6,1.2,6.6v.5h-.5c-3.1-.2-5.5-.3-8.4-2.9-2.2-2-2.5-6.1-2.5-8.5"/>
        <path id="Path_639" class="cls-1" d="M77.5,57.7c-.1,0-.3-.1-.4-.2-.2,0-.3,0-.4-.1-.1,0-.2,0-.3-.2-.2-.1-.2-.4,0-.5,0,0,0,0,0,0,.1,0,.3-.1.4,0,0,0,.2,0,.2,0,0,0,.2,0,.2,0,0,0,.1,0,.2,0,0,0,0,0,.1,0v-.8c-.1,0-.2-.1-.4-.1-.2,0-.4,0-.5,0-.4,0-.7,0-1,.3-.4.4-.5,1-.2,1.5,0,.1.2.3.3.3.1,0,.3.2.4.2.2,0,.3,0,.4.1.1,0,.2,0,.3.2,0,0,.1.2.1.3,0,.1,0,.3-.2.3-.2,0-.3.1-.5.1,0,0-.2,0-.3,0-.1,0-.2,0-.3,0-.1,0-.2,0-.3,0,0,0-.2,0-.2,0v.8c0,0,.2,0,.3,0,.1,0,.2,0,.3,0,.1,0,.2,0,.3,0s.2,0,.3,0c.4,0,.8,0,1.1-.3.3-.2.4-.6.4-.9,0-.2,0-.4-.1-.6,0-.1-.2-.3-.3-.3"/>
        <path id="Path_640" class="cls-1" d="M83.1,57.1l-.8-1.3h-1l1.4,2.1v2h.9v-2l1.4-2.1h-1l-.8,1.3Z"/>
        <path id="Path_641" class="cls-1" d="M90.5,57.7c-.1,0-.3-.1-.4-.2-.2,0-.3,0-.4-.1-.1,0-.2,0-.3-.2,0,0-.1-.2-.1-.3,0-.1,0-.2.1-.3.1,0,.3-.1.4,0,0,0,.2,0,.2,0,0,0,.2,0,.2,0,0,0,.1,0,.2,0,0,0,0,0,.1,0v-.8c-.1,0-.2-.1-.4-.1-.2,0-.4,0-.5,0-.4,0-.7,0-1,.3-.4.4-.5,1-.2,1.5,0,.1.2.3.3.3.1,0,.3.2.4.2.2,0,.3,0,.4.1.1,0,.2,0,.3.2,0,0,.1.2.1.3,0,.1,0,.3-.2.3-.2,0-.3.1-.5.1,0,0-.2,0-.3,0-.1,0-.2,0-.3,0-.1,0-.2,0-.3,0,0,0-.2,0-.2,0v.8c0,0,.2,0,.3,0,.1,0,.2,0,.3,0,.1,0,.2,0,.3,0s.2,0,.3,0c.4,0,.8,0,1.1-.3.3-.2.4-.6.4-.9,0-.2,0-.4-.1-.6,0-.1-.2-.3-.3-.3"/>
        <path id="Path_642" class="cls-1" d="M94.3,56.6h1.2v3.2h.9v-3.2h1.2v-.8h-3.3v.8Z"/>
        <path id="Path_643" class="cls-1" d="M102,58.1h1.3v-.8h-1.3v-.7h1.5v-.8h-2.4v4h2.5v-.8h-1.6v-.9Z"/>
        <path id="Path_644" class="cls-1" d="M110.5,55.8l-1,2.2-1-2.2h-.7l-.7,4h.9l.4-2.4.8,1.6h.7l.8-1.6.4,2.4h.9l-.7-4h-.7Z"/>
        <path id="Path_645" class="cls-1" d="M117.8,57.7c-.1,0-.3-.1-.4-.2-.2,0-.3,0-.4-.1-.1,0-.2,0-.3-.2-.2-.1-.2-.4,0-.5,0,0,0,0,0,0,.1,0,.3-.1.4,0,0,0,.2,0,.2,0,0,0,.2,0,.2,0,0,0,.1,0,.2,0,0,0,0,0,.1,0v-.8c-.1,0-.2-.1-.4-.1-.2,0-.4,0-.5,0-.4,0-.7,0-1,.3-.4.4-.5,1-.2,1.5,0,.1.2.3.3.3.1,0,.3.2.4.2.2,0,.3,0,.4.1.1,0,.2,0,.3.2,0,0,.1.2.1.3,0,.1,0,.3-.2.3-.2,0-.3.1-.5.1,0,0-.2,0-.3,0-.1,0-.2,0-.3,0-.1,0-.2,0-.3,0,0,0-.2,0-.2,0v.8c0,0,.2,0,.3,0,.1,0,.2,0,.3,0s.2,0,.3,0,.2,0,.3,0c.4,0,.8,0,1.1-.3.3-.2.4-.6.4-.9,0-.2,0-.4-.1-.6,0-.1-.2-.3-.3-.3"/>
      </g>
    </g>
  </g>
</svg>