<?xml version="1.0" encoding="UTF-8"?>
<svg xmlns="http://www.w3.org/2000/svg" version="1.1" viewBox="0 0 24.2 24.2">
  <defs>
    <style>
      .cls-1 {
        fill: #fff;
      }
    </style>
  </defs>
  <!-- Generator: Adobe Illustrator 28.7.1, SVG Export Plug-In . SVG Version: 1.2.0 Build 142)  -->
  <g>
    <g id="Layer_1">
      <path class="cls-1" d="M12,6c-3.3,0-6,2.7-6,6s2.7,6,6,6,6-2.7,6-6c0-3.3-2.7-6-6-6ZM12,15.7c-2,0-3.7-1.6-3.7-3.7s1.6-3.7,3.7-3.7c2,0,3.7,1.6,3.7,3.7,0,2-1.6,3.7-3.7,3.7ZM24.1,9.1h0c0-1.3,0-2.5-.4-3.8-.3-1.4-1.1-2.7-2.3-3.6-1.2-1-2.7-1.5-4.2-1.6C15.7,0,13.9,0,12.1,0c-1.9,0-3.6,0-5.2.1-1.5,0-3,.6-4.2,1.6C1.5,2.7.7,3.9.4,5.4.1,6.6,0,7.9,0,9.1c0,.9,0,1.9,0,2.9,0,1,0,2.1,0,2.9,0,1.3,0,2.5.4,3.8.3,1.4,1.1,2.7,2.3,3.6,1.2,1,2.7,1.5,4.2,1.6,1.6.1,3.2.1,5,.1h.5c1.8,0,3.4,0,5-.1,1.5,0,3-.6,4.2-1.6.8-.7,1.5-1.5,1.9-2.5.3-.6,0-1.3-.6-1.6-.6-.3-1.3,0-1.6.6-.3.6-.7,1.2-1.2,1.6-.8.6-1.8,1-2.8,1.1-1.6.1-3.3.2-5.1.1-1.8,0-3.5,0-5.1-.1-1,0-2-.4-2.8-1.1-.7-.6-1.3-1.5-1.5-2.4-.2-1.1-.3-2.1-.3-3.2,0-.9,0-1.9,0-2.9,0-1,0-2,0-2.9,0-1.1,0-2.2.3-3.2.2-.9.7-1.8,1.5-2.4.8-.6,1.8-1,2.8-1.1,1.6-.1,3.3-.1,5.1-.1,1.8,0,3.5,0,5.1.1,1,0,2,.4,2.8,1.1.7.6,1.3,1.5,1.5,2.4.2,1.1.3,2.1.3,3.2,0,.9,0,1.9,0,2.9,0,1,0,2,0,2.9,0,.7.5,1.2,1.2,1.2h0c.6,0,1.2-.5,1.2-1.2,0-.9,0-1.9,0-2.9s0-2.1,0-2.9ZM20.1,5.8c0-.9-.7-1.6-1.6-1.6s-1.6.7-1.6,1.6.7,1.6,1.6,1.6c.9,0,1.6-.7,1.6-1.6Z"/>
    </g>
  </g>
</svg>