<svg id="Group_90" data-name="Group 90" xmlns="http://www.w3.org/2000/svg" xmlns:xlink="http://www.w3.org/1999/xlink" width="144.363" height="149" viewBox="0 0 144.363 149">
  <defs>
    <clipPath id="clip-path">
      <rect id="Rectangle_76" data-name="Rectangle 76" width="144.363" height="149" fill="none"/>
    </clipPath>
  </defs>
  <g id="Group_89" data-name="Group 89" clip-path="url(#clip-path)">
    <path id="Path_535" data-name="Path 535" d="M165.74,5.625H58.367a4.656,4.656,0,0,0-4.656,4.656V145.6a4.656,4.656,0,0,0,4.656,4.656h93.4a4.657,4.657,0,0,0,4.656-4.656V45.311Z" transform="translate(-32.87 -3.442)" fill="#ddeaf7"/>
    <path id="Path_536" data-name="Path 536" d="M65.643,150.26H58.367a4.657,4.657,0,0,1-4.656-4.656V10.281a4.657,4.657,0,0,1,4.656-4.656h7.275a4.657,4.657,0,0,0-4.656,4.656V145.6a4.657,4.657,0,0,0,4.656,4.656" transform="translate(-32.87 -3.442)" fill="#c9dcf2"/>
    <path id="Path_537" data-name="Path 537" d="M201.759,52.332h-4.9A10.784,10.784,0,0,0,186.07,63.118v4.9h4.9a10.784,10.784,0,0,0,10.784-10.784Z" transform="translate(-113.871 -32.026)" fill="#bbd057"/>
    <path id="Path_538" data-name="Path 538" d="M145.632,78.84v4.906A10.785,10.785,0,0,0,156.416,94.53h4.907v-4.9A10.786,10.786,0,0,0,150.537,78.84Z" transform="translate(-89.124 -48.248)" fill="#bbd057"/>
    <path id="Path_539" data-name="Path 539" d="M29.333,213.178a2.9,2.9,0,0,1-2.576,0c-4.767-2.358-21.132-11.225-21.132-21.8V163.627a2.9,2.9,0,0,1,.864-2.067c2.98-2.945,5.153-4.909,8.138-7.857a2.913,2.913,0,0,1,2.048-.843H39.416a2.913,2.913,0,0,1,2.048.843c2.984,2.948,5.158,4.912,8.138,7.857a2.906,2.906,0,0,1,.864,2.067v27.747c0,10.58-16.365,19.446-21.132,21.8" transform="translate(-3.442 -93.547)" fill="#ffec9c"/>
    <path id="Path_540" data-name="Path 540" d="M333.562,45.311H318.429V14.937a9.313,9.313,0,0,1,18.625,0V41.818a3.493,3.493,0,0,1-3.492,3.492" transform="translate(-194.872 -3.442)" fill="#ddeaf7"/>
    <path id="Path_541" data-name="Path 541" d="M331.378,6.361a9.314,9.314,0,0,0-5.678,8.576V45.311h-7.275V14.937a9.322,9.322,0,0,1,12.953-8.576" transform="translate(-194.869 -3.442)" fill="#c9dcf2"/>
    <path id="Path_542" data-name="Path 542" d="M55.505,205.144c0,1.2-1.558,4.362-7.4,8.633a57.5,57.5,0,0,1-5.128,3.33,2.326,2.326,0,0,1-2.325,0,57.974,57.974,0,0,1-5.131-3.33c-5.839-4.271-7.395-7.438-7.395-8.633V180.81a2.326,2.326,0,0,1,.733-1.7l3.33-3.122a2.325,2.325,0,0,1,1.592-.631H49.85a2.326,2.326,0,0,1,1.592.631l3.33,3.122a2.326,2.326,0,0,1,.733,1.7Z" transform="translate(-17.214 -107.316)" fill="#ffd860"/>
    <path id="Path_543" data-name="Path 543" d="M15.229,191.375V163.627a2.9,2.9,0,0,1,.864-2.067c2.98-2.945,5.153-4.909,8.138-7.857a2.913,2.913,0,0,1,2.048-.843h-9.6a2.92,2.92,0,0,0-2.048.843c-2.985,2.948-5.158,4.912-8.138,7.857a2.9,2.9,0,0,0-.864,2.067v27.748c0,10.578,16.364,19.445,21.132,21.8a2.9,2.9,0,0,0,2.576,0c.853-.421,2.078-1.053,3.514-1.864-6.587-3.723-17.618-11.254-17.618-19.939" transform="translate(-3.442 -93.547)" fill="#ffd860"/>
    <path id="Path_544" data-name="Path 544" d="M42.8,213.778c-5.839-4.271-7.395-7.438-7.395-8.633V180.81a2.326,2.326,0,0,1,.733-1.7l3.33-3.122a2.325,2.325,0,0,1,1.592-.631H33.784a2.325,2.325,0,0,0-1.592.631l-3.33,3.122a2.326,2.326,0,0,0-.733,1.7v24.335c0,1.2,1.556,4.362,7.395,8.633a57.974,57.974,0,0,0,5.131,3.33,2.326,2.326,0,0,0,2.325,0c.779-.452,1.614-.958,2.475-1.511-.87-.559-1.766-1.167-2.656-1.819" transform="translate(-17.214 -107.316)" fill="#ffc544"/>
    <path id="Path_545" data-name="Path 545" d="M22.5,177.365V201.7c0,2.711,3.1,6.6,8.288,10.395a60.345,60.345,0,0,0,5.326,3.457,4.508,4.508,0,0,0,4.514,0,59.193,59.193,0,0,0,5.322-3.456c5.191-3.8,8.291-7.683,8.291-10.395v-5.247a2.183,2.183,0,0,0-4.365,0v5.2c-.112.661-1.519,3.268-6.505,6.916a55.4,55.4,0,0,1-4.931,3.2.138.138,0,0,1-.137,0,55.742,55.742,0,0,1-4.937-3.2c-4.983-3.647-6.388-6.254-6.5-6.915V177.365a.138.138,0,0,1,.044-.1l3.33-3.124a.151.151,0,0,1,.1-.04H46.408a.146.146,0,0,1,.1.04l3.328,3.122a.143.143,0,0,1,.044.1v8.9a2.183,2.183,0,0,0,4.365,0v-8.9a4.521,4.521,0,0,0-1.423-3.287l-3.327-3.122a4.5,4.5,0,0,0-3.086-1.223H30.342a4.5,4.5,0,0,0-3.086,1.223l-3.328,3.122a4.518,4.518,0,0,0-1.423,3.289" transform="translate(-13.772 -103.871)" fill="#1a1818"/>
    <path id="Path_546" data-name="Path 546" d="M157.88,91.539a2.182,2.182,0,0,0,2.183-2.183V66.763h2.722A12.982,12.982,0,0,0,175.753,53.8V50.054a3.351,3.351,0,0,0-3.347-3.347h-3.742A12.982,12.982,0,0,0,155.7,59.675v.593a12.91,12.91,0,0,0-8.6-3.275h-3.741a3.351,3.351,0,0,0-3.347,3.347V64.08a12.983,12.983,0,0,0,12.967,12.968H155.7V89.356a2.181,2.181,0,0,0,2.183,2.183m2.183-31.863a8.612,8.612,0,0,1,8.6-8.6h2.722V53.8a8.611,8.611,0,0,1-8.6,8.6h-2.722Zm-7.089,13.008a8.612,8.612,0,0,1-8.6-8.6V61.358h2.722a8.613,8.613,0,0,1,8.6,8.6v2.722Z" transform="translate(-85.681 -28.584)" fill="#1a1818"/>
    <path id="Path_547" data-name="Path 547" d="M233.2,310.178h-7.3a2.759,2.759,0,0,0-1.551.476l-3.374,2.285-1.138-4.564a2.765,2.765,0,0,0-5.053-.752l-2.345,3.909-2.651-3.506a2.764,2.764,0,0,0-4.8.719l-2.3,6.3a2.182,2.182,0,1,0,4.1,1.5l1.291-3.54,2.31,3.055a2.765,2.765,0,0,0,4.577-.246l1.575-2.627.757,3.033a2.767,2.767,0,0,0,4.233,1.62l4.862-3.3H233.2a2.183,2.183,0,1,0,0-4.365" transform="translate(-123.957 -187.437)" fill="#1a1818"/>
    <path id="Path_548" data-name="Path 548" d="M132.87,0H25.5a6.846,6.846,0,0,0-6.839,6.839V57.13H13.232A5.069,5.069,0,0,0,9.649,58.6c-1.48,1.461-2.784,2.706-4.047,3.908s-2.587,2.464-4.089,3.948A5.123,5.123,0,0,0,0,70.08V97.827c0,9.684,11.146,17.587,18.658,21.813v22.522A6.846,6.846,0,0,0,25.5,149H118.9a6.846,6.846,0,0,0,6.839-6.839V73.947a2.183,2.183,0,0,0-4.365,0v68.214a2.476,2.476,0,0,1-2.474,2.474H25.5a2.476,2.476,0,0,1-2.474-2.474v-20.3a5.022,5.022,0,0,0,3.834-.276h0a66.66,66.66,0,0,0,14.3-9.364h50.8a2.183,2.183,0,0,0,0-4.365H45.289a20.983,20.983,0,0,0,2.659-4.365h61.3a2.183,2.183,0,1,0,0-4.365H49.135a12.4,12.4,0,0,0,.069-1.3V94.764h60.042a2.183,2.183,0,0,0,0-4.365H49.2V86.033h60.042a2.183,2.183,0,0,0,0-4.365H49.2V77.3h60.042a2.183,2.183,0,0,0,0-4.365H49.2V70.08a5.124,5.124,0,0,0-1.511-3.621c-1.5-1.484-2.819-2.737-4.091-3.95s-2.568-2.445-4.047-3.906a5.066,5.066,0,0,0-3.583-1.473H23.024V6.839A2.476,2.476,0,0,1,25.5,4.365h98.365a11.441,11.441,0,0,0-2.489,7.13l0,52.266a2.183,2.183,0,1,0,4.365,0V44.051h12.949a5.681,5.681,0,0,0,5.675-5.675V11.5A11.506,11.506,0,0,0,132.87,0M36.488,61.707c1.508,1.49,2.828,2.748,4.1,3.964,1.26,1.2,2.56,2.437,4.035,3.894a.728.728,0,0,1,.214.515V97.827c0,7.369-10.288,15.084-19.916,19.848a.714.714,0,0,1-.641,0C14.654,112.911,4.365,105.2,4.365,97.827V70.08a.731.731,0,0,1,.215-.515c1.473-1.457,2.774-2.695,4.032-3.894,1.278-1.216,2.6-2.472,4.106-3.964a.739.739,0,0,1,.514-.212H35.974a.742.742,0,0,1,.514.212M140,38.376a1.312,1.312,0,0,1-1.31,1.31H125.74V11.5a7.13,7.13,0,1,1,14.26,0Z" fill="#1a1818"/>
  </g>
</svg>
