<svg id="Group_102" data-name="Group 102" xmlns="http://www.w3.org/2000/svg" xmlns:xlink="http://www.w3.org/1999/xlink" width="220.064" height="76.153" viewBox="0 0 220.064 76.153">
  <defs>
    <clipPath id="clip-path">
      <rect id="Rectangle_84" data-name="Rectangle 84" width="220.064" height="76.153" fill="none"/>
    </clipPath>
  </defs>
  <g id="Group_101" data-name="Group 101" transform="translate(0 0)" clip-path="url(#clip-path)">
    <path id="Path_669" data-name="Path 669" d="M245.694,52.538h10.879v14.5a12.706,12.706,0,0,1-12.69,12.693H203.99A12.706,12.706,0,0,1,191.3,67.042V27.155A12.708,12.708,0,0,1,203.99,14.461H218.5V25.34H203.99a1.815,1.815,0,0,0-1.812,1.814V67.042a1.814,1.814,0,0,0,1.812,1.814h39.893a1.813,1.813,0,0,0,1.812-1.814Z" transform="translate(-47.389 -3.582)" fill="#ffa600"/>
    <path id="Path_670" data-name="Path 670" d="M245.694,52.538h10.879v14.5a12.706,12.706,0,0,1-12.69,12.693H203.99A12.706,12.706,0,0,1,191.3,67.042V27.155A12.708,12.708,0,0,1,203.99,14.461H218.5V25.34H203.99a1.815,1.815,0,0,0-1.812,1.814V67.042a1.814,1.814,0,0,0,1.812,1.814h39.893a1.813,1.813,0,0,0,1.812-1.814Z" transform="translate(-47.389 -3.582)" fill="#ffa600"/>
    <path id="Path_671" data-name="Path 671" d="M237.065,0V10.879H256.57L222.34,45.11l7.692,7.692,34.23-34.23V38.077h10.879V5.44A5.44,5.44,0,0,0,269.7,0Z" transform="translate(-55.078 0)" fill="#002537"/>
    <path id="Path_672" data-name="Path 672" d="M237.065,0V10.879H256.57L222.34,45.11l7.692,7.692,34.23-34.23V38.077h10.879V5.44A5.44,5.44,0,0,0,269.7,0Z" transform="translate(-55.078 0)" fill="#002537"/>
    <path id="Path_673" data-name="Path 673" d="M7.342,72.19A7.1,7.1,0,0,1,0,64.847V30.062H9.629v31.9a1.234,1.234,0,0,0,1.2,1.2H27.924V72.19Z" transform="translate(0 -7.447)" fill="#232517"/>
    <path id="Path_674" data-name="Path 674" d="M38.036,71.595V45.476l4.031,4.031H33.04V41.924H47.063V71.595Zm-.422-43.934H47.6v8.908h-9.99Z" transform="translate(-8.185 -6.852)" fill="#232517"/>
    <path id="Path_675" data-name="Path 675" d="M56.96,76.094V46.424h8.727v8.305H63.279a12.636,12.636,0,0,1,1.806-4.574,9.108,9.108,0,0,1,2.738-2.678,10.482,10.482,0,0,1,3.13-1.294,13.076,13.076,0,0,1,2.858-.361,10.111,10.111,0,0,1,7.944,3.31Q84.7,52.443,84.7,58.22V76.094H75.677V59.724a6.481,6.481,0,0,0-1.2-4.363,4.2,4.2,0,0,0-3.31-1.354,5.175,5.175,0,0,0-2.678.692,4.729,4.729,0,0,0-1.836,2.016,7.216,7.216,0,0,0-.662,3.25V76.094Z" transform="translate(-14.11 -11.351)" fill="#232517"/>
    <path id="Path_676" data-name="Path 676" d="M98.718,27.662h9.027V71.6H98.718Zm5,40.864-.6-11.435,13.36-15.166h11.074ZM116.593,71.6l-8.606-15.768,6.981-6.018,12.7,21.786Z" transform="translate(-24.454 -6.852)" fill="#232517"/>
    <path id="Path_677" data-name="Path 677" d="M146.336,76.574a20.582,20.582,0,0,1-11.857-3.551l3.792-6.078a26.455,26.455,0,0,0,3.943,1.927,11.3,11.3,0,0,0,4.122.782,5.037,5.037,0,0,0,2.587-.572,1.728,1.728,0,0,0,.964-1.535,1.681,1.681,0,0,0-1.024-1.595,12.8,12.8,0,0,0-2.617-.9q-1.6-.392-3.4-.9a14.51,14.51,0,0,1-3.4-1.444,7.362,7.362,0,0,1-2.619-2.649A8.8,8.8,0,0,1,135.8,55.51a8.7,8.7,0,0,1,3.219-6.98q3.219-2.709,8.878-2.709a21.963,21.963,0,0,1,5.778.752,17.8,17.8,0,0,1,4.934,2.136l-3.852,6.018a15.241,15.241,0,0,0-3.46-1.565,12.021,12.021,0,0,0-3.521-.542,4.584,4.584,0,0,0-2.467.572,1.746,1.746,0,0,0-.9,1.535,1.7,1.7,0,0,0,1.054,1.565,11.941,11.941,0,0,0,2.707.933q1.655.393,3.491.934a15.02,15.02,0,0,1,3.491,1.535A7.948,7.948,0,0,1,157.86,62.4a8.613,8.613,0,0,1,1.054,4.544,8.1,8.1,0,0,1-1.625,5,10.83,10.83,0,0,1-4.453,3.4,16.133,16.133,0,0,1-6.5,1.234" transform="translate(-33.313 -11.351)" fill="#232517"/>
  </g>
</svg>
