<svg xmlns="http://www.w3.org/2000/svg" xmlns:xlink="http://www.w3.org/1999/xlink" width="92" height="49.978" viewBox="0 0 92 49.978">
  <defs>
    <clipPath id="clip-path">
      <rect id="Rectangle_72" data-name="Rectangle 72" width="35.14" height="44.353" fill="#c61c1c" stroke="#c51c1b" stroke-width="2"/>
    </clipPath>
  </defs>
  <g id="Group_113" data-name="Group 113" transform="translate(-222 -2066.022)">
    <text id="PDF" transform="translate(264 2088)" fill="#232518" font-size="22" font-family="SUSE" font-weight="800" letter-spacing="-0.04em"><tspan x="0" y="22">PDF</tspan></text>
    <g id="Group_80" data-name="Group 80" transform="translate(222 2066.022)">
      <g id="Group_79" data-name="Group 79" clip-path="url(#clip-path)">
        <path id="Path_520" data-name="Path 520" d="M23.9.343A1.072,1.072,0,0,0,23.13,0H5.828A5.853,5.853,0,0,0,0,5.817V38.536a5.853,5.853,0,0,0,5.828,5.817H29.312a5.853,5.853,0,0,0,5.828-5.817V12.545a1.151,1.151,0,0,0-.311-.75Zm.311,3.439,7.317,7.681H26.773A2.553,2.553,0,0,1,24.212,8.9Zm5.1,38.429H5.828a3.711,3.711,0,0,1-3.685-3.675V5.817A3.711,3.711,0,0,1,5.828,2.143H22.07V8.9a4.7,4.7,0,0,0,4.7,4.7H33v24.93a3.7,3.7,0,0,1-3.685,3.675" fill="#c61c1c" stroke="#c51c1b" stroke-width="2"/>
        <path id="Path_521" data-name="Path 521" d="M39.8,95.633H22.168a1.071,1.071,0,1,0,0,2.143H39.813a1.071,1.071,0,1,0-.011-2.143" transform="translate(-13.416 -60.815)" fill="#c61c1c" stroke="#c51c1b" stroke-width="2"/>
        <path id="Path_522" data-name="Path 522" d="M34.66,56.739a1.064,1.064,0,0,0,1.564,0L42.491,50a1.069,1.069,0,1,0-1.564-1.457L36.514,53.29V41.59a1.071,1.071,0,1,0-2.143,0v11.7l-4.414-4.746A1.069,1.069,0,0,0,28.393,50Z" transform="translate(-17.873 -25.767)" fill="#c61c1c" stroke="#c51c1b" stroke-width="2"/>
      </g>
    </g>
  </g>
</svg>
