<svg id="Group_117" data-name="Group 117" xmlns="http://www.w3.org/2000/svg" xmlns:xlink="http://www.w3.org/1999/xlink" width="351.872" height="102.084" viewBox="0 0 351.872 102.084">
  <defs>
    <clipPath id="clip-path">
      <rect id="Rectangle_87" data-name="Rectangle 87" width="351.872" height="102.084" fill="none"/>
    </clipPath>
  </defs>
  <g id="Group_116" data-name="Group 116" clip-path="url(#clip-path)">
    <path id="Path_692" data-name="Path 692" d="M333.379,102.084H18.493A18.493,18.493,0,0,1,0,83.591v-65.1A18.493,18.493,0,0,1,18.493,0H333.379a18.493,18.493,0,0,1,18.493,18.493v65.1a18.493,18.493,0,0,1-18.493,18.493" fill="#d2d548"/>
    <path id="Path_693" data-name="Path 693" d="M928,82.913a12.967,12.967,0,0,0-4.13-4.294,13.359,13.359,0,0,0,2.9-3.427,14.735,14.735,0,0,0,2.011-7.581,13.651,13.651,0,0,0-2.326-7.874,15.134,15.134,0,0,0-6.471-5.229,23.359,23.359,0,0,0-9.541-1.832,25.481,25.481,0,0,0-9.74,1.9,23.882,23.882,0,0,0-8.044,5.4.672.672,0,0,0-.036.9l6.443,7.747a.671.671,0,0,0,.507.242.678.678,0,0,0,.514-.228,15.4,15.4,0,0,1,4.508-3.575,11.723,11.723,0,0,1,5.413-1.265,6.957,6.957,0,0,1,4.665,1.43,4.757,4.757,0,0,1,1.613,3.835,4.517,4.517,0,0,1-.723,2.563,4.773,4.773,0,0,1-2.007,1.717,7.053,7.053,0,0,1-3.043.622h-6.95a.672.672,0,0,0-.672.672v9.774a.672.672,0,0,0,.672.672h7.892a6.816,6.816,0,0,1,4.293,1.27,4.048,4.048,0,0,1,1.552,3.416,4.78,4.78,0,0,1-.853,2.869,5.688,5.688,0,0,1-2.5,1.906,10.589,10.589,0,0,1-4.084.708,13.016,13.016,0,0,1-5.545-1.169,18.452,18.452,0,0,1-4.992-3.565.672.672,0,0,0-.986.053l-6.3,7.6a.672.672,0,0,0,.048.909,24.886,24.886,0,0,0,7.887,5.245,27.478,27.478,0,0,0,20.074-.149,17.5,17.5,0,0,0,7.222-5.537,13.681,13.681,0,0,0,2.667-8.365A14.484,14.484,0,0,0,928,82.913" transform="translate(-606.585 -35.826)" fill="#18604e"/>
    <path id="Path_694" data-name="Path 694" d="M900.615,236.035h-1.006l2.873-5.012h2.761l-3.846,6.64V242.2h-2.57v-4.533l-3.846-6.64h2.761Z" transform="translate(-608.689 -157.122)" fill="#18604e"/>
    <path id="Path_695" data-name="Path 695" d="M925.348,249.042a4.243,4.243,0,0,1-2.1-.5,3.609,3.609,0,0,1-1.412-1.413,4.256,4.256,0,0,1-.511-2.123v-.159a4.247,4.247,0,0,1,.479-2.019,3.66,3.66,0,0,1,3.352-1.971,3.641,3.641,0,0,1,2.115.6,3.358,3.358,0,0,1,1.261,1.684,5.428,5.428,0,0,1,.2,2.554h-5.682v-1.548h4.421l-1.069.766a2.758,2.758,0,0,0-.008-1.205,1.4,1.4,0,0,0-.455-.742,1.191,1.191,0,0,0-.766-.255,1.245,1.245,0,0,0-.854.287,1.66,1.66,0,0,0-.48.766,3.616,3.616,0,0,0-.151,1.086v.479a1.955,1.955,0,0,0,.2.9,1.4,1.4,0,0,0,.6.606,2.06,2.06,0,0,0,.99.216,2.007,2.007,0,0,0,.926-.184,2.523,2.523,0,0,0,.655-.5l1.356,1.389a2.976,2.976,0,0,1-1.276.974,4.707,4.707,0,0,1-1.788.319" transform="translate(-626.606 -163.808)" fill="#18604e"/>
    <path id="Path_696" data-name="Path 696" d="M948.713,249.042a3.185,3.185,0,0,1-2.1-.654,2.079,2.079,0,0,1-.79-1.676,2.163,2.163,0,0,1,.375-1.261,2.478,2.478,0,0,1,1.1-.854,4.478,4.478,0,0,1,1.764-.312,3.143,3.143,0,0,1,2.147.623,2.119,2.119,0,0,1,.695,1.66h-.7a2.568,2.568,0,0,1-.607,1.827,2.471,2.471,0,0,1-1.883.646m2.155-.16v-2.314l-.287-.91v-1.676a.915.915,0,0,0-.367-.83,1.6,1.6,0,0,0-.894-.239,3.512,3.512,0,0,0-1.157.215,3.671,3.671,0,0,0-1.078.583l-1.053-1.58a3.884,3.884,0,0,1,1.46-.918,5.485,5.485,0,0,1,1.988-.359,4.318,4.318,0,0,1,1.8.351,2.871,2.871,0,0,1,1.221,1.014,2.833,2.833,0,0,1,.447,1.62v2.57c0,.415,0,.828.008,1.237s.018.822.039,1.237Zm-1.469-1.564a1.62,1.62,0,0,0,.863-.207.621.621,0,0,0,.335-.543.611.611,0,0,0-.335-.527,1.62,1.62,0,0,0-.863-.207,1.579,1.579,0,0,0-.845.207.61.61,0,0,0-.336.527.62.62,0,0,0,.336.543,1.579,1.579,0,0,0,.845.207" transform="translate(-643.268 -163.808)" fill="#18604e"/>
    <path id="Path_697" data-name="Path 697" d="M972.17,249.051v-7.869h2.314v2.538H974.2a3.334,3.334,0,0,1,.312-1.58,1.742,1.742,0,0,1,.846-.806,2.962,2.962,0,0,1,1.189-.232h.607v2.362h-.814a2.091,2.091,0,0,0-1.318.359,1.2,1.2,0,0,0-.455,1v4.23Z" transform="translate(-661.186 -163.977)" fill="#18604e"/>
    <path id="Path_698" data-name="Path 698" d="M990.633,249.01a5.461,5.461,0,0,1-3.144-.942l1.005-1.612a6.946,6.946,0,0,0,1.045.51,2.988,2.988,0,0,0,1.094.208,1.336,1.336,0,0,0,.686-.152.457.457,0,0,0,.256-.407.446.446,0,0,0-.271-.423,3.392,3.392,0,0,0-.695-.24c-.281-.069-.583-.149-.9-.239a3.827,3.827,0,0,1-.9-.383,1.945,1.945,0,0,1-.695-.7,2.334,2.334,0,0,1-.271-1.205,2.306,2.306,0,0,1,.854-1.851,3.545,3.545,0,0,1,2.354-.718,5.81,5.81,0,0,1,1.532.2,4.69,4.69,0,0,1,1.309.567l-1.021,1.6a4.046,4.046,0,0,0-.918-.415,3.183,3.183,0,0,0-.933-.144,1.213,1.213,0,0,0-.654.152.463.463,0,0,0-.24.407.448.448,0,0,0,.279.415,3.183,3.183,0,0,0,.719.248q.44.1.925.248a3.971,3.971,0,0,1,.926.407,2.1,2.1,0,0,1,.718.718,2.281,2.281,0,0,1,.28,1.205,2.148,2.148,0,0,1-.431,1.324,2.866,2.866,0,0,1-1.181.9,4.284,4.284,0,0,1-1.724.327" transform="translate(-671.605 -163.808)" fill="#18604e"/>
    <path id="Path_699" data-name="Path 699" d="M353.828,113.788a.538.538,0,1,1,.541.538.54.54,0,0,1-.541-.538m0-3.6a.538.538,0,1,1,.541.538.54.54,0,0,1-.541-.538m0-3.6a.538.538,0,1,1,.541.538.54.54,0,0,1-.541-.538m0-3.606a.538.538,0,1,1,.541.541.543.543,0,0,1-.541-.541m0-3.6a.538.538,0,1,1,1.075,0,.538.538,0,1,1-1.075,0m0-3.6a.538.538,0,1,1,.541.538.537.537,0,0,1-.541-.538m0-3.6a.538.538,0,1,1,.541.538.54.54,0,0,1-.541-.538m0-3.6a.538.538,0,1,1,.541.538.54.54,0,0,1-.541-.538m0-3.6a.538.538,0,1,1,.541.538.54.54,0,0,1-.541-.538m0-3.6a.538.538,0,1,1,.541.538.54.54,0,0,1-.541-.538m0-3.6a.538.538,0,1,1,.541.538.54.54,0,0,1-.541-.538m0-3.6a.538.538,0,1,1,.541.537.54.54,0,0,1-.541-.537m0-3.6a.538.538,0,1,1,.541.538.54.54,0,0,1-.541-.538m0-3.6a.538.538,0,1,1,.541.538.54.54,0,0,1-.541-.538m0-3.6a.538.538,0,1,1,1.075,0,.538.538,0,1,1-1.075,0m0-3.607a.538.538,0,1,1,.541.538.54.54,0,0,1-.541-.538m0-3.6a.538.538,0,1,1,.541.541.542.542,0,0,1-.541-.541m0-3.6a.538.538,0,1,1,.541.538.54.54,0,0,1-.541-.538m0-3.6a.538.538,0,1,1,.541.538.54.54,0,0,1-.541-.538m0-3.6a.538.538,0,1,1,.541.538.54.54,0,0,1-.541-.538m0-3.6a.538.538,0,1,1,.541.538.54.54,0,0,1-.541-.538m0-3.6a.538.538,0,1,1,.541.538.54.54,0,0,1-.541-.538m0-3.6a.538.538,0,1,1,.541.538.54.54,0,0,1-.541-.538" transform="translate(-240.643 -23.113)" fill="#fff"/>
    <path id="Path_700" data-name="Path 700" d="M833.343,113.788a.538.538,0,1,1,.541.538.54.54,0,0,1-.541-.538m0-3.6a.538.538,0,1,1,.541.538.54.54,0,0,1-.541-.538m0-3.6a.538.538,0,1,1,.541.538.54.54,0,0,1-.541-.538m0-3.606a.538.538,0,1,1,.541.541.543.543,0,0,1-.541-.541m0-3.6a.538.538,0,1,1,1.075,0,.538.538,0,1,1-1.075,0m0-3.6a.538.538,0,1,1,.541.538.537.537,0,0,1-.541-.538m0-3.6a.538.538,0,1,1,.541.538.54.54,0,0,1-.541-.538m0-3.6a.538.538,0,1,1,.541.538.54.54,0,0,1-.541-.538m0-3.6a.538.538,0,1,1,.541.538.54.54,0,0,1-.541-.538m0-3.6a.538.538,0,1,1,.541.538.54.54,0,0,1-.541-.538m0-3.6a.538.538,0,1,1,.541.538.54.54,0,0,1-.541-.538m0-3.6a.538.538,0,1,1,.541.537.54.54,0,0,1-.541-.537m0-3.6a.538.538,0,1,1,.541.538.54.54,0,0,1-.541-.538m0-3.6a.538.538,0,1,1,.541.538.54.54,0,0,1-.541-.538m0-3.6a.538.538,0,1,1,1.075,0,.538.538,0,1,1-1.075,0m0-3.607a.538.538,0,1,1,.541.538.54.54,0,0,1-.541-.538m0-3.6a.538.538,0,1,1,.541.541.542.542,0,0,1-.541-.541m0-3.6a.538.538,0,1,1,.541.538.54.54,0,0,1-.541-.538m0-3.6a.538.538,0,1,1,.541.538.54.54,0,0,1-.541-.538m0-3.6a.538.538,0,1,1,.541.538.54.54,0,0,1-.541-.538m0-3.6a.538.538,0,1,1,.541.538.54.54,0,0,1-.541-.538m0-3.6a.538.538,0,1,1,.541.538.54.54,0,0,1-.541-.538m0-3.6a.538.538,0,1,1,.541.538.54.54,0,0,1-.541-.538" transform="translate(-566.768 -23.113)" fill="#fff"/>
    <path id="Path_701" data-name="Path 701" d="M131.266,76.958a1.305,1.305,0,0,0,2.439-.931A33.819,33.819,0,0,0,102.282,54.4a33.2,33.2,0,0,0-14.313,3.215c-2.629-1.931-6.782-2.6-10.927-1.693a16.587,16.587,0,0,0-11.9,10.119c-5.776,14.17,3.418,25.336,3.813,25.806a1.288,1.288,0,0,0,1,.468c.021,0,.04-.007.061-.007a1.288,1.288,0,0,0,1.012-.557c1.7-2.467,4.7-4.2,7.876-6.035C83.533,83.04,88.785,80,91.755,73.845c3.479-7.223.477-12.089-1.623-14.353a30.606,30.606,0,0,1,12.151-2.481,31.191,31.191,0,0,1,28.984,19.946M89.4,72.711c-2.623,5.435-7.293,8.133-11.811,10.75C74.738,85.112,72.007,86.69,70,88.872c-2.107-3.154-6.6-11.65-2.439-21.843a13.833,13.833,0,0,1,10.043-8.556,14.257,14.257,0,0,1,3.051-.334,11.3,11.3,0,0,1,4.609.9A33.607,33.607,0,0,0,69.907,78.894a1.305,1.305,0,0,0,.9,1.611,1.242,1.242,0,0,0,.353.047,1.306,1.306,0,0,0,1.258-.952A30.976,30.976,0,0,1,87.672,60.688c1.48,1.292,4.988,5.268,1.733,12.023" transform="translate(-43.011 -37)" fill="#18604e"/>
    <path id="Path_702" data-name="Path 702" d="M131.266,76.958a1.305,1.305,0,0,0,2.439-.931A33.819,33.819,0,0,0,102.282,54.4a33.2,33.2,0,0,0-14.313,3.215c-2.629-1.931-6.782-2.6-10.927-1.693a16.587,16.587,0,0,0-11.9,10.119c-5.776,14.17,3.418,25.336,3.813,25.806a1.288,1.288,0,0,0,1,.468c.021,0,.04-.007.061-.007a1.288,1.288,0,0,0,1.012-.557c1.7-2.467,4.7-4.2,7.876-6.035C83.533,83.04,88.785,80,91.755,73.845c3.479-7.223.477-12.089-1.623-14.353a30.606,30.606,0,0,1,12.151-2.481A31.191,31.191,0,0,1,131.266,76.958ZM89.4,72.711c-2.623,5.435-7.293,8.133-11.811,10.75C74.738,85.112,72.007,86.69,70,88.872c-2.107-3.154-6.6-11.65-2.439-21.843a13.833,13.833,0,0,1,10.043-8.556,14.257,14.257,0,0,1,3.051-.334,11.3,11.3,0,0,1,4.609.9A33.607,33.607,0,0,0,69.907,78.894a1.305,1.305,0,0,0,.9,1.611,1.242,1.242,0,0,0,.353.047,1.306,1.306,0,0,0,1.258-.952A30.976,30.976,0,0,1,87.672,60.688C89.152,61.98,92.66,65.956,89.4,72.711Z" transform="translate(-43.011 -37)" fill="none" stroke="#18604e" stroke-linecap="round" stroke-linejoin="round" stroke-width="3"/>
    <path id="Path_703" data-name="Path 703" d="M155.266,172.486c5.776-14.17-3.419-25.336-3.814-25.806a1.311,1.311,0,0,0-2.072.1c-1.7,2.467-4.7,4.2-7.876,6.035-4.63,2.677-9.882,5.715-12.852,11.872-3.479,7.224-.477,12.089,1.623,14.353a30.6,30.6,0,0,1-12.151,2.481,31.163,31.163,0,0,1-29.059-20.136,1.306,1.306,0,0,0-2.446.917,33.783,33.783,0,0,0,31.505,21.828,33.093,33.093,0,0,0,14.292-3.208,12.415,12.415,0,0,0,7.272,2.093,17.2,17.2,0,0,0,3.676-.407,16.588,16.588,0,0,0,11.9-10.119m-12.464,7.57a12.671,12.671,0,0,1-7.66-.564A33.641,33.641,0,0,0,150.5,159.634a1.306,1.306,0,1,0-2.514-.706,30.977,30.977,0,0,1-15.251,18.913c-1.481-1.293-4.988-5.268-1.733-12.024,2.624-5.435,7.293-8.133,11.811-10.75,2.855-1.651,5.586-3.229,7.592-5.411,2.107,3.154,6.6,11.65,2.439,21.843a13.833,13.833,0,0,1-10.043,8.556" transform="translate(-58.855 -99.445)" fill="#18604e"/>
    <path id="Path_704" data-name="Path 704" d="M155.266,172.486c5.776-14.17-3.419-25.336-3.814-25.806a1.311,1.311,0,0,0-2.072.1c-1.7,2.467-4.7,4.2-7.876,6.035-4.63,2.677-9.882,5.715-12.852,11.872-3.479,7.224-.477,12.089,1.623,14.353a30.6,30.6,0,0,1-12.151,2.481,31.163,31.163,0,0,1-29.059-20.136,1.306,1.306,0,0,0-2.446.917,33.783,33.783,0,0,0,31.505,21.828,33.093,33.093,0,0,0,14.292-3.208,12.415,12.415,0,0,0,7.272,2.093,17.2,17.2,0,0,0,3.676-.407A16.588,16.588,0,0,0,155.266,172.486Zm-12.464,7.57a12.671,12.671,0,0,1-7.66-.564A33.641,33.641,0,0,0,150.5,159.634a1.306,1.306,0,1,0-2.514-.706,30.977,30.977,0,0,1-15.251,18.913c-1.481-1.293-4.988-5.268-1.733-12.024,2.624-5.435,7.293-8.133,11.811-10.75,2.855-1.651,5.586-3.229,7.592-5.411,2.107,3.154,6.6,11.65,2.439,21.843A13.833,13.833,0,0,1,142.8,180.056Z" transform="translate(-58.855 -99.445)" fill="none" stroke="#18604e" stroke-linecap="round" stroke-linejoin="round" stroke-width="3"/>
    <path id="Path_705" data-name="Path 705" d="M162.6,125.338a1.309,1.309,0,0,0-.924.388l-10.759,10.757-4.071-4.071a1.347,1.347,0,0,0-1.848,0l-4.948,4.955a1.3,1.3,0,0,0,0,1.843l9.943,9.948a1.3,1.3,0,0,0,.924.381,1.285,1.285,0,0,0,.917-.381l16.637-16.635a1.309,1.309,0,0,0,0-1.85l-4.948-4.946a1.31,1.31,0,0,0-.924-.388m-11.683,21.054-8.1-8.1,3.105-3.105,4.071,4.071a1.3,1.3,0,0,0,1.841,0L162.6,128.492l3.105,3.105Z" transform="translate(-94.991 -85.244)" fill="#6fb440"/>
    <path id="Path_706" data-name="Path 706" d="M617.663,213.6a3.558,3.558,0,0,1-2.337-.724,2.779,2.779,0,0,1-.877-2.274V205.45h1.835v5a1.388,1.388,0,1,0,2.758,0v-5h1.835V210.6a3.218,3.218,0,0,1-.4,1.693,2.44,2.44,0,0,1-1.123.986,4.128,4.128,0,0,1-1.686.319" transform="translate(-417.895 -139.729)" fill="#6fb440"/>
    <path id="Path_707" data-name="Path 707" d="M637.181,220.484v-7.9h1.6v1.243l-.342-.388a2.315,2.315,0,0,1,.832-.712,2.363,2.363,0,0,1,1.094-.256,2.576,2.576,0,0,1,2.32,1.368,3.062,3.062,0,0,1,.359,1.5v.114a3.092,3.092,0,0,1-.353,1.51,2.557,2.557,0,0,1-.952,1,2.626,2.626,0,0,1-1.362.353,2.344,2.344,0,0,1-1.032-.228,2.478,2.478,0,0,1-.815-.627l.365-.41v3.431Zm2.907-3.659a1.238,1.238,0,0,0,.615-.16,1.173,1.173,0,0,0,.456-.467,1.509,1.509,0,0,0,.171-.741v-.114a1.534,1.534,0,0,0-.171-.752,1.177,1.177,0,0,0-.456-.467,1.242,1.242,0,0,0-.615-.16,1.367,1.367,0,0,0-.667.165,1.162,1.162,0,0,0-.473.484,1.648,1.648,0,0,0-.171.787,1.62,1.62,0,0,0,.171.775,1.158,1.158,0,0,0,.473.484,1.364,1.364,0,0,0,.667.165" transform="translate(-433.356 -144.505)" fill="#6fb440"/>
    <path id="Path_708" data-name="Path 708" d="M662.695,209.943h3.739v1.436h-3.739Zm2.792,5.619a3.273,3.273,0,0,1-.655-.068,1.686,1.686,0,0,1-.621-.262,1.4,1.4,0,0,1-.462-.547,2.065,2.065,0,0,1-.177-.923v-5.175h1.71V213.9a.233.233,0,0,0,.228.228h.924v1.436Z" transform="translate(-450.708 -141.862)" fill="#6fb440"/>
    <path id="Path_709" data-name="Path 709" d="M678.259,218.318a3.158,3.158,0,0,1-1.522-.365,2.751,2.751,0,0,1-1.071-1.014,2.825,2.825,0,0,1-.393-1.493v-.114a2.738,2.738,0,0,1,1.464-2.5,3.164,3.164,0,0,1,1.522-.364,3.13,3.13,0,0,1,1.516.364,2.747,2.747,0,0,1,1.459,2.5v.114a2.825,2.825,0,0,1-.393,1.493,2.758,2.758,0,0,1-1.066,1.014,3.124,3.124,0,0,1-1.516.365m0-1.493a1.257,1.257,0,0,0,.667-.177,1.194,1.194,0,0,0,.45-.49,1.545,1.545,0,0,0,.16-.712v-.114a1.513,1.513,0,0,0-.16-.707,1.207,1.207,0,0,0-.45-.485,1.259,1.259,0,0,0-.667-.177,1.228,1.228,0,0,0-.661.177,1.258,1.258,0,0,0-.45.485,1.472,1.472,0,0,0-.165.707v.114a1.5,1.5,0,0,0,.165.712,1.243,1.243,0,0,0,.45.49,1.226,1.226,0,0,0,.661.177" transform="translate(-459.263 -144.505)" fill="#6fb440"/>
    <path id="Path_710" data-name="Path 710" d="M403.684,107.173V87.6h6.821a8.583,8.583,0,0,1,3.732.755,5.69,5.69,0,0,1,2.446,2.153,6.926,6.926,0,0,1,0,6.709,5.6,5.6,0,0,1-2.446,2.139,8.721,8.721,0,0,1-3.732.741h-4.976V96.83H410.7a2.838,2.838,0,0,0,2.181-.839,2.993,2.993,0,0,0,.782-2.125,2.908,2.908,0,0,0-.782-2.083,2.866,2.866,0,0,0-2.181-.824H406l1.649-1.51v17.724Z" transform="translate(-274.551 -59.581)" fill="#18604e"/>
    <path id="Path_711" data-name="Path 711" d="M450.613,119.416v-13.7h3.606v4.193h-.475a5.6,5.6,0,0,1,.6-2.614,2.985,2.985,0,0,1,1.468-1.314,5.349,5.349,0,0,1,2.041-.377h1.063v3.662h-1.4a3.66,3.66,0,0,0-2.363.671,2.344,2.344,0,0,0-.824,1.929v7.548Z" transform="translate(-306.468 -71.824)" fill="#18604e"/>
    <path id="Path_712" data-name="Path 712" d="M483.58,119.34a7.535,7.535,0,0,1-3.676-.894,6.63,6.63,0,0,1-2.572-2.474,7.011,7.011,0,0,1-.936-3.648v-.28a6.887,6.887,0,0,1,.936-3.606,6.665,6.665,0,0,1,2.572-2.46,7.971,7.971,0,0,1,7.311-.014,6.565,6.565,0,0,1,2.558,2.46,6.966,6.966,0,0,1,.936,3.62v.28a7.017,7.017,0,0,1-.936,3.648,6.664,6.664,0,0,1-2.558,2.474,7.4,7.4,0,0,1-3.634.894m0-3.243a3.272,3.272,0,0,0,3.005-1.831,4.228,4.228,0,0,0,.433-1.943v-.28a4.143,4.143,0,0,0-.433-1.929,3.251,3.251,0,0,0-1.216-1.314,3.379,3.379,0,0,0-1.789-.476,3.286,3.286,0,0,0-1.8.489,3.511,3.511,0,0,0-1.217,1.314,3.955,3.955,0,0,0-.447,1.915v.28a4.119,4.119,0,0,0,.447,1.943,3.449,3.449,0,0,0,1.217,1.342,3.286,3.286,0,0,0,1.8.489" transform="translate(-324.004 -71.468)" fill="#18604e"/>
    <path id="Path_713" data-name="Path 713" d="M522.189,98.883h8.918v3.131h-8.918Zm6.681,13.7a7.439,7.439,0,0,1-1.565-.168,3.774,3.774,0,0,1-1.44-.643,3.458,3.458,0,0,1-1.062-1.286,4.767,4.767,0,0,1-.405-2.125v-12.8h3.718v13.111a.734.734,0,0,0,.238.559.768.768,0,0,0,.545.224h2.208v3.131Z" transform="translate(-355.148 -64.989)" fill="#18604e"/>
    <path id="Path_714" data-name="Path 714" d="M559.154,119.34a7.35,7.35,0,0,1-3.663-.881,6.25,6.25,0,0,1-2.446-2.474,7.506,7.506,0,0,1-.88-3.69v-.28a7.442,7.442,0,0,1,.824-3.523,6.37,6.37,0,0,1,2.306-2.488,6.474,6.474,0,0,1,3.494-.923,6.218,6.218,0,0,1,3.592,1.02,5.725,5.725,0,0,1,2.167,2.879,9.238,9.238,0,0,1,.336,4.375H554.849v-2.488h8.107l-1.677,1.258a4.915,4.915,0,0,0-.056-2.237,2.726,2.726,0,0,0-.909-1.411,2.364,2.364,0,0,0-1.5-.489,2.506,2.506,0,0,0-1.677.545,3.307,3.307,0,0,0-.964,1.44,6.008,6.008,0,0,0-.321,2.041v.7a3.9,3.9,0,0,0,.4,1.817,2.9,2.9,0,0,0,1.175,1.216,3.853,3.853,0,0,0,1.915.433,3.907,3.907,0,0,0,1.677-.307,4.364,4.364,0,0,0,1.2-.867l2.1,2.181a5.024,5.024,0,0,1-2.153,1.608,7.962,7.962,0,0,1-3.019.545" transform="translate(-375.535 -71.468)" fill="#18604e"/>
    <path id="Path_715" data-name="Path 715" d="M602.287,119.34a7.567,7.567,0,0,1-3.718-.894,6.654,6.654,0,0,1-2.558-2.475,6.955,6.955,0,0,1-.936-3.62v-.307a6.866,6.866,0,0,1,.95-3.634,6.689,6.689,0,0,1,2.572-2.446,7.6,7.6,0,0,1,3.69-.881,6.7,6.7,0,0,1,2.88.629,5.571,5.571,0,0,1,2.153,1.719l-2.264,2.264a3.166,3.166,0,0,0-1.23-.923,3.912,3.912,0,0,0-1.538-.307,3.736,3.736,0,0,0-1.789.433,3.145,3.145,0,0,0-1.272,1.244,3.784,3.784,0,0,0-.461,1.9v.307a3.673,3.673,0,0,0,.475,1.915,3.336,3.336,0,0,0,1.3,1.244,3.721,3.721,0,0,0,1.8.447,4.214,4.214,0,0,0,1.5-.28,3.659,3.659,0,0,0,1.356-.923l2.209,2.237a6,6,0,0,1-2.209,1.7,6.76,6.76,0,0,1-2.907.643" transform="translate(-404.719 -71.468)" fill="#18604e"/>
    <path id="Path_716" data-name="Path 716" d="M634.139,98.883h8.918v3.131h-8.918Zm6.681,13.7a7.439,7.439,0,0,1-1.565-.168,3.776,3.776,0,0,1-1.44-.643,3.458,3.458,0,0,1-1.062-1.286,4.766,4.766,0,0,1-.405-2.125v-12.8h3.718v13.111a.734.734,0,0,0,.238.559.768.768,0,0,0,.545.224h2.209v3.131Z" transform="translate(-431.287 -64.989)" fill="#18604e"/>
    <path id="Path_717" data-name="Path 717" d="M666.49,105.805V93.589l1.677,1.649h-4.054V92.107h6.094v13.7Zm-.168-20.212H670.4v3.914h-4.081Z" transform="translate(-451.673 -58.213)" fill="#18604e"/>
    <path id="Path_718" data-name="Path 718" d="M695.77,119.34a7.533,7.533,0,0,1-3.676-.894,6.628,6.628,0,0,1-2.572-2.474,7.011,7.011,0,0,1-.936-3.648v-.28a6.887,6.887,0,0,1,.936-3.606,6.664,6.664,0,0,1,2.572-2.46,7.971,7.971,0,0,1,7.31-.014,6.565,6.565,0,0,1,2.558,2.46,6.966,6.966,0,0,1,.936,3.62v.28a7.017,7.017,0,0,1-.936,3.648,6.665,6.665,0,0,1-2.558,2.474,7.4,7.4,0,0,1-3.634.894m0-3.243a3.272,3.272,0,0,0,3.005-1.831,4.228,4.228,0,0,0,.433-1.943v-.28a4.142,4.142,0,0,0-.433-1.929,3.252,3.252,0,0,0-1.216-1.314,3.381,3.381,0,0,0-1.789-.476,3.285,3.285,0,0,0-1.8.489,3.51,3.51,0,0,0-1.217,1.314,3.955,3.955,0,0,0-.447,1.915v.28a4.119,4.119,0,0,0,.447,1.943,3.448,3.448,0,0,0,1.217,1.342,3.285,3.285,0,0,0,1.8.489" transform="translate(-468.317 -71.468)" fill="#18604e"/>
    <path id="Path_719" data-name="Path 719" d="M738.746,119.06v-13.7h3.579v3.8h-.979a5.719,5.719,0,0,1,.839-2.083,4.221,4.221,0,0,1,1.286-1.23,5.035,5.035,0,0,1,1.468-.6,6.087,6.087,0,0,1,1.328-.168,4.759,4.759,0,0,1,3.7,1.524,6.114,6.114,0,0,1,1.384,4.263v8.191h-3.718v-7.6a3.29,3.29,0,0,0-.657-2.293,2.321,2.321,0,0,0-1.775-.7,2.781,2.781,0,0,0-1.4.349,2.5,2.5,0,0,0-.979,1.035,3.638,3.638,0,0,0-.364,1.719v7.492Z" transform="translate(-502.432 -71.468)" fill="#18604e"/>
    <path id="Path_720" data-name="Path 720" d="M413.832,187.977a10.558,10.558,0,0,1-3.969-.741,9.869,9.869,0,0,1-3.229-2.082,9.656,9.656,0,0,1-2.167-3.173,10.176,10.176,0,0,1-.782-4.04v-.335a10.179,10.179,0,0,1,.782-4.04,9.66,9.66,0,0,1,2.167-3.173,9.885,9.885,0,0,1,3.229-2.082,10.558,10.558,0,0,1,3.969-.741,10,10,0,0,1,3.662.643,9.342,9.342,0,0,1,2.935,1.817l-2.516,2.991a5.706,5.706,0,0,0-4.081-1.593,6.487,6.487,0,0,0-2.432.447,5.65,5.65,0,0,0-3.215,3.229,6.753,6.753,0,0,0-.447,2.5v.335a6.75,6.75,0,0,0,.447,2.5,5.65,5.65,0,0,0,3.215,3.229,6.475,6.475,0,0,0,2.432.447,5.7,5.7,0,0,0,4.193-1.705l2.544,2.963a9.963,9.963,0,0,1-3.047,1.915,9.817,9.817,0,0,1-3.691.685" transform="translate(-274.551 -113.966)" fill="#18604e"/>
    <path id="Path_721" data-name="Path 721" d="M456.968,202.5l-6.094-15.264h4.138l4.165,11.462Zm-5.2,4.026v-3.131h3.159a.651.651,0,0,0,.433-.154.9.9,0,0,0,.266-.377L458,197.883l3.439-10.651h4.137l-6.234,15.8a9.962,9.962,0,0,1-.811,1.593,4.16,4.16,0,0,1-1.4,1.356,4.662,4.662,0,0,1-2.432.545Z" transform="translate(-306.646 -127.339)" fill="#18604e"/>
    <path id="Path_722" data-name="Path 722" d="M503.183,200.616a7.568,7.568,0,0,1-3.718-.894,6.654,6.654,0,0,1-2.558-2.475,6.956,6.956,0,0,1-.936-3.62v-.307a6.865,6.865,0,0,1,.95-3.634,6.689,6.689,0,0,1,2.572-2.446,7.6,7.6,0,0,1,3.69-.881,6.7,6.7,0,0,1,2.88.629,5.572,5.572,0,0,1,2.152,1.719l-2.264,2.264a3.165,3.165,0,0,0-1.23-.923,3.912,3.912,0,0,0-1.538-.307,3.736,3.736,0,0,0-1.789.433,3.144,3.144,0,0,0-1.272,1.244,3.784,3.784,0,0,0-.461,1.9v.307a3.673,3.673,0,0,0,.475,1.915,3.336,3.336,0,0,0,1.3,1.244,3.721,3.721,0,0,0,1.8.447,4.213,4.213,0,0,0,1.5-.28,3.659,3.659,0,0,0,1.356-.923l2.209,2.237a6,6,0,0,1-2.209,1.7,6.76,6.76,0,0,1-2.907.643" transform="translate(-337.317 -126.745)" fill="#18604e"/>
    <path id="Path_723" data-name="Path 723" d="M538.406,186.666a4.511,4.511,0,0,1-3.117-1.034,3.693,3.693,0,0,1-1.16-2.907V167.74l1.65,1.649h-3.8v-3.131h5.871v16.55a.77.77,0,0,0,.224.545.735.735,0,0,0,.559.238h1.509v3.075Z" transform="translate(-361.804 -113.074)" fill="#18604e"/>
    <path id="Path_724" data-name="Path 724" d="M565.533,200.616a7.35,7.35,0,0,1-3.663-.881,6.25,6.25,0,0,1-2.446-2.474,7.507,7.507,0,0,1-.88-3.69v-.28a7.443,7.443,0,0,1,.824-3.523,6.37,6.37,0,0,1,2.306-2.488,6.475,6.475,0,0,1,3.495-.923,6.218,6.218,0,0,1,3.592,1.02,5.725,5.725,0,0,1,2.167,2.879,9.237,9.237,0,0,1,.336,4.375H561.228v-2.488h8.107l-1.677,1.258a4.913,4.913,0,0,0-.056-2.237,2.724,2.724,0,0,0-.909-1.411,2.364,2.364,0,0,0-1.5-.489,2.506,2.506,0,0,0-1.677.545,3.307,3.307,0,0,0-.964,1.44,6.008,6.008,0,0,0-.321,2.041v.7a3.9,3.9,0,0,0,.4,1.817,2.9,2.9,0,0,0,1.175,1.216,3.853,3.853,0,0,0,1.915.433,3.908,3.908,0,0,0,1.677-.307,4.365,4.365,0,0,0,1.2-.867l2.1,2.181a5.024,5.024,0,0,1-2.153,1.608,7.962,7.962,0,0,1-3.019.545" transform="translate(-379.874 -126.745)" fill="#18604e"/>
  </g>
</svg>
