<svg id="Group_122" data-name="Group 122" xmlns="http://www.w3.org/2000/svg" xmlns:xlink="http://www.w3.org/1999/xlink" width="229.5" height="182.301" viewBox="0 0 229.5 182.301">
  <defs>
    <clipPath id="clip-path">
      <rect id="Rectangle_89" data-name="Rectangle 89" width="229.5" height="182.301" fill="none"/>
    </clipPath>
  </defs>
  <g id="Group_121" data-name="Group 121" clip-path="url(#clip-path)">
    <path id="Path_725" data-name="Path 725" d="M206.07,0H23.429A23.456,23.456,0,0,0,0,23.43V158.871A23.456,23.456,0,0,0,23.429,182.3H206.07a23.456,23.456,0,0,0,23.43-23.43V23.43A23.456,23.456,0,0,0,206.07,0" transform="translate(0)" fill="#d2d548"/>
    <path id="Path_726" data-name="Path 726" d="M365.6,279.419a.627.627,0,1,1,.631.627.63.63,0,0,1-.631-.627m0-4.2a.627.627,0,1,1,.631.627.63.63,0,0,1-.631-.627m0-4.2a.627.627,0,1,1,.631.627.63.63,0,0,1-.631-.627m0-4.205a.627.627,0,1,1,.631.631.633.633,0,0,1-.631-.631m0-4.2a.627.627,0,1,1,1.254,0,.627.627,0,1,1-1.254,0m0-4.2a.627.627,0,1,1,.631.627.626.626,0,0,1-.631-.627m0-4.2a.627.627,0,1,1,.631.627.63.63,0,0,1-.631-.627m0-4.2a.627.627,0,1,1,.631.627.63.63,0,0,1-.631-.627m0-4.2a.627.627,0,1,1,.631.627.63.63,0,0,1-.631-.627m0-4.2a.627.627,0,1,1,.631.627.629.629,0,0,1-.631-.627m0-4.2a.627.627,0,1,1,.631.627.63.63,0,0,1-.631-.627m0-4.2a.627.627,0,1,1,.631.627.63.63,0,0,1-.631-.627m0-4.2a.627.627,0,1,1,.631.627A.63.63,0,0,1,365.6,229m0-4.2a.627.627,0,1,1,.631.627.63.63,0,0,1-.631-.627m0-4.2a.627.627,0,1,1,1.254,0,.627.627,0,1,1-1.254,0m0-4.206a.627.627,0,1,1,.631.627.629.629,0,0,1-.631-.627m0-4.2a.627.627,0,1,1,.631.631.632.632,0,0,1-.631-.631m0-4.2a.627.627,0,1,1,.631.627.63.63,0,0,1-.631-.627m0-4.2a.627.627,0,1,1,.631.627.63.63,0,0,1-.631-.627m0-4.2a.627.627,0,1,1,.631.627.63.63,0,0,1-.631-.627m0-4.2a.627.627,0,1,1,.631.627.63.63,0,0,1-.631-.627m0-4.2a.627.627,0,1,1,.631.627.63.63,0,0,1-.631-.627m0-4.2a.627.627,0,1,1,.631.627.63.63,0,0,1-.631-.627" transform="translate(-229.221 -116.844)" fill="#fff"/>
    <path id="Path_727" data-name="Path 727" d="M142.187,233.08a1.522,1.522,0,0,0,2.844-1.085,39.436,39.436,0,0,0-36.643-25.217,38.7,38.7,0,0,0-16.69,3.749c-3.065-2.252-7.908-3.035-12.742-1.974a19.342,19.342,0,0,0-13.876,11.8c-6.736,16.524,3.986,29.544,4.447,30.092a1.5,1.5,0,0,0,1.165.546c.024,0,.047-.008.071-.008a1.5,1.5,0,0,0,1.181-.649c1.982-2.877,5.476-4.9,9.184-7.037,5.4-3.123,11.523-6.665,14.986-13.844,4.057-8.423.556-14.1-1.893-16.737a35.69,35.69,0,0,1,14.169-2.893,36.372,36.372,0,0,1,33.8,23.259m-48.815-4.952c-3.059,6.338-8.5,9.484-13.773,12.535-3.329,1.926-6.514,3.765-8.853,6.31-2.457-3.678-7.695-13.585-2.844-25.471a16.131,16.131,0,0,1,11.712-9.977,16.624,16.624,0,0,1,3.558-.389,13.183,13.183,0,0,1,5.374,1.055,39.189,39.189,0,0,0-17.909,23.148,1.522,1.522,0,0,0,1.053,1.879,1.448,1.448,0,0,0,.412.055,1.524,1.524,0,0,0,1.467-1.11,36.123,36.123,0,0,1,17.784-22.054c1.726,1.507,5.816,6.143,2.021,14.021" transform="translate(-39.414 -129.646)" fill="#18604e"/>
    <path id="Path_728" data-name="Path 728" d="M142.187,233.08a1.522,1.522,0,0,0,2.844-1.085,39.436,39.436,0,0,0-36.643-25.217,38.7,38.7,0,0,0-16.69,3.749c-3.065-2.252-7.908-3.035-12.742-1.974a19.342,19.342,0,0,0-13.876,11.8c-6.736,16.524,3.986,29.544,4.447,30.092a1.5,1.5,0,0,0,1.165.546c.024,0,.047-.008.071-.008a1.5,1.5,0,0,0,1.181-.649c1.982-2.877,5.476-4.9,9.184-7.037,5.4-3.123,11.523-6.665,14.986-13.844,4.057-8.423.556-14.1-1.893-16.737a35.69,35.69,0,0,1,14.169-2.893A36.372,36.372,0,0,1,142.187,233.08Zm-48.815-4.952c-3.059,6.338-8.5,9.484-13.773,12.535-3.329,1.926-6.514,3.765-8.853,6.31-2.457-3.678-7.695-13.585-2.844-25.471a16.131,16.131,0,0,1,11.712-9.977,16.624,16.624,0,0,1,3.558-.389,13.183,13.183,0,0,1,5.374,1.055,39.189,39.189,0,0,0-17.909,23.148,1.522,1.522,0,0,0,1.053,1.879,1.448,1.448,0,0,0,.412.055,1.524,1.524,0,0,0,1.467-1.11,36.123,36.123,0,0,1,17.784-22.054C93.078,215.615,97.168,220.251,93.372,228.128Z" transform="translate(-39.414 -129.646)" fill="none" stroke="#18604e" stroke-linecap="round" stroke-linejoin="round" stroke-width="3"/>
    <path id="Path_729" data-name="Path 729" d="M166.3,329.225c6.735-16.524-3.987-29.544-4.447-30.092a1.529,1.529,0,0,0-2.416.112c-1.982,2.877-5.476,4.9-9.184,7.038-5.4,3.122-11.523,6.664-14.986,13.844-4.057,8.424-.556,14.1,1.893,16.737a35.684,35.684,0,0,1-14.169,2.893,36.34,36.34,0,0,1-33.886-23.48,1.523,1.523,0,0,0-2.852,1.069A39.394,39.394,0,0,0,122.995,342.8a38.587,38.587,0,0,0,16.666-3.741,14.479,14.479,0,0,0,8.48,2.44,20.061,20.061,0,0,0,4.287-.474,19.344,19.344,0,0,0,13.877-11.8m-14.534,8.827a14.776,14.776,0,0,1-8.933-.657,39.229,39.229,0,0,0,17.91-23.156,1.523,1.523,0,1,0-2.932-.824,36.122,36.122,0,0,1-17.784,22.054c-1.727-1.507-5.816-6.143-2.021-14.021,3.059-6.338,8.5-9.484,13.773-12.535,3.329-1.926,6.514-3.765,8.853-6.31,2.457,3.678,7.695,13.585,2.844,25.471a16.131,16.131,0,0,1-11.712,9.977" transform="translate(-54.021 -187.213)" fill="#18604e"/>
    <path id="Path_730" data-name="Path 730" d="M166.3,329.225c6.735-16.524-3.987-29.544-4.447-30.092a1.529,1.529,0,0,0-2.416.112c-1.982,2.877-5.476,4.9-9.184,7.038-5.4,3.122-11.523,6.664-14.986,13.844-4.057,8.424-.556,14.1,1.893,16.737a35.684,35.684,0,0,1-14.169,2.893,36.34,36.34,0,0,1-33.886-23.48,1.523,1.523,0,0,0-2.852,1.069A39.394,39.394,0,0,0,122.995,342.8a38.587,38.587,0,0,0,16.666-3.741,14.479,14.479,0,0,0,8.48,2.44,20.061,20.061,0,0,0,4.287-.474A19.344,19.344,0,0,0,166.3,329.225Zm-14.534,8.827a14.776,14.776,0,0,1-8.933-.657,39.229,39.229,0,0,0,17.91-23.156,1.523,1.523,0,1,0-2.932-.824,36.122,36.122,0,0,1-17.784,22.054c-1.727-1.507-5.816-6.143-2.021-14.021,3.059-6.338,8.5-9.484,13.773-12.535,3.329-1.926,6.514-3.765,8.853-6.31,2.457,3.678,7.695,13.585,2.844,25.471A16.131,16.131,0,0,1,151.77,338.052Z" transform="translate(-54.021 -187.213)" fill="none" stroke="#18604e" stroke-linecap="round" stroke-linejoin="round" stroke-width="3"/>
    <path id="Path_731" data-name="Path 731" d="M166.031,277.714a1.526,1.526,0,0,0-1.077.452L152.408,290.71l-4.747-4.747a1.571,1.571,0,0,0-2.155,0l-5.77,5.778a1.518,1.518,0,0,0,0,2.149l11.594,11.6a1.521,1.521,0,0,0,1.077.444,1.5,1.5,0,0,0,1.069-.444l19.4-19.4a1.527,1.527,0,0,0,0-2.157l-5.769-5.768a1.527,1.527,0,0,0-1.077-.452m-13.623,24.551-9.446-9.448,3.621-3.621,4.747,4.747a1.515,1.515,0,0,0,2.146,0l12.554-12.552,3.621,3.621Z" transform="translate(-87.333 -174.122)" fill="#6fb440"/>
    <path id="Path_732" data-name="Path 732" d="M465.674,258.356a15.12,15.12,0,0,0-4.816-5.007,15.576,15.576,0,0,0,3.379-4,17.183,17.183,0,0,0,2.346-8.84,15.919,15.919,0,0,0-2.713-9.181,17.647,17.647,0,0,0-7.546-6.1A27.239,27.239,0,0,0,445.2,223.1a29.713,29.713,0,0,0-11.358,2.211,27.848,27.848,0,0,0-9.38,6.3.783.783,0,0,0-.043,1.049l7.514,9.034a.782.782,0,0,0,.592.282.791.791,0,0,0,.6-.266,17.952,17.952,0,0,1,5.257-4.169,13.67,13.67,0,0,1,6.312-1.475,8.112,8.112,0,0,1,5.44,1.667,5.547,5.547,0,0,1,1.881,4.472,5.267,5.267,0,0,1-.843,2.989,5.565,5.565,0,0,1-2.34,2,8.223,8.223,0,0,1-3.548.726h-8.1a.783.783,0,0,0-.783.783v11.4a.784.784,0,0,0,.783.784h9.2a7.949,7.949,0,0,1,5.006,1.48,4.72,4.72,0,0,1,1.81,3.983,5.574,5.574,0,0,1-.995,3.345,6.633,6.633,0,0,1-2.915,2.222,12.348,12.348,0,0,1-4.762.826,15.177,15.177,0,0,1-6.466-1.363,21.518,21.518,0,0,1-5.821-4.157.783.783,0,0,0-1.149.062l-7.345,8.865a.783.783,0,0,0,.056,1.06,29.02,29.02,0,0,0,9.2,6.116,32.042,32.042,0,0,0,23.408-.174,20.41,20.41,0,0,0,8.421-6.457,15.953,15.953,0,0,0,3.11-9.754,16.889,16.889,0,0,0-2.259-8.582" transform="translate(-265.565 -139.878)" fill="#18604e"/>
    <path id="Path_733" data-name="Path 733" d="M433.225,407.288h-1.173l3.35-5.845h3.22l-4.485,7.743v5.286h-3v-5.286l-4.485-7.743h3.22Z" transform="translate(-267.505 -251.698)" fill="#18604e"/>
    <path id="Path_734" data-name="Path 734" d="M457.689,420.822a4.948,4.948,0,0,1-2.448-.586,4.208,4.208,0,0,1-1.647-1.648,4.963,4.963,0,0,1-.6-2.476v-.185a4.95,4.95,0,0,1,.558-2.355,4.268,4.268,0,0,1,3.909-2.3,4.246,4.246,0,0,1,2.466.7,3.916,3.916,0,0,1,1.47,1.964,6.329,6.329,0,0,1,.232,2.978h-6.626v-1.805h5.156l-1.247.894a3.217,3.217,0,0,0-.009-1.405,1.631,1.631,0,0,0-.53-.866,1.389,1.389,0,0,0-.894-.3,1.452,1.452,0,0,0-1,.335,1.934,1.934,0,0,0-.559.893,4.211,4.211,0,0,0-.176,1.266v.558a2.281,2.281,0,0,0,.233,1.052,1.633,1.633,0,0,0,.7.707,2.4,2.4,0,0,0,1.155.251,2.34,2.34,0,0,0,1.079-.214,2.941,2.941,0,0,0,.763-.586l1.581,1.619a3.471,3.471,0,0,1-1.488,1.135,5.489,5.489,0,0,1-2.084.372" transform="translate(-284.022 -257.861)" fill="#18604e"/>
    <path id="Path_735" data-name="Path 735" d="M480.867,420.823a3.714,3.714,0,0,1-2.447-.763,2.424,2.424,0,0,1-.921-1.954,2.522,2.522,0,0,1,.438-1.471,2.889,2.889,0,0,1,1.284-1,5.222,5.222,0,0,1,2.057-.363,3.665,3.665,0,0,1,2.5.727,2.471,2.471,0,0,1,.81,1.935h-.819a3,3,0,0,1-.707,2.131,2.882,2.882,0,0,1-2.2.754m2.513-.186v-2.7l-.335-1.061v-1.954a1.067,1.067,0,0,0-.429-.968,1.867,1.867,0,0,0-1.043-.279,4.1,4.1,0,0,0-1.349.251,4.282,4.282,0,0,0-1.257.68l-1.228-1.843a4.529,4.529,0,0,1,1.7-1.07,6.4,6.4,0,0,1,2.318-.419,5.036,5.036,0,0,1,2.093.409,3.349,3.349,0,0,1,1.424,1.182,3.3,3.3,0,0,1,.521,1.889v3c0,.484,0,.965.009,1.442s.021.958.046,1.442Zm-1.713-1.824a1.889,1.889,0,0,0,1.006-.242.724.724,0,0,0,.391-.633.712.712,0,0,0-.391-.614,1.889,1.889,0,0,0-1.006-.242,1.842,1.842,0,0,0-.986.242.711.711,0,0,0-.392.614.723.723,0,0,0,.392.633,1.842,1.842,0,0,0,.986.242" transform="translate(-299.383 -257.862)" fill="#18604e"/>
    <path id="Path_736" data-name="Path 736" d="M503.844,420.792v-9.176h2.7v2.96h-.335a3.888,3.888,0,0,1,.363-1.842,2.031,2.031,0,0,1,.986-.94,3.454,3.454,0,0,1,1.387-.27h.707v2.755H508.7a2.438,2.438,0,0,0-1.536.419,1.4,1.4,0,0,0-.53,1.163v4.932Z" transform="translate(-315.901 -258.018)" fill="#18604e"/>
    <path id="Path_737" data-name="Path 737" d="M522.829,420.785a6.371,6.371,0,0,1-3.666-1.1l1.172-1.88a8.1,8.1,0,0,0,1.219.595,3.484,3.484,0,0,0,1.275.242,1.557,1.557,0,0,0,.8-.177.533.533,0,0,0,.3-.474.52.52,0,0,0-.316-.494,3.955,3.955,0,0,0-.81-.279q-.492-.12-1.051-.279a4.464,4.464,0,0,1-1.052-.447,2.268,2.268,0,0,1-.81-.819,2.721,2.721,0,0,1-.316-1.405,2.689,2.689,0,0,1,1-2.159,4.134,4.134,0,0,1,2.745-.838,6.776,6.776,0,0,1,1.786.233,5.471,5.471,0,0,1,1.526.661l-1.191,1.861a4.72,4.72,0,0,0-1.07-.484,3.711,3.711,0,0,0-1.088-.168,1.415,1.415,0,0,0-.763.177.54.54,0,0,0-.279.475.523.523,0,0,0,.325.483,3.726,3.726,0,0,0,.838.289q.512.121,1.079.289a4.63,4.63,0,0,1,1.079.474,2.454,2.454,0,0,1,.837.837,2.661,2.661,0,0,1,.326,1.406,2.505,2.505,0,0,1-.5,1.544,3.343,3.343,0,0,1-1.377,1.052,5,5,0,0,1-2.01.382" transform="translate(-325.506 -257.861)" fill="#18604e"/>
    <path id="Path_738" data-name="Path 738" d="M452.2,195.151a3.555,3.555,0,0,1-2.335-.723,2.777,2.777,0,0,1-.877-2.272v-5.148h1.834v5a1.387,1.387,0,1,0,2.757,0v-5h1.833v5.148a3.219,3.219,0,0,1-.4,1.692,2.444,2.444,0,0,1-1.122.986,4.127,4.127,0,0,1-1.686.319" transform="translate(-281.509 -117.25)" fill="#18604e"/>
    <path id="Path_739" data-name="Path 739" d="M468.472,201.031v-7.894h1.6v1.242l-.342-.388a2.313,2.313,0,0,1,.832-.711,2.36,2.36,0,0,1,1.093-.256,2.574,2.574,0,0,1,2.318,1.367,3.057,3.057,0,0,1,.358,1.5v.113a3.09,3.09,0,0,1-.353,1.51,2.559,2.559,0,0,1-.951,1,2.627,2.627,0,0,1-1.361.353,2.342,2.342,0,0,1-1.031-.228,2.466,2.466,0,0,1-.814-.626l.364-.41v3.428Zm2.9-3.656a1.235,1.235,0,0,0,.615-.16,1.171,1.171,0,0,0,.456-.467,1.5,1.5,0,0,0,.171-.74v-.113a1.531,1.531,0,0,0-.171-.752,1.176,1.176,0,0,0-.456-.467,1.239,1.239,0,0,0-.615-.16,1.362,1.362,0,0,0-.667.166,1.164,1.164,0,0,0-.473.484,1.652,1.652,0,0,0-.17.786,1.623,1.623,0,0,0,.17.774,1.163,1.163,0,0,0,.473.484,1.362,1.362,0,0,0,.667.165" transform="translate(-293.724 -121.023)" fill="#18604e"/>
    <path id="Path_740" data-name="Path 740" d="M490.336,191.05h3.736v1.435h-3.736Zm2.791,5.615a3.285,3.285,0,0,1-.655-.068,1.688,1.688,0,0,1-.62-.262,1.4,1.4,0,0,1-.461-.547,2.058,2.058,0,0,1-.177-.922v-5.172h1.709V195a.233.233,0,0,0,.228.228h.923v1.435Z" transform="translate(-307.432 -118.935)" fill="#18604e"/>
    <path id="Path_741" data-name="Path 741" d="M504.1,198.867a3.155,3.155,0,0,1-1.52-.364,2.754,2.754,0,0,1-1.071-1.014,2.824,2.824,0,0,1-.393-1.492v-.114a2.735,2.735,0,0,1,1.464-2.495,3.159,3.159,0,0,1,1.52-.364,3.127,3.127,0,0,1,1.515.364,2.744,2.744,0,0,1,1.458,2.495V196a2.824,2.824,0,0,1-.393,1.492,2.762,2.762,0,0,1-1.065,1.014,3.123,3.123,0,0,1-1.515.364m0-1.492a1.253,1.253,0,0,0,.667-.177,1.19,1.19,0,0,0,.45-.49,1.545,1.545,0,0,0,.159-.712v-.114a1.513,1.513,0,0,0-.159-.706,1.2,1.2,0,0,0-.45-.484,1.256,1.256,0,0,0-.667-.177,1.227,1.227,0,0,0-.661.177,1.255,1.255,0,0,0-.45.484,1.471,1.471,0,0,0-.165.706V196a1.5,1.5,0,0,0,.165.712,1.24,1.24,0,0,0,.45.49,1.224,1.224,0,0,0,.661.177" transform="translate(-314.189 -121.023)" fill="#18604e"/>
    <path id="Path_742" data-name="Path 742" d="M60.5,78.773V59.383h6.759a8.5,8.5,0,0,1,3.7.748,5.633,5.633,0,0,1,2.424,2.133,6.863,6.863,0,0,1,0,6.648,5.539,5.539,0,0,1-2.424,2.119,8.628,8.628,0,0,1-3.7.734H62.324V68.524h5.124a2.811,2.811,0,0,0,2.161-.831,2.964,2.964,0,0,0,.775-2.105,2.88,2.88,0,0,0-.775-2.064,2.839,2.839,0,0,0-2.161-.817H62.795l1.635-1.5V78.773Z" transform="translate(-37.93 -37.232)" fill="#18604e"/>
    <path id="Path_743" data-name="Path 743" d="M99.853,88.364V74.791h3.573v4.155h-.471a5.561,5.561,0,0,1,.6-2.59,2.959,2.959,0,0,1,1.454-1.3,5.287,5.287,0,0,1,2.022-.374h1.053v3.628h-1.385a3.626,3.626,0,0,0-2.341.665,2.322,2.322,0,0,0-.817,1.911v7.479Z" transform="translate(-62.606 -46.824)" fill="#18604e"/>
    <path id="Path_744" data-name="Path 744" d="M128.359,88.362a7.461,7.461,0,0,1-3.643-.887,6.565,6.565,0,0,1-2.548-2.451,6.944,6.944,0,0,1-.928-3.615v-.277a6.822,6.822,0,0,1,.928-3.574,6.607,6.607,0,0,1,2.548-2.438,7.9,7.9,0,0,1,7.244-.014,6.505,6.505,0,0,1,2.535,2.438,6.905,6.905,0,0,1,.928,3.587v.277a6.954,6.954,0,0,1-.928,3.615,6.6,6.6,0,0,1-2.535,2.451,7.326,7.326,0,0,1-3.6.887m0-3.213a3.245,3.245,0,0,0,2.978-1.814,4.193,4.193,0,0,0,.429-1.925v-.277a4.109,4.109,0,0,0-.429-1.912,3.225,3.225,0,0,0-1.205-1.3,3.347,3.347,0,0,0-1.773-.471,3.258,3.258,0,0,0-1.787.485,3.486,3.486,0,0,0-1.2,1.3,3.922,3.922,0,0,0-.443,1.9v.277a4.083,4.083,0,0,0,.443,1.925,3.424,3.424,0,0,0,1.2,1.329,3.255,3.255,0,0,0,1.787.485" transform="translate(-76.016 -46.544)" fill="#18604e"/>
    <path id="Path_745" data-name="Path 745" d="M159.632,69.437h8.836v3.1h-8.836Zm6.62,13.573a7.38,7.38,0,0,1-1.551-.166,3.747,3.747,0,0,1-1.426-.637,3.416,3.416,0,0,1-1.053-1.275,4.714,4.714,0,0,1-.4-2.1V66.141H165.5V79.132a.728.728,0,0,0,.236.554.761.761,0,0,0,.54.222h2.188v3.1Z" transform="translate(-100.086 -41.469)" fill="#18604e"/>
    <path id="Path_746" data-name="Path 746" d="M191.508,88.361a7.277,7.277,0,0,1-3.629-.873,6.187,6.187,0,0,1-2.424-2.451,7.436,7.436,0,0,1-.872-3.656V81.1a7.372,7.372,0,0,1,.817-3.49,6.313,6.313,0,0,1,2.285-2.465,6.416,6.416,0,0,1,3.463-.914,6.165,6.165,0,0,1,3.559,1.011,5.678,5.678,0,0,1,2.147,2.853,9.146,9.146,0,0,1,.332,4.335h-9.944V79.968h8.033l-1.662,1.247A4.874,4.874,0,0,0,193.557,79a2.706,2.706,0,0,0-.9-1.4,2.342,2.342,0,0,0-1.482-.485,2.483,2.483,0,0,0-1.662.541,3.271,3.271,0,0,0-.955,1.426,5.955,5.955,0,0,0-.319,2.022V81.8a3.858,3.858,0,0,0,.4,1.8A2.868,2.868,0,0,0,189.8,84.8a3.817,3.817,0,0,0,1.9.429,3.873,3.873,0,0,0,1.662-.3,4.323,4.323,0,0,0,1.191-.859l2.077,2.161a4.967,4.967,0,0,1-2.133,1.593,7.882,7.882,0,0,1-2.992.54" transform="translate(-115.73 -46.543)" fill="#18604e"/>
    <path id="Path_747" data-name="Path 747" d="M227.67,88.361a7.5,7.5,0,0,1-3.684-.887,6.592,6.592,0,0,1-2.535-2.451,6.9,6.9,0,0,1-.928-3.587v-.3a6.8,6.8,0,0,1,.941-3.6,6.626,6.626,0,0,1,2.548-2.424,7.539,7.539,0,0,1,3.657-.872,6.644,6.644,0,0,1,2.853.623,5.516,5.516,0,0,1,2.133,1.7L230.412,78.8a3.128,3.128,0,0,0-1.219-.914,3.87,3.87,0,0,0-1.523-.3,3.7,3.7,0,0,0-1.773.429,3.121,3.121,0,0,0-1.26,1.232,3.747,3.747,0,0,0-.457,1.884v.3a3.636,3.636,0,0,0,.471,1.9,3.3,3.3,0,0,0,1.288,1.232,3.681,3.681,0,0,0,1.786.443,4.162,4.162,0,0,0,1.482-.277,3.64,3.64,0,0,0,1.344-.914l2.188,2.216a5.953,5.953,0,0,1-2.188,1.69,6.7,6.7,0,0,1-2.881.637" transform="translate(-138.264 -46.543)" fill="#18604e"/>
    <path id="Path_748" data-name="Path 748" d="M253.2,69.437h8.836v3.1H253.2Zm6.62,13.573a7.38,7.38,0,0,1-1.551-.166,3.747,3.747,0,0,1-1.426-.637,3.416,3.416,0,0,1-1.053-1.275,4.714,4.714,0,0,1-.4-2.1V66.141h3.684V79.132a.728.728,0,0,0,.236.554.761.761,0,0,0,.54.222h2.188v3.1Z" transform="translate(-158.749 -41.469)" fill="#18604e"/>
    <path id="Path_749" data-name="Path 749" d="M280.5,77.7V65.6l1.662,1.634h-4.016v-3.1h6.038V77.7Zm-.166-20.027h4.044v3.878h-4.044Z" transform="translate(-174.393 -36.161)" fill="#18604e"/>
    <path id="Path_750" data-name="Path 750" d="M305.538,88.362a7.462,7.462,0,0,1-3.643-.887,6.565,6.565,0,0,1-2.548-2.451,6.944,6.944,0,0,1-.928-3.615v-.277a6.822,6.822,0,0,1,.928-3.574,6.608,6.608,0,0,1,2.548-2.438,7.9,7.9,0,0,1,7.244-.014,6.506,6.506,0,0,1,2.535,2.438,6.9,6.9,0,0,1,.928,3.587v.277a6.954,6.954,0,0,1-.928,3.615,6.6,6.6,0,0,1-2.535,2.451,7.326,7.326,0,0,1-3.6.887m0-3.213a3.243,3.243,0,0,0,2.978-1.814,4.188,4.188,0,0,0,.429-1.925v-.277a4.1,4.1,0,0,0-.429-1.912,3.221,3.221,0,0,0-1.2-1.3,3.347,3.347,0,0,0-1.773-.471,3.258,3.258,0,0,0-1.787.485,3.486,3.486,0,0,0-1.2,1.3,3.922,3.922,0,0,0-.443,1.9v.277a4.084,4.084,0,0,0,.443,1.925,3.425,3.425,0,0,0,1.2,1.329,3.255,3.255,0,0,0,1.787.485" transform="translate(-187.104 -46.544)" fill="#18604e"/>
    <path id="Path_751" data-name="Path 751" d="M340.523,88.084V74.511h3.546v3.767H343.1a5.66,5.66,0,0,1,.831-2.064A4.186,4.186,0,0,1,345.2,75a4.985,4.985,0,0,1,1.454-.595,6,6,0,0,1,1.316-.167,4.716,4.716,0,0,1,3.67,1.51,6.058,6.058,0,0,1,1.371,4.224v8.116h-3.684V80.55a3.257,3.257,0,0,0-.651-2.271,2.3,2.3,0,0,0-1.759-.693,2.751,2.751,0,0,0-1.385.347,2.479,2.479,0,0,0-.97,1.025,3.607,3.607,0,0,0-.36,1.7v7.424Z" transform="translate(-213.502 -46.543)" fill="#18604e"/>
    <path id="Path_752" data-name="Path 752" d="M401.22,78.49a10.463,10.463,0,0,1-3.934-.734,9.772,9.772,0,0,1-3.2-2.064,9.558,9.558,0,0,1-2.147-3.144,10.081,10.081,0,0,1-.776-4v-.332a10.082,10.082,0,0,1,.776-4,9.568,9.568,0,0,1,2.147-3.144,9.783,9.783,0,0,1,3.2-2.063,10.456,10.456,0,0,1,3.934-.734,9.921,9.921,0,0,1,3.629.637,9.281,9.281,0,0,1,2.908,1.8l-2.493,2.964a5.654,5.654,0,0,0-4.044-1.579,6.431,6.431,0,0,0-2.41.444,5.6,5.6,0,0,0-3.186,3.2,6.7,6.7,0,0,0-.443,2.479v.332a6.7,6.7,0,0,0,.443,2.479,5.6,5.6,0,0,0,3.186,3.2,6.423,6.423,0,0,0,2.41.443,5.648,5.648,0,0,0,4.155-1.689l2.521,2.936a9.883,9.883,0,0,1-3.02,1.9,9.726,9.726,0,0,1-3.656.679" transform="translate(-245.253 -36.534)" fill="#18604e"/>
    <path id="Path_753" data-name="Path 753" d="M436.783,90.1l-6.039-15.124h4.1l4.127,11.357ZM431.63,94.09v-3.1h3.13a.643.643,0,0,0,.429-.153.891.891,0,0,0,.263-.374l2.354-4.93,3.407-10.554h4.1l-6.177,15.65a9.84,9.84,0,0,1-.8,1.579,4.109,4.109,0,0,1-1.385,1.343,4.612,4.612,0,0,1-2.41.54Z" transform="translate(-270.069 -47.009)" fill="#18604e"/>
    <path id="Path_754" data-name="Path 754" d="M475.689,88.361A7.5,7.5,0,0,1,472,87.474a6.594,6.594,0,0,1-2.535-2.451,6.9,6.9,0,0,1-.928-3.587v-.3a6.8,6.8,0,0,1,.942-3.6,6.626,6.626,0,0,1,2.548-2.424,7.542,7.542,0,0,1,3.657-.872,6.644,6.644,0,0,1,2.852.623,5.517,5.517,0,0,1,2.133,1.7L478.431,78.8a3.125,3.125,0,0,0-1.219-.914,3.868,3.868,0,0,0-1.523-.3,3.7,3.7,0,0,0-1.773.429,3.123,3.123,0,0,0-1.26,1.232,3.75,3.75,0,0,0-.457,1.884v.3a3.633,3.633,0,0,0,.471,1.9,3.3,3.3,0,0,0,1.288,1.232,3.682,3.682,0,0,0,1.786.443,4.162,4.162,0,0,0,1.482-.277,3.639,3.639,0,0,0,1.344-.914l2.188,2.216a5.95,5.95,0,0,1-2.188,1.69,6.7,6.7,0,0,1-2.88.637" transform="translate(-293.767 -46.543)" fill="#18604e"/>
    <path id="Path_755" data-name="Path 755" d="M504.988,77.377a4.469,4.469,0,0,1-3.089-1.025,3.657,3.657,0,0,1-1.15-2.881V58.624l1.634,1.634h-3.767v-3.1h5.817v16.4a.763.763,0,0,0,.222.541.729.729,0,0,0,.554.235h1.5v3.047Z" transform="translate(-312.624 -35.836)" fill="#18604e"/>
    <path id="Path_756" data-name="Path 756" d="M527.6,88.361a7.277,7.277,0,0,1-3.629-.873,6.187,6.187,0,0,1-2.424-2.451,7.436,7.436,0,0,1-.872-3.656V81.1a7.373,7.373,0,0,1,.817-3.49,6.313,6.313,0,0,1,2.285-2.465,6.416,6.416,0,0,1,3.463-.914,6.166,6.166,0,0,1,3.559,1.011,5.678,5.678,0,0,1,2.147,2.853,9.145,9.145,0,0,1,.332,4.335h-9.944V79.968h8.033L529.7,81.214A4.875,4.875,0,0,0,529.646,79a2.706,2.706,0,0,0-.9-1.4,2.344,2.344,0,0,0-1.482-.485,2.483,2.483,0,0,0-1.662.541,3.271,3.271,0,0,0-.955,1.426,5.955,5.955,0,0,0-.318,2.022V81.8a3.857,3.857,0,0,0,.4,1.8,2.867,2.867,0,0,0,1.163,1.205,3.816,3.816,0,0,0,1.9.429,3.873,3.873,0,0,0,1.662-.3,4.325,4.325,0,0,0,1.191-.859l2.077,2.161a4.967,4.967,0,0,1-2.133,1.593,7.882,7.882,0,0,1-2.992.54" transform="translate(-326.452 -46.543)" fill="#18604e"/>
    <rect id="Rectangle_88" data-name="Rectangle 88" width="206.539" height="1.072" transform="translate(11.48 56.483)" fill="#fff"/>
  </g>
</svg>
