<svg id="Group_71" data-name="Group 71" xmlns="http://www.w3.org/2000/svg" xmlns:xlink="http://www.w3.org/1999/xlink" width="217.047" height="217.047" viewBox="0 0 217.047 217.047">
  <defs>
    <clipPath id="clip-path">
      <rect id="Rectangle_67" data-name="Rectangle 67" width="217.047" height="217.047" fill="none"/>
    </clipPath>
  </defs>
  <g id="Group_70" data-name="Group 70" clip-path="url(#clip-path)">
    <path id="Path_467" data-name="Path 467" d="M274.26,283.467a.773.773,0,1,1,.778.773.776.776,0,0,1-.778-.773m0-5.177a.773.773,0,1,1,.778.773.776.776,0,0,1-.778-.773m0-5.177a.773.773,0,1,1,.778.773.776.776,0,0,1-.778-.773m0-5.182a.773.773,0,1,1,.778.778.78.78,0,0,1-.778-.778m0-5.177a.773.773,0,1,1,1.545,0,.773.773,0,1,1-1.545,0m0-5.178a.773.773,0,1,1,.778.773.772.772,0,0,1-.778-.773m0-5.177a.773.773,0,1,1,.778.773.776.776,0,0,1-.778-.773m0-5.177a.773.773,0,1,1,.778.773.776.776,0,0,1-.778-.773m0-5.177a.773.773,0,1,1,.778.773.776.776,0,0,1-.778-.773m0-5.177a.773.773,0,1,1,.778.773.776.776,0,0,1-.778-.773m0-5.178a.773.773,0,1,1,.778.773.776.776,0,0,1-.778-.773m0-5.177a.773.773,0,1,1,.778.773.776.776,0,0,1-.778-.773m0-5.177a.773.773,0,1,1,.778.773.776.776,0,0,1-.778-.773m0-5.177a.773.773,0,1,1,.778.773.776.776,0,0,1-.778-.773m0-5.177a.773.773,0,1,1,1.545,0,.773.773,0,1,1-1.545,0m0-5.183a.773.773,0,1,1,.778.773.775.775,0,0,1-.778-.773m0-5.177a.773.773,0,1,1,.778.778.779.779,0,0,1-.778-.778m0-5.177a.773.773,0,1,1,.778.773.776.776,0,0,1-.778-.773m0-5.177a.773.773,0,1,1,.778.773.776.776,0,0,1-.778-.773m0-5.177a.773.773,0,1,1,.778.772.776.776,0,0,1-.778-.772m0-5.177a.773.773,0,1,1,.778.773.776.776,0,0,1-.778-.773m0-5.177a.773.773,0,1,1,.778.773.776.776,0,0,1-.778-.773m0-5.177a.773.773,0,1,1,.778.773.776.776,0,0,1-.778-.773" transform="translate(-148.194 -91.206)" fill="#6fb440"/>
    <path id="Path_468" data-name="Path 468" d="M115.831,232.675a1.591,1.591,0,0,0,2.972-1.134A41.212,41.212,0,0,0,80.51,205.188a40.444,40.444,0,0,0-17.442,3.918c-3.2-2.353-8.264-3.172-13.316-2.063a20.215,20.215,0,0,0-14.5,12.33c-7.039,17.268,4.166,30.875,4.647,31.447a1.57,1.57,0,0,0,1.217.57c.026,0,.049-.009.074-.009a1.569,1.569,0,0,0,1.234-.678c2.072-3.006,5.722-5.118,9.6-7.354,5.642-3.263,12.042-6.965,15.661-14.468,4.24-8.8.581-14.733-1.978-17.49a37.289,37.289,0,0,1,14.807-3.023,38.011,38.011,0,0,1,35.321,24.306M64.817,227.5c-3.2,6.623-8.888,9.911-14.393,13.1-3.479,2.012-6.808,3.935-9.252,6.594C38.6,243.35,33.13,233,38.2,220.576a16.858,16.858,0,0,1,12.239-10.426,17.385,17.385,0,0,1,3.719-.407,13.771,13.771,0,0,1,5.616,1.1,40.951,40.951,0,0,0-18.716,24.19,1.591,1.591,0,0,0,1.1,1.963,1.517,1.517,0,0,0,.43.057,1.593,1.593,0,0,0,1.533-1.16,37.746,37.746,0,0,1,18.584-23.047c1.8,1.575,6.078,6.419,2.112,14.652" transform="translate(-17.796 -110.871)" fill="#18604e"/>
    <path id="Path_469" data-name="Path 469" d="M115.831,232.675a1.591,1.591,0,0,0,2.972-1.134A41.212,41.212,0,0,0,80.51,205.188a40.444,40.444,0,0,0-17.442,3.918c-3.2-2.353-8.264-3.172-13.316-2.063a20.215,20.215,0,0,0-14.5,12.33c-7.039,17.268,4.166,30.875,4.647,31.447a1.57,1.57,0,0,0,1.217.57c.026,0,.049-.009.074-.009a1.569,1.569,0,0,0,1.234-.678c2.072-3.006,5.722-5.118,9.6-7.354,5.642-3.263,12.042-6.965,15.661-14.468,4.24-8.8.581-14.733-1.978-17.49a37.289,37.289,0,0,1,14.807-3.023A38.011,38.011,0,0,1,115.831,232.675ZM64.817,227.5c-3.2,6.623-8.888,9.911-14.393,13.1-3.479,2.012-6.808,3.935-9.252,6.594C38.6,243.35,33.13,233,38.2,220.576a16.858,16.858,0,0,1,12.239-10.426,17.385,17.385,0,0,1,3.719-.407,13.771,13.771,0,0,1,5.616,1.1,40.951,40.951,0,0,0-18.716,24.19,1.591,1.591,0,0,0,1.1,1.963,1.517,1.517,0,0,0,.43.057,1.593,1.593,0,0,0,1.533-1.16,37.746,37.746,0,0,1,18.584-23.047C64.51,214.423,68.783,219.267,64.817,227.5Z" transform="translate(-17.796 -110.871)" fill="none" stroke="#18604e" stroke-linecap="round" stroke-linejoin="round" stroke-width="3"/>
    <path id="Path_470" data-name="Path 470" d="M136.445,315.064c7.039-17.268-4.166-30.875-4.647-31.447a1.6,1.6,0,0,0-2.525.117c-2.071,3.006-5.722,5.118-9.6,7.354-5.641,3.263-12.042,6.965-15.661,14.468-4.24,8.8-.581,14.733,1.978,17.491a37.288,37.288,0,0,1-14.807,3.023,37.977,37.977,0,0,1-35.412-24.538,1.592,1.592,0,0,0-2.981,1.117,41.168,41.168,0,0,0,38.393,26.6A40.324,40.324,0,0,0,108.6,325.34a15.13,15.13,0,0,0,8.862,2.55,20.934,20.934,0,0,0,4.479-.5,20.213,20.213,0,0,0,14.5-12.33m-15.188,9.224a15.441,15.441,0,0,1-9.335-.687,41,41,0,0,0,18.716-24.2,1.591,1.591,0,1,0-3.063-.861A37.748,37.748,0,0,1,108.99,321.59c-1.8-1.575-6.078-6.419-2.112-14.652,3.2-6.623,8.888-9.911,14.393-13.1,3.479-2.012,6.808-3.935,9.252-6.594,2.568,3.844,8.042,14.2,2.973,26.618a16.857,16.857,0,0,1-12.239,10.426" transform="translate(-28.471 -152.945)" fill="#18604e"/>
    <path id="Path_471" data-name="Path 471" d="M136.445,315.064c7.039-17.268-4.166-30.875-4.647-31.447a1.6,1.6,0,0,0-2.525.117c-2.071,3.006-5.722,5.118-9.6,7.354-5.641,3.263-12.042,6.965-15.661,14.468-4.24,8.8-.581,14.733,1.978,17.491a37.288,37.288,0,0,1-14.807,3.023,37.977,37.977,0,0,1-35.412-24.538,1.592,1.592,0,0,0-2.981,1.117,41.168,41.168,0,0,0,38.393,26.6A40.324,40.324,0,0,0,108.6,325.34a15.13,15.13,0,0,0,8.862,2.55,20.934,20.934,0,0,0,4.479-.5A20.213,20.213,0,0,0,136.445,315.064Zm-15.188,9.224a15.441,15.441,0,0,1-9.335-.687,41,41,0,0,0,18.716-24.2,1.591,1.591,0,1,0-3.063-.861A37.748,37.748,0,0,1,108.99,321.59c-1.8-1.575-6.078-6.419-2.112-14.652,3.2-6.623,8.888-9.911,14.393-13.1,3.479-2.012,6.808-3.935,9.252-6.594,2.568,3.844,8.042,14.2,2.973,26.618A16.857,16.857,0,0,1,121.256,324.289Z" transform="translate(-28.471 -152.945)" fill="none" stroke="#18604e" stroke-linecap="round" stroke-linejoin="round" stroke-width="3"/>
    <path id="Path_472" data-name="Path 472" d="M125.694,265.346a1.594,1.594,0,0,0-1.126.473l-13.11,13.108-4.961-4.961a1.641,1.641,0,0,0-2.251,0L98.216,280a1.584,1.584,0,0,0,0,2.245l12.116,12.123a1.589,1.589,0,0,0,1.126.464,1.568,1.568,0,0,0,1.117-.464L132.849,274.1a1.6,1.6,0,0,0,0-2.254l-6.029-6.027a1.6,1.6,0,0,0-1.126-.473M111.458,291l-9.871-9.873,3.784-3.784,4.961,4.961a1.583,1.583,0,0,0,2.243,0l13.119-13.117,3.783,3.784Z" transform="translate(-52.818 -143.377)" fill="#6fb440"/>
    <path id="Path_473" data-name="Path 473" d="M240.266,78.638a3.1,3.1,0,0,0,2.275-.942,3.309,3.309,0,0,0,.943-2.367,3.127,3.127,0,0,0-.943-2.3,3.164,3.164,0,0,0-4.55,0,3.118,3.118,0,0,0-.919,2.3,3.252,3.252,0,0,0,.919,2.367,3.1,3.1,0,0,0,2.275.942" transform="translate(-128.099 -38.94)" fill="#18604e"/>
    <path id="Path_474" data-name="Path 474" d="M152.678,71.785a2.893,2.893,0,0,0-1.873-.621,3.034,3.034,0,0,0-3.034,2.344h5.93a2.992,2.992,0,0,0-1.023-1.724" transform="translate(-79.847 -38.453)" fill="#18604e"/>
    <path id="Path_475" data-name="Path 475" d="M413.426,71.785a2.893,2.893,0,0,0-1.873-.621,3.034,3.034,0,0,0-3.034,2.344h5.93a2.992,2.992,0,0,0-1.023-1.724" transform="translate(-220.739 -38.453)" fill="#18604e"/>
    <path id="Path_476" data-name="Path 476" d="M100.216,78.638a3.1,3.1,0,0,0,2.275-.942,3.309,3.309,0,0,0,.943-2.367,3.127,3.127,0,0,0-.943-2.3,3.164,3.164,0,0,0-4.55,0,3.118,3.118,0,0,0-.919,2.3A3.252,3.252,0,0,0,97.94,77.7a3.1,3.1,0,0,0,2.275.942" transform="translate(-52.424 -38.94)" fill="#18604e"/>
    <path id="Path_477" data-name="Path 477" d="M198.814,0H18.232A18.253,18.253,0,0,0,0,18.233V198.815a18.253,18.253,0,0,0,18.232,18.232H198.814a18.253,18.253,0,0,0,18.233-18.232V18.233A18.253,18.253,0,0,0,198.814,0m-12.8,31.677a7.033,7.033,0,0,1,9.377-.184,6.065,6.065,0,0,1,1.793,4.62,13.711,13.711,0,0,1-.115,1.517H187.8Q188.446,40,191.227,40a6.917,6.917,0,0,0,3.93-1.218l1.425,2.459a8.848,8.848,0,0,1-5.516,1.747,6.33,6.33,0,0,1-6.895-6.6,6.476,6.476,0,0,1,1.839-4.712m-6.458-6.458h3.608v17.49h-3.608Zm-6.619,4.574a6.9,6.9,0,0,1,3.574.942,5.68,5.68,0,0,1,2.356,2.643l-2.873,1.539A3.369,3.369,0,0,0,173,33.125a3.181,3.181,0,0,0-3.241,3.264,3.248,3.248,0,0,0,.9,2.367,3.118,3.118,0,0,0,2.3.919,3.333,3.333,0,0,0,1.758-.494,3.108,3.108,0,0,0,1.207-1.276l2.919,1.724a6.109,6.109,0,0,1-2.425,2.448,7.058,7.058,0,0,1-3.551.907,6.62,6.62,0,0,1-4.826-1.839,6.44,6.44,0,0,1-1.861-4.757,6.279,6.279,0,0,1,1.884-4.734,6.637,6.637,0,0,1,4.872-1.862m-12.549,8.113,2.712-7.791H167l-4.987,12.94a9.833,9.833,0,0,1-2.344,3.78,4.782,4.782,0,0,1-3.333,1.23,4.548,4.548,0,0,1-2.552-.667l.667-2.988a3.388,3.388,0,0,0,1.631.437q1.518,0,2.437-1.931l.161-.368L153.19,30.114h4.159Zm-20.018-9.975a8.6,8.6,0,0,1,6.228-2.5,9.51,9.51,0,0,1,4.183.93,8.21,8.21,0,0,1,3.1,2.517L151.4,31.4a5.81,5.81,0,0,0-4.6-2.322,4.881,4.881,0,0,0-3.585,1.471,5.019,5.019,0,0,0-1.471,3.7,4.925,4.925,0,0,0,1.448,3.632,4.871,4.871,0,0,0,3.585,1.448,5.937,5.937,0,0,0,4.712-2.345l2.551,2.391a8.485,8.485,0,0,1-3.195,2.608,9.661,9.661,0,0,1-4.3.977,8.624,8.624,0,0,1-6.228-2.413,8.367,8.367,0,0,1-2.505-6.274,8.469,8.469,0,0,1,2.551-6.344m-20.408,2.183h3.516v1.747a3.836,3.836,0,0,1,1.574-1.505,4.911,4.911,0,0,1,2.4-.587,4.85,4.85,0,0,1,3.47,1.356,5.11,5.11,0,0,1,1.425,3.885v7.7h-3.609V35.952a3.1,3.1,0,0,0-.666-2.114,2.266,2.266,0,0,0-1.793-.759,2.539,2.539,0,0,0-1.965.816,3.059,3.059,0,0,0-.747,2.149v6.665h-3.608ZM107.271,31.7a7.2,7.2,0,0,1,9.814,0,6.4,6.4,0,0,1,1.908,4.712,6.526,6.526,0,0,1-1.908,4.734,7.263,7.263,0,0,1-9.814,0,6.468,6.468,0,0,1-1.884-4.734,6.394,6.394,0,0,1,1.884-4.712m-6.136-6.538a2.112,2.112,0,0,1,1.54-.609,2.084,2.084,0,0,1,1.517.609,2.192,2.192,0,0,1,0,3.056,2.082,2.082,0,0,1-1.517.609,2.11,2.11,0,0,1-1.54-.609,2.192,2.192,0,0,1,0-3.056m3.31,17.547h-3.608V30.115h3.608ZM79.553,31.654a6.637,6.637,0,0,1,4.872-1.862A6.9,6.9,0,0,1,88,30.735a5.66,5.66,0,0,1,2.1,2.144V30.114h2.022V25.656h3.586v4.458h4.045V33.1H95.711v4.505q0,2.137,1.677,2.137a4.655,4.655,0,0,0,2.068-.62L100.468,42a6.988,6.988,0,0,1-3.861,1.034q-4.5,0-4.5-5.079V33.1H90.22c.046.091.093.182.135.276l-2.873,1.539a3.369,3.369,0,0,0-2.988-1.792,3.181,3.181,0,0,0-3.24,3.264,3.247,3.247,0,0,0,.9,2.367,3.118,3.118,0,0,0,2.3.919,3.333,3.333,0,0,0,1.758-.494,3.1,3.1,0,0,0,1.207-1.276l2.919,1.724a6.11,6.11,0,0,1-2.425,2.448,7.056,7.056,0,0,1-3.55.907,6.619,6.619,0,0,1-4.826-1.839,6.439,6.439,0,0,1-1.862-4.757,6.279,6.279,0,0,1,1.884-4.734m-13.4.023a7.033,7.033,0,0,1,9.377-.184,6.065,6.065,0,0,1,1.793,4.62,13.713,13.713,0,0,1-.115,1.517H67.947Q68.591,40,71.372,40a6.917,6.917,0,0,0,3.93-1.218l1.425,2.459a8.848,8.848,0,0,1-5.516,1.747,6.33,6.33,0,0,1-6.895-6.6,6.476,6.476,0,0,1,1.839-4.712M54.433,30.114h2.022V25.656h3.586v4.458h4.045V33.1H60.041v4.505q0,2.137,1.678,2.137a4.658,4.658,0,0,0,2.068-.62L64.8,42a6.989,6.989,0,0,1-3.862,1.034q-4.5,0-4.5-5.079V33.1h-2Zm-6.642-.345A6.615,6.615,0,0,1,52.709,31.7a6.4,6.4,0,0,1,1.908,4.712,6.524,6.524,0,0,1-1.908,4.734,6.654,6.654,0,0,1-4.918,1.908,6.626,6.626,0,0,1-4.9-1.908,6.468,6.468,0,0,1-1.884-4.734A6.394,6.394,0,0,1,42.9,31.7a6.588,6.588,0,0,1,4.9-1.931m-14.548.345H36.69v1.632a3.819,3.819,0,0,1,3.425-1.977,4.61,4.61,0,0,1,1.562.3l-.3,3.447a4.727,4.727,0,0,0-1.586-.276,2.669,2.669,0,0,0-2.16.93,4.26,4.26,0,0,0-.781,2.793v5.746H33.243Zm-13.376-4.39h6.5a5.967,5.967,0,0,1,4.62,1.655,5.728,5.728,0,0,1,1.54,4.091,5.448,5.448,0,0,1-1.586,4.022A6.6,6.6,0,0,1,26.1,37.078H23.66v5.631H19.867Zm193.5,173.09a14.572,14.572,0,0,1-14.556,14.555H18.232A14.572,14.572,0,0,1,3.677,198.815V61.728H213.37Z" fill="#18604e"/>
    <path id="Path_478" data-name="Path 478" d="M55.815,67.368a2.306,2.306,0,0,0,.023-3.171,2.185,2.185,0,0,0-1.632-.632H51.472V68h2.574a2.417,2.417,0,0,0,1.77-.632" transform="translate(-27.812 -34.347)" fill="#18604e"/>
    <path id="Path_479" data-name="Path 479" d="M320.291,195.661a5.736,5.736,0,0,1-3.873-1.339,4.986,4.986,0,0,1-1.56-4v-8.461H317.9v8.333a2.587,2.587,0,0,0,.633,1.891,2.349,2.349,0,0,0,1.753.642,2.313,2.313,0,0,0,1.725-.651,2.568,2.568,0,0,0,.643-1.881v-8.333h3.047v8.461a5.052,5.052,0,0,1-1.542,4,5.652,5.652,0,0,1-3.873,1.339" transform="translate(-170.131 -98.265)" fill="#18604e"/>
    <path id="Path_480" data-name="Path 480" d="M347.84,188.925a4.605,4.605,0,0,1,3.543,1.542,5.277,5.277,0,0,1,1.4,3.726,5.407,5.407,0,0,1-1.414,3.762,4.548,4.548,0,0,1-3.524,1.542,4.027,4.027,0,0,1-3.028-1.285v5.176H341.93V189.182h2.845V190.3a3.941,3.941,0,0,1,3.065-1.377m2.019,5.286a2.588,2.588,0,0,0-.716-1.854,2.55,2.55,0,0,0-3.653,0,2.588,2.588,0,0,0-.716,1.854,2.643,2.643,0,0,0,.716,1.881,2.387,2.387,0,0,0,1.817.762,2.415,2.415,0,0,0,1.827-.762,2.624,2.624,0,0,0,.725-1.881" transform="translate(-184.759 -102.084)" fill="#18604e"/>
    <path id="Path_481" data-name="Path 481" d="M381.9,192.494l.807,2.294a5.575,5.575,0,0,1-3.083.826q-3.6,0-3.6-4.056v-3.873h-1.6V185.3h1.616v-3.561h2.863V185.3h3.23v2.386h-3.23v3.6q0,1.706,1.34,1.707a3.714,3.714,0,0,0,1.652-.5" transform="translate(-202.322 -98.2)" fill="#18604e"/>
    <path id="Path_482" data-name="Path 482" d="M397.579,199.494a5.3,5.3,0,0,1-3.91-1.523,5.167,5.167,0,0,1-1.5-3.782,5.106,5.106,0,0,1,1.5-3.763,5.751,5.751,0,0,1,7.838,0,5.115,5.115,0,0,1,1.524,3.763,5.214,5.214,0,0,1-1.524,3.782,5.317,5.317,0,0,1-3.928,1.523m2.569-5.323a2.5,2.5,0,0,0-.752-1.835,2.527,2.527,0,0,0-3.634,0,2.489,2.489,0,0,0-.735,1.835,2.6,2.6,0,0,0,.735,1.891,2.57,2.57,0,0,0,3.634,0,2.643,2.643,0,0,0,.752-1.891" transform="translate(-211.902 -102.062)" fill="#18604e"/>
    <path id="Path_483" data-name="Path 483" d="M321.125,376.9h3.543l-4.717,8.921v4.643h-3.029v-4.643l-4.681-8.921h3.543l2.643,5.617Z" transform="translate(-168.717 -203.653)" fill="#18604e"/>
    <path id="Path_484" data-name="Path 484" d="M345.911,389.013a10.894,10.894,0,0,1-.092,1.211h-7.4a2.5,2.5,0,0,0,2.734,1.891,5.524,5.524,0,0,0,3.139-.973l1.138,1.964a7.07,7.07,0,0,1-4.405,1.395,5.056,5.056,0,0,1-5.506-5.268,5.171,5.171,0,0,1,1.469-3.763,5.08,5.08,0,0,1,3.836-1.5,5.134,5.134,0,0,1,3.653,1.358,4.843,4.843,0,0,1,1.431,3.689m-3.589-2.221a2.307,2.307,0,0,0-1.5-.5,2.423,2.423,0,0,0-2.423,1.872h4.735a2.388,2.388,0,0,0-.817-1.377" transform="translate(-181.296 -207.472)" fill="#18604e"/>
    <path id="Path_485" data-name="Path 485" d="M367.378,385.288v-1.065h2.717v10.058h-2.717v-1.028a4.226,4.226,0,0,1-3.1,1.285,4.649,4.649,0,0,1-3.561-1.524,5.436,5.436,0,0,1-1.4-3.818,5.257,5.257,0,0,1,1.414-3.744,4.683,4.683,0,0,1,3.542-1.487,4.167,4.167,0,0,1,3.1,1.322m-5.176,3.946a2.741,2.741,0,0,0,.716,1.909,2.489,2.489,0,0,0,1.854.771,2.425,2.425,0,0,0,1.854-.789,2.686,2.686,0,0,0,.752-1.891,2.622,2.622,0,0,0-.752-1.872,2.614,2.614,0,0,0-3.708,0,2.651,2.651,0,0,0-.716,1.872" transform="translate(-194.155 -207.472)" fill="#18604e"/>
    <path id="Path_486" data-name="Path 486" d="M389.075,394.259h-2.882V384.2h2.753v1.3a3.051,3.051,0,0,1,2.735-1.578,3.683,3.683,0,0,1,1.248.239l-.239,2.753a3.773,3.773,0,0,0-1.266-.221,2.132,2.132,0,0,0-1.726.744,3.4,3.4,0,0,0-.624,2.23Z" transform="translate(-208.676 -207.45)" fill="#18604e"/>
    <path id="Path_487" data-name="Path 487" d="M404.386,394.47a5.449,5.449,0,0,1-4.3-1.854l1.413-1.872a3.976,3.976,0,0,0,2.882,1.322,1.62,1.62,0,0,0,.89-.22.674.674,0,0,0,.34-.588q0-.441-.624-.734-.2-.092-1.193-.44-1.065-.4-1.3-.514a2.809,2.809,0,0,1-1.8-2.662,2.715,2.715,0,0,1,1.065-2.239,4.461,4.461,0,0,1,2.863-.863,5.037,5.037,0,0,1,3.635,1.4l-1.34,1.872a3.666,3.666,0,0,0-2.349-.936,1.287,1.287,0,0,0-.761.2.607.607,0,0,0-.285.514q0,.551.9.844a17.018,17.018,0,0,1,2.386.918,2.8,2.8,0,0,1,1.708,2.569,2.918,2.918,0,0,1-1.139,2.349,4.513,4.513,0,0,1-2.991.936" transform="translate(-216.185 -207.386)" fill="#18604e"/>
    <path id="Path_488" data-name="Path 488" d="M339.417,293.152a37.748,37.748,0,0,1-20.15-5.98l5.57-10.812q7.453,4.342,13.679,4.341a10.8,10.8,0,0,0,6.594-1.8,5.725,5.725,0,0,0,2.416-4.833,5.6,5.6,0,0,0-2.253-4.628,9.377,9.377,0,0,0-5.939-1.761h-7.781V255.555h6.307a9.821,9.821,0,0,0,6.1-1.72,5.405,5.405,0,0,0,2.252-4.505,5.319,5.319,0,0,0-2.13-4.382,8.472,8.472,0,0,0-5.406-1.679q-5.079,0-11.631,4.5l-6.389-9.747a27.133,27.133,0,0,1,8.928-5.447,29.991,29.991,0,0,1,10.813-2.007q8.355,0,13.842,4.505a13.962,13.962,0,0,1,5.652,11.222,13.254,13.254,0,0,1-2.826,8.272,15.33,15.33,0,0,1-7.331,5.243v.327a14.627,14.627,0,0,1,8.724,5.283,15.219,15.219,0,0,1,3.153,9.624,16,16,0,0,1-6.225,13.106q-6.063,5-15.972,5" transform="translate(-172.513 -124.588)" fill="#18604e"/>
  </g>
</svg>
