<svg xmlns="http://www.w3.org/2000/svg" xmlns:xlink="http://www.w3.org/1999/xlink" width="193" height="199" viewBox="0 0 193 199">
  <defs>
    <clipPath id="clip-path">
      <rect id="Rectangle_38" data-name="Rectangle 38" width="193" height="199" transform="translate(-0.337 0)" fill="none"/>
    </clipPath>
  </defs>
  <g id="Group_38" data-name="Group 38" transform="translate(-0.106 0.286)">
    <g id="Group_37" data-name="Group 37" transform="translate(0.442 -0.286)" clip-path="url(#clip-path)">
      <path id="Path_208" data-name="Path 208" d="M21.383,83.2a11.177,11.177,0,0,0-8.071-3.328,13.312,13.312,0,0,0,0,26.624,11.177,11.177,0,0,0,8.071-3.328h5.98A65.808,65.808,0,0,0,39.347,132.33l-7.523,7.525a13.312,13.312,0,1,0,14.69,14.69l7.525-7.525a66.6,66.6,0,0,0,25.933,11.407,88.094,88.094,0,0,0,12.619,19.357A66.837,66.837,0,0,0,129.066,199.6a3.3,3.3,0,0,0,1.458,0c.646-.145,15.986-3.72,31.422-17.905a89.126,89.126,0,0,0,21.385-30.407c6.4-14.732,9.663-32.039,9.693-51.441a3.327,3.327,0,0,0-1.712-2.914l-33.207-18.45a66.521,66.521,0,0,0-12.76-26.633,13.258,13.258,0,0,0,1.007-3.8l8.193-8.193a13.312,13.312,0,1,0-14.69-14.69l-8.19,8.19a13.22,13.22,0,0,0-5.6,1.952,66.294,66.294,0,0,0-22.9-7.928v-6a11.177,11.177,0,0,0,3.328-8.071,13.312,13.312,0,0,0-26.624,0A11.177,11.177,0,0,0,83.2,21.383v5.98A65.792,65.792,0,0,0,54.039,39.349l-7.525-7.525a13.312,13.312,0,1,0-14.69,14.69l7.525,7.525A65.725,65.725,0,0,0,27.361,83.2ZM19.968,96.513a3.328,3.328,0,0,0-2.481,1.109c-1.482,1.66-2.537,2.219-4.175,2.219a6.656,6.656,0,0,1,0-13.312c1.638,0,2.693.559,4.175,2.219a3.328,3.328,0,0,0,2.481,1.109h6.738c-.052,1.1-.082,2.214-.082,3.328s.031,2.223.082,3.328Zm33.28,43.264a3.329,3.329,0,0,0-2.353.975l-9.984,9.984a3.329,3.329,0,0,0-.975,2.353,6.656,6.656,0,1,1-6.656-6.656,3.329,3.329,0,0,0,2.353-.975l9.984-9.984a3.329,3.329,0,0,0,.975-2.353,6.656,6.656,0,1,1,6.656,6.656m133.106-37.986c-.236,17.591-3.272,33.267-9.027,46.618A82.66,82.66,0,0,1,157.7,176.555a72.016,72.016,0,0,1-27.959,16.371A60.264,60.264,0,0,1,97.672,173.48c-7.165-8.2-12.933-18.742-17.137-31.317a152.161,152.161,0,0,1-7.271-40.39l56.529-31.406ZM133.121,39.936a3.329,3.329,0,0,0,2.353-.975l9.984-9.984a3.329,3.329,0,0,0,.975-2.353,6.656,6.656,0,1,1,6.656,6.656,3.329,3.329,0,0,0-2.353.975l-9.984,9.984a3.329,3.329,0,0,0-.975,2.353,6.656,6.656,0,1,1-6.656-6.656M93.185,6.656a6.663,6.663,0,0,1,6.656,6.656c0,1.638-.559,2.693-2.219,4.175a3.328,3.328,0,0,0-1.109,2.481v6.749c-1.107-.057-2.216-.093-3.328-.093s-2.223.031-3.328.082V19.968a3.328,3.328,0,0,0-1.109-2.481c-1.66-1.482-2.219-2.537-2.219-4.175a6.663,6.663,0,0,1,6.656-6.656M35.633,40.912a3.329,3.329,0,0,0-2.353-.975,6.656,6.656,0,1,1,6.656-6.656,3.329,3.329,0,0,0,.975,2.353L50.9,45.617a3.329,3.329,0,0,0,2.353.975,6.656,6.656,0,1,1-6.656,6.656,3.329,3.329,0,0,0-.975-2.353Zm6.916,20.246A13.306,13.306,0,1,0,61.157,42.549a59.951,59.951,0,0,1,60.225-2.221A13.3,13.3,0,0,0,141.1,57.239a59.984,59.984,0,0,1,8.82,16.7L131.407,63.651a3.336,3.336,0,0,0-3.233,0l-59.9,33.28a3.333,3.333,0,0,0-1.709,2.9,154.35,154.35,0,0,0,7.607,44.27q1.137,3.419,2.427,6.647a60.062,60.062,0,0,1-15.431-6.938,13.305,13.305,0,1,0-18.614-18.6,59.969,59.969,0,0,1,0-64.056" transform="translate(-0.479 -0.091)" fill="#18604e"/>
      <path id="Path_209" data-name="Path 209" d="M81.984,169.969A9.984,9.984,0,1,0,72,159.984a9.983,9.983,0,0,0,9.984,9.984m0-13.312a3.328,3.328,0,1,1-3.328,3.328,3.329,3.329,0,0,1,3.328-3.328" transform="translate(-32.542 -66.89)" fill="#18604e"/>
      <path id="Path_210" data-name="Path 210" d="M171.984,91.969A9.984,9.984,0,1,0,162,81.984a9.983,9.983,0,0,0,9.984,9.984m0-13.312a3.328,3.328,0,1,1-3.328,3.328,3.329,3.329,0,0,1,3.328-3.328" transform="translate(-72.622 -32.154)" fill="#18604e"/>
      <path id="Path_211" data-name="Path 211" d="M129.984,133.969A9.984,9.984,0,1,0,120,123.984a9.983,9.983,0,0,0,9.984,9.984m0-13.312a3.328,3.328,0,1,1-3.328,3.328,3.329,3.329,0,0,1,3.328-3.328" transform="translate(-53.918 -50.858)" fill="#18604e"/>
      <path id="Path_212" data-name="Path 212" d="M195.47,148.737l-42.649,23.7a3.326,3.326,0,0,0-1.694,3.248,139.256,139.256,0,0,0,6.376,29.974c3.8,11.173,8.916,20.44,15.189,27.547a49.616,49.616,0,0,0,22.95,15.049,3.31,3.31,0,0,0,2.193-.073A65.611,65.611,0,0,0,219.2,234.343c14.339-13.843,22.464-33.564,24.148-58.618a3.328,3.328,0,0,0-1.705-3.133L198.7,148.737a3.325,3.325,0,0,0-3.233,0m41.078,28.639c-1.866,22.352-9.254,39.9-21.973,52.178a59.259,59.259,0,0,1-18.063,11.982,43.182,43.182,0,0,1-18.831-12.74c-5.688-6.441-10.359-14.95-13.878-25.288a131.04,131.04,0,0,1-5.815-26.334l39.1-21.721Z" transform="translate(-67.772 -66.141)" fill="#18604e"/>
      <path id="Path_213" data-name="Path 213" d="M207.665,212.287a3.326,3.326,0,0,0-4.706,0l-9.984,9.984a3.326,3.326,0,0,0,0,4.706l16.64,16.64a3.326,3.326,0,0,0,4.706,0l29.952-29.952a3.326,3.326,0,0,0,0-4.706l-9.984-9.984a3.326,3.326,0,0,0-4.706,0L211.968,216.59Zm24.271-6.253,5.278,5.278-25.246,25.246-11.934-11.934,5.278-5.278,4.3,4.3a3.326,3.326,0,0,0,4.706,0Z" transform="translate(-85.982 -88.265)" fill="#18604e"/>
    </g>
  </g>
</svg>
