<svg id="Group_3" data-name="Group 3" xmlns="http://www.w3.org/2000/svg" xmlns:xlink="http://www.w3.org/1999/xlink" width="280.767" height="123.867" viewBox="0 0 280.767 123.867">
  <defs>
    <clipPath id="clip-path">
      <rect id="Rectangle_18" data-name="Rectangle 18" width="280.767" height="123.867" fill="none"/>
    </clipPath>
  </defs>
  <g id="Group_2" data-name="Group 2" clip-path="url(#clip-path)">
    <path id="Path_1" data-name="Path 1" d="M15.742,162.966H2.4a2.4,2.4,0,0,0-2.4,2.4v34.77a2.4,2.4,0,0,0,2.4,2.4H7.613a2.4,2.4,0,0,0,2.4-2.4v-7.624a2.4,2.4,0,0,1,2.4-2.4h2.634q8.031,0,11.779-3.748a13.059,13.059,0,0,0,3.8-9.637,13.7,13.7,0,0,0-3.694-9.8q-3.642-3.962-11.19-3.962m3.346,16.892a4.816,4.816,0,0,1-3.561,1.258H12.411a2.4,2.4,0,0,1-2.4-2.4v-4.2a2.4,2.4,0,0,1,2.4-2.4h3.33a4.472,4.472,0,0,1,3.346,1.285,4.765,4.765,0,0,1,0,6.452" transform="translate(0 -97.713)" fill="#fff"/>
    <path id="Path_2" data-name="Path 2" d="M105.1,187.972h-5.029a2.224,2.224,0,0,0-2.224,2.224v14.534a4.961,4.961,0,0,1-1.285,3.587,4.6,4.6,0,0,1-3.48,1.339,4.483,4.483,0,0,1-3.427-1.365,4.985,4.985,0,0,1-1.285-3.561V190.2a2.224,2.224,0,0,0-2.224-2.224H81.117a2.224,2.224,0,0,0-2.224,2.224v14.427q0,6.479,3.748,10.066t10.441,3.587q6.693,0,10.467-3.587t3.775-10.066V190.2a2.224,2.224,0,0,0-2.224-2.224" transform="translate(-47.303 -112.706)" fill="#fff"/>
    <path id="Path_3" data-name="Path 3" d="M177.213,194.594l.594-7.124a.957.957,0,0,0-.625-.979,8.8,8.8,0,0,0-3.011-.525,8.648,8.648,0,0,0-6.248,2.435.953.953,0,0,1-1.622-.677.955.955,0,0,0-.955-.955h-7.14a.954.954,0,0,0-.955.955V215.37a.954.954,0,0,0,.955.955h7.514a.954.954,0,0,0,.955-.955V203.582q0-8.513,6.532-8.513a11.383,11.383,0,0,1,2.8.366.959.959,0,0,0,1.2-.84" transform="translate(-94.286 -111.503)" fill="#fff"/>
    <path id="Path_4" data-name="Path 4" d="M231.654,190.062a16.872,16.872,0,0,0-22.274.482,15.025,15.025,0,0,0-4.39,11.083,15.308,15.308,0,0,0,4.23,10.976q4.283,4.445,12.1,4.444a21.922,21.922,0,0,0,12.285-3.534.993.993,0,0,0,.32-1.328l-2.726-4.7a.983.983,0,0,0-1.348-.355,15.769,15.769,0,0,1-8.1,2.207q-4.631,0-6.537-3.16a.99.99,0,0,1,.848-1.5h18.7a.993.993,0,0,0,.981-.873,22.96,22.96,0,0,0,.194-2.929q0-6.853-4.284-10.815M225.5,198.2h-9.582a.989.989,0,0,1-.864-1.469,6.05,6.05,0,0,1,5.735-3.082,6.415,6.415,0,0,1,3.962,1.2,5.717,5.717,0,0,1,1.626,1.9.988.988,0,0,1-.877,1.445" transform="translate(-122.91 -111.584)" fill="#fff"/>
    <path id="Path_5" data-name="Path 5" d="M321.537,177.4H306.891a1.7,1.7,0,0,0-1.7,1.7v5.169a1.7,1.7,0,0,0,1.7,1.7h5.6a1.7,1.7,0,0,1,1.7,1.7v.936a1.674,1.674,0,0,1-.644,1.334,12.3,12.3,0,0,1-3.291,1.733,14.431,14.431,0,0,1-4.953.884,10.328,10.328,0,0,1-7.924-3.213,11.019,11.019,0,0,1-3-7.71,10.682,10.682,0,0,1,3.052-7.71,10.555,10.555,0,0,1,7.87-3.105,13.453,13.453,0,0,1,8.105,2.667,1.692,1.692,0,0,0,2.279-.273l4.2-4.9a1.7,1.7,0,0,0-.239-2.443,21.838,21.838,0,0,0-5.56-3.055,24.048,24.048,0,0,0-8.674-1.58,21.249,21.249,0,0,0-15.206,5.783,19.484,19.484,0,0,0-6.05,14.724,19.714,19.714,0,0,0,5.836,14.617q5.888,5.73,15.1,5.729a25.1,25.1,0,0,0,17.619-7.045,1.686,1.686,0,0,0,.531-1.236V179.1a1.7,1.7,0,0,0-1.7-1.7" transform="translate(-170.374 -96.671)" fill="#fff"/>
    <path id="Path_6" data-name="Path 6" d="M407.21,195.435a.959.959,0,0,0,1.2-.84l.594-7.124a.957.957,0,0,0-.625-.979,8.8,8.8,0,0,0-3.011-.525,8.647,8.647,0,0,0-6.248,2.435.953.953,0,0,1-1.622-.677.954.954,0,0,0-.955-.955h-7.14a.954.954,0,0,0-.954.955V215.37a.954.954,0,0,0,.954.955h7.514a.954.954,0,0,0,.955-.955V203.582q0-8.514,6.532-8.514a11.384,11.384,0,0,1,2.8.367" transform="translate(-232.912 -111.503)" fill="#fff"/>
    <path id="Path_7" data-name="Path 7" d="M452.118,185.832a15.625,15.625,0,0,0-11.619,4.551,16.043,16.043,0,0,0,0,22.167,17.257,17.257,0,0,0,23.237,0,15.9,15.9,0,0,0,0-22.167q-4.391-4.55-11.619-4.551m4.765,20.453a6.473,6.473,0,0,1-4.765,1.927,6.409,6.409,0,0,1-4.712-1.927,6.833,6.833,0,0,1-1.928-4.872,6.409,6.409,0,0,1,1.928-4.712,6.324,6.324,0,0,1,4.712-1.981,6.673,6.673,0,0,1,6.693,6.693,6.835,6.835,0,0,1-1.928,4.872" transform="translate(-261.454 -111.423)" fill="#fff"/>
    <path id="Path_8" data-name="Path 8" d="M558.786,187.972H550.74a.891.891,0,0,0-.855.64l-4.046,13.816a.891.891,0,0,1-1.7.031l-4.626-13.878a.891.891,0,0,0-.845-.609h-5.351a.891.891,0,0,0-.846.614l-4.532,13.855a.891.891,0,0,1-1.7-.024l-4.086-13.807a.891.891,0,0,0-.854-.638h-8.049a.891.891,0,0,0-.843,1.178l9.458,27.72a.89.89,0,0,0,.843.6h7.138a.891.891,0,0,0,.84-.6l4.47-12.714a.891.891,0,0,1,1.68,0l4.514,12.719a.891.891,0,0,0,.839.593h7.14a.891.891,0,0,0,.843-.6l9.458-27.72a.891.891,0,0,0-.843-1.178" transform="translate(-307.205 -112.706)" fill="#fff"/>
    <path id="Path_9" data-name="Path 9" d="M636.857,187.972a3.043,3.043,0,1,0,3.1,3.024,3.059,3.059,0,0,0-3.1-3.024m.018,5.44a2.418,2.418,0,1,1,2.3-2.4,2.316,2.316,0,0,1-2.3,2.4" transform="translate(-379.985 -112.706)" fill="#fff"/>
    <path id="Path_10" data-name="Path 10" d="M640.457,193.325v-.037a.774.774,0,0,0,.627-.7.837.837,0,0,0-.3-.663,1.88,1.88,0,0,0-1.051-.221,6.132,6.132,0,0,0-1.162.092v3.024h.7V193.6h.332c.387,0,.572.148.627.48a2.576,2.576,0,0,0,.24.738h.756a2.3,2.3,0,0,1-.221-.756.892.892,0,0,0-.553-.738m-.83-.221H639.3v-.867a1.712,1.712,0,0,1,.387-.036c.443,0,.645.184.645.461,0,.314-.313.442-.7.442" transform="translate(-382.884 -114.943)" fill="#fff"/>
    <path id="Path_11" data-name="Path 11" d="M623.055,3.039,622.807.116,619.874.039c-11.508-.3-20.567,1.107-27.7,4.3a33.915,33.915,0,0,0-13.824,11.3,35.572,35.572,0,0,0-5.866,14.524A64.658,64.658,0,0,0,571.4,42.209c-.008,5.275-.116,27.378-.117,27.6l6.557.032c0-.14.043-8.865.077-16.665l6.4-.229c.45-.014,11.078-.4,17.467-3.468C611.1,45,617.2,38.644,620.445,30.037c3.955-10.5,2.667-26.329,2.61-27m-8.747,24.686c-2.619,6.951-7.646,12.134-15.369,15.844-4.266,2.049-12.162,2.734-14.852,2.825l-6.147.219c.007-1.874.012-3.421.013-4.394.009-5.61.758-16.018,5.678-22.688,4.743-6.428,12.4-12.919,33.049-12.973.17,4.829.134,14.519-2.371,21.168" transform="translate(-342.533 0)" fill="#fff"/>
    <path id="Path_12" data-name="Path 12" d="M483.488,55.97c7.8,7.086,14.762,7.391,21.49,7.686.408.018.823.036,1.24.056V85.946h6.557V56.18c.01-1.34-.024-12.573-3.823-17.638-6.7-8.937-16.947-12.857-29.624-11.335l-2.559.307-.306,2.559a47.562,47.562,0,0,0,.029,9.588c.762,7.3,3.116,12.784,7,16.308M482.8,33.486c9.056-.46,16.082,2.558,20.907,8.99,1.782,2.376,2.542,9.422,2.512,13.665v1.006l-.953-.042c-6.324-.277-11.32-.5-17.369-5.99-4.476-4.065-5.232-12.571-5.1-17.63" transform="translate(-285.548 -16.121)" fill="#fff"/>
    <path id="Path_13" data-name="Path 13" d="M393.229,291.972a3.484,3.484,0,0,0-.878-.387q-.472-.135-.878-.27a2.374,2.374,0,0,1-.675-.338.7.7,0,0,1-.27-.6.687.687,0,0,1,.3-.6,1.591,1.591,0,0,1,.9-.209,4.349,4.349,0,0,1,.5.03c.172.021.338.047.5.08a4.323,4.323,0,0,1,.43.111,1.761,1.761,0,0,1,.3.123v-1.669a2.381,2.381,0,0,0-.792-.258,6.046,6.046,0,0,0-1.1-.1,3.157,3.157,0,0,0-2.154.657,2.822,2.822,0,0,0-.472,3.112,2.213,2.213,0,0,0,.675.724,3.12,3.12,0,0,0,.878.405q.473.135.878.27a2.9,2.9,0,0,1,.675.313.6.6,0,0,1,.27.534.74.74,0,0,1-.38.656,2.032,2.032,0,0,1-1.08.239,5.375,5.375,0,0,1-.6-.037q-.325-.037-.656-.092a5.954,5.954,0,0,1-.62-.135q-.288-.08-.484-.153v1.731a4.373,4.373,0,0,0,.522.141q.313.068.657.117t.7.08q.356.03.663.03a3.514,3.514,0,0,0,2.314-.682,2.391,2.391,0,0,0,.816-1.946,2.269,2.269,0,0,0-.27-1.19,2.067,2.067,0,0,0-.675-.694" transform="translate(-232.943 -172.617)" fill="#fff"/>
    <path id="Path_14" data-name="Path 14" d="M423.142,290.837,421.4,288.2H419.25l2.959,4.284v4.063h1.854v-4.087l2.958-4.26h-2.148Z" transform="translate(-251.379 -172.8)" fill="#fff"/>
    <path id="Path_15" data-name="Path 15" d="M460.089,291.972a3.493,3.493,0,0,0-.878-.387c-.315-.09-.608-.18-.877-.27a2.371,2.371,0,0,1-.675-.338.7.7,0,0,1-.27-.6.687.687,0,0,1,.3-.6,1.592,1.592,0,0,1,.9-.209,4.343,4.343,0,0,1,.5.03q.258.031.5.08a4.408,4.408,0,0,1,.43.111,1.79,1.79,0,0,1,.3.123v-1.669a2.383,2.383,0,0,0-.792-.258,6.042,6.042,0,0,0-1.1-.1,3.155,3.155,0,0,0-2.154.657,2.82,2.82,0,0,0-.472,3.112,2.206,2.206,0,0,0,.675.724,3.107,3.107,0,0,0,.877.405q.473.135.878.27a2.9,2.9,0,0,1,.675.313.6.6,0,0,1,.27.534.74.74,0,0,1-.38.656,2.03,2.03,0,0,1-1.08.239,5.362,5.362,0,0,1-.6-.037q-.326-.037-.657-.092a5.99,5.99,0,0,1-.62-.135q-.289-.08-.485-.153v1.731a4.382,4.382,0,0,0,.522.141q.313.068.656.117t.7.08q.356.03.664.03a3.514,3.514,0,0,0,2.314-.682,2.389,2.389,0,0,0,.816-1.946,2.269,2.269,0,0,0-.27-1.19,2.073,2.073,0,0,0-.675-.694" transform="translate(-273.031 -172.617)" fill="#fff"/>
    <path id="Path_16" data-name="Path 16" d="M486.756,289.842h2.455v6.7h1.841v-6.7h2.455V288.2h-6.751Z" transform="translate(-291.854 -172.8)" fill="#fff"/>
    <path id="Path_17" data-name="Path 17" d="M524.158,292.923h2.688v-1.559h-2.688v-1.522h3.081V288.2h-4.922v8.347h5.156V294.9h-3.314Z" transform="translate(-313.176 -172.801)" fill="#fff"/>
    <path id="Path_18" data-name="Path 18" d="M560.215,288.2l-2.025,4.493-2.038-4.493h-1.486l-1.51,8.347h1.878l.9-5.045,1.559,3.277h1.375l1.571-3.277.9,5.045h1.891L561.7,288.2Z" transform="translate(-331.667 -172.8)" fill="#fff"/>
    <path id="Path_19" data-name="Path 19" d="M601.139,291.972a3.485,3.485,0,0,0-.878-.387q-.472-.135-.878-.27a2.374,2.374,0,0,1-.675-.338.7.7,0,0,1-.27-.6.687.687,0,0,1,.3-.6,1.591,1.591,0,0,1,.9-.209,4.354,4.354,0,0,1,.5.03c.172.021.338.047.5.08a4.348,4.348,0,0,1,.43.111,1.757,1.757,0,0,1,.3.123v-1.669a2.38,2.38,0,0,0-.792-.258,6.047,6.047,0,0,0-1.1-.1,3.157,3.157,0,0,0-2.154.657,2.822,2.822,0,0,0-.472,3.112,2.214,2.214,0,0,0,.675.724,3.115,3.115,0,0,0,.878.405q.473.135.878.27a2.9,2.9,0,0,1,.675.313.6.6,0,0,1,.27.534.741.741,0,0,1-.38.656,2.031,2.031,0,0,1-1.08.239,5.373,5.373,0,0,1-.6-.037q-.325-.037-.656-.092a5.951,5.951,0,0,1-.62-.135q-.288-.08-.484-.153v1.731a4.369,4.369,0,0,0,.522.141q.313.068.657.117t.7.08q.355.03.663.03a3.514,3.514,0,0,0,2.314-.682,2.391,2.391,0,0,0,.816-1.946,2.268,2.268,0,0,0-.27-1.19,2.067,2.067,0,0,0-.675-.694" transform="translate(-357.604 -172.617)" fill="#fff"/>
  </g>
</svg>
