<svg id="Group_48" data-name="Group 48" xmlns="http://www.w3.org/2000/svg" xmlns:xlink="http://www.w3.org/1999/xlink" width="199.076" height="184.115" viewBox="0 0 199.076 184.115">
  <defs>
    <clipPath id="clip-path">
      <rect id="Rectangle_43" data-name="Rectangle 43" width="199.076" height="184.114" fill="none"/>
    </clipPath>
  </defs>
  <g id="Group_47" data-name="Group 47" clip-path="url(#clip-path)">
    <path id="Path_228" data-name="Path 228" d="M245.28,211.891H205.234l.061-58.554,6.456-6.456a30.738,30.738,0,0,0,5.395.482,30.268,30.268,0,0,0,14.84-3.885,2.916,2.916,0,1,0-2.857-5.085,24.42,24.42,0,0,1-12.023,3.131l15.268-15.265a2.917,2.917,0,0,0-4.125-4.125L212.982,137.4a24.549,24.549,0,0,1,28.378-24.259,24.734,24.734,0,0,1-3.351,16.735,2.917,2.917,0,0,0,4.961,3.068A30.617,30.617,0,0,0,246.683,110a2.913,2.913,0,0,0-2.171-2.171,30.379,30.379,0,0,0-36.886,34.931l-2.333,2.335V107.722l4.83-4.83a24.987,24.987,0,0,0,4.149.353,24.895,24.895,0,0,0,24.156-30.609,2.916,2.916,0,0,0-2.173-2.171A24.883,24.883,0,0,0,206,98.773l-3.378,3.376-3.378-3.376a24.881,24.881,0,0,0-30.261-28.309,2.913,2.913,0,0,0-2.171,2.171,24.821,24.821,0,0,0,28.3,30.257l4.35,4.35v37.367l-1.853-1.853a30.38,30.38,0,0,0-36.886-34.933,2.916,2.916,0,0,0-2.171,2.171,30.4,30.4,0,0,0,29.494,37.375,30.756,30.756,0,0,0,5.439-.488L199.4,152.8v59.094H139.434V197.4a2.916,2.916,0,0,0-5.832,0v14.487H104.916a2.916,2.916,0,1,0,0,5.832H245.28a2.916,2.916,0,1,0,0-5.832M217.068,81.209A18.933,18.933,0,0,1,233.091,75.8a19.055,19.055,0,0,1-17.426,21.549l11.162-11.16a2.917,2.917,0,1,0-4.125-4.125l-11.16,11.16a18.942,18.942,0,0,1,5.526-12.015m-34.536.855a2.916,2.916,0,0,0-4.123,4.125l11.16,11.16A19.056,19.056,0,0,1,172.146,75.8a19.053,19.053,0,0,1,21.547,17.424Zm-9.67,44.2,15.267,15.265a24.548,24.548,0,0,1-24.257-28.382,24.544,24.544,0,0,1,28.38,24.257l-15.265-15.265a2.917,2.917,0,0,0-4.125,4.125" transform="translate(-49.121 -33.609)" fill="#18604e"/>
    <path id="Path_229" data-name="Path 229" d="M108.057,219.329a20.988,20.988,0,0,0,20.083,2.349l5.294,3.759V231.8a2.916,2.916,0,0,0,5.832,0v-6.361l5.3-3.759a21.1,21.1,0,0,0,22.77-4.613,12.525,12.525,0,0,0-14.275-20.115,21.517,21.517,0,0,0-3.023,1.79,21.031,21.031,0,0,0-8.852,18.186l-1.914,1.359v-17.23a21.033,21.033,0,0,0,9.7-17.744,21.266,21.266,0,0,0-.29-3.5,12.524,12.524,0,0,0-24.664,0,21.268,21.268,0,0,0-.29,3.5,21.03,21.03,0,0,0,9.706,17.744v17.23l-1.916-1.359a21.031,21.031,0,0,0-8.852-18.186,21.516,21.516,0,0,0-3.023-1.79,12.524,12.524,0,0,0-14.275,20.113,21.151,21.151,0,0,0,2.688,2.266m45.35-15.832a15.7,15.7,0,0,1,2.193-1.3,6.693,6.693,0,0,1,7.616,10.733,15.281,15.281,0,0,1-12.472,4.358l7.922-5.622a2.917,2.917,0,0,0-3.376-4.757l-7.92,5.622a15.2,15.2,0,0,1,6.037-9.036m-23.848-20.186a15.343,15.343,0,0,1,.211-2.54,6.692,6.692,0,0,1,13.159,0,15.27,15.27,0,0,1-3.663,12.694v-9.713a2.916,2.916,0,0,0-5.832,0v9.713a15.213,15.213,0,0,1-3.874-10.154M108.83,204.4a6.657,6.657,0,0,1,5.32-2.918,6.725,6.725,0,0,1,2.948.717,15.7,15.7,0,0,1,2.193,1.3,15.221,15.221,0,0,1,6.039,9.036l-7.922-5.622a2.917,2.917,0,0,0-3.376,4.757l7.922,5.622a15.206,15.206,0,0,1-10.522-2.718,15.4,15.4,0,0,1-1.95-1.64,6.4,6.4,0,0,1-.652-8.532" transform="translate(-48.952 -81.612)" fill="#18604e"/>
    <path id="Path_230" data-name="Path 230" d="M149.187,102.448l4.741-4.743v22.511a2.916,2.916,0,0,0,5.832,0V97.706l4.743,4.743a2.916,2.916,0,1,0,4.125-4.123l-9.72-9.72a2.915,2.915,0,0,0-4.125,0l-9.72,9.72a2.916,2.916,0,1,0,4.125,4.123" transform="translate(-69.447 -42.258)" fill="#18604e"/>
    <path id="Path_231" data-name="Path 231" d="M276.687,14.7l4.741-4.743V32.467a2.916,2.916,0,0,0,5.832,0V9.956L292,14.7a2.916,2.916,0,0,0,4.125-4.123l-9.72-9.72a2.915,2.915,0,0,0-4.125,0l-9.72,9.72a2.916,2.916,0,0,0,4.125,4.123" transform="translate(-130.848 0)" fill="#18604e"/>
    <path id="Path_232" data-name="Path 232" d="M35.512,293.207a18.7,18.7,0,0,0,19.026-7.465,11.264,11.264,0,0,0-15.687-15.687,18.96,18.96,0,0,0-2.378,2.015,18.652,18.652,0,0,0-5.087,17.013l-2.7,2.7-2.7-2.7A18.656,18.656,0,0,0,20.9,272.071a18.791,18.791,0,0,0-2.379-2.015A11.037,11.037,0,0,0,4.1,271.322a11.035,11.035,0,0,0-1.265,14.421,18.911,18.911,0,0,0,2.015,2.38,18.654,18.654,0,0,0,17.011,5.085l3.91,3.908v10.2H2.916a2.916,2.916,0,0,0,0,5.832H41.993a2.916,2.916,0,0,0,0-5.832H31.6v-10.2ZM40.6,276.194a12.85,12.85,0,0,1,1.64-1.389,5.432,5.432,0,0,1,7.551,7.551A13,13,0,0,1,48.4,284a12.838,12.838,0,0,1-7.323,3.645l5.213-5.212a2.916,2.916,0,1,0-4.123-4.125l-5.213,5.212a12.825,12.825,0,0,1,3.644-7.323M15.206,278.3a2.917,2.917,0,0,0-4.125,4.125l5.213,5.21a12.887,12.887,0,0,1-8.712-5.283,5.186,5.186,0,0,1,.642-6.91,5.562,5.562,0,0,1,3.854-1.681,5.2,5.2,0,0,1,3.056,1.039,12.709,12.709,0,0,1,1.64,1.389,12.841,12.841,0,0,1,3.646,7.323Z" transform="translate(0 -129.038)" fill="#18604e"/>
    <path id="Path_233" data-name="Path 233" d="M35.937,209.7l4.741-4.743v22.511a2.916,2.916,0,1,0,5.832,0V204.956l4.743,4.743a2.916,2.916,0,1,0,4.125-4.123l-9.72-9.72a2.915,2.915,0,0,0-4.125,0l-9.72,9.72a2.916,2.916,0,1,0,4.125,4.123" transform="translate(-14.909 -93.907)" fill="#18604e"/>
  </g>
</svg>
