<svg id="Group_40" data-name="Group 40" xmlns="http://www.w3.org/2000/svg" xmlns:xlink="http://www.w3.org/1999/xlink" width="141.229" height="163.893" viewBox="0 0 141.229 163.893">
  <defs>
    <clipPath id="clip-path">
      <rect id="Rectangle_39" data-name="Rectangle 39" width="141.229" height="163.893" fill="none"/>
    </clipPath>
  </defs>
  <g id="Group_39" data-name="Group 39" clip-path="url(#clip-path)">
    <path id="Path_214" data-name="Path 214" d="M133.275,80.632a65.666,65.666,0,0,0,11.94-37.86V12.416a3.2,3.2,0,0,0-2.5-3.126L101.377.076a3.236,3.236,0,0,0-1.393,0L58.653,9.29a3.2,3.2,0,0,0-2.5,3.126V42.772a65.991,65.991,0,0,0,43.44,62.019,3.2,3.2,0,0,0,2.186,0,65.661,65.661,0,0,0,31.5-24.159M100.681,98.364A59.592,59.592,0,0,1,62.55,42.772V14.982l38.131-8.5,38.132,8.5V42.772a59.589,59.589,0,0,1-38.132,55.592" transform="translate(-29.618 0)" fill="#18604e"/>
    <path id="Path_215" data-name="Path 215" d="M146.593,35.462a3.2,3.2,0,0,0-2.5-3.125L114.6,25.764a3.23,3.23,0,0,0-1.395,0L83.724,32.337a3.2,3.2,0,0,0,1.393,6.248l28.789-6.417,26.285,5.859V56.322a47.763,47.763,0,0,1-26.285,42.655A47.775,47.775,0,0,1,87.771,60.123c-.057-.705-.1-1.417-.12-2.12a3.2,3.2,0,1,0-6.4.219c.027.8.073,1.606.135,2.4a54.168,54.168,0,0,0,31.174,44.808,3.2,3.2,0,0,0,2.689,0,54.158,54.158,0,0,0,31.343-49.113V35.462Z" transform="translate(-42.843 -13.55)" fill="#18604e"/>
    <path id="Path_216" data-name="Path 216" d="M121.254,96.37a3.2,3.2,0,0,0,2.232,1.128c.071,0,.143.007.213.007a3.2,3.2,0,0,0,2.147-.827l23.208-21a3.2,3.2,0,0,0-4.295-4.748L124.005,89.709,118.082,82.7a3.2,3.2,0,1,0-4.888,4.133Z" transform="translate(-59.31 -36.981)" fill="#18604e"/>
    <path id="Path_217" data-name="Path 217" d="M44.108,175.561A10.255,10.255,0,0,0,27.071,176.6l-.941-1.225a6.282,6.282,0,0,1-1.294-3.81V142.683a10.7,10.7,0,0,0-21.352-1.01L.058,177.806a12.632,12.632,0,0,0,2.524,8.855l27.208,35.43v8.222a3.2,3.2,0,1,0,6.4,0V221a3.2,3.2,0,0,0-.663-1.949L7.672,182.778a6.234,6.234,0,0,1-1.241-4.369l3.428-36.131a4.3,4.3,0,0,1,8.574.4v28.878a12.724,12.724,0,0,0,2.62,7.709l6.7,8.726.03.041,5.406,7.041a3.2,3.2,0,0,0,5.077-3.9l-5.423-7.064a3.888,3.888,0,0,1,.679-5.363,3.868,3.868,0,0,1,5.49.686l12.923,16.982a19.424,19.424,0,0,1,3.944,11.7v22.2a3.2,3.2,0,1,0,6.4,0v-22.2a25.861,25.861,0,0,0-5.251-15.573Z" transform="translate(0 -69.621)" fill="#18604e"/>
    <path id="Path_218" data-name="Path 218" d="M229.307,177.806l-3.428-36.133a10.7,10.7,0,0,0-21.352,1.01v28.878a6.284,6.284,0,0,1-1.294,3.81l-.941,1.225a10.267,10.267,0,0,0-17.037-1.036l-12.923,16.983a25.872,25.872,0,0,0-5.25,15.574v22.2a3.2,3.2,0,0,0,6.4,0v-22.2a19.423,19.423,0,0,1,3.944-11.7l12.922-16.983a3.871,3.871,0,0,1,6.17,4.678l-5.423,7.063a3.2,3.2,0,1,0,5.078,3.9l5.406-7.041.029-.038,6.7-8.729a12.725,12.725,0,0,0,2.618-7.71V142.684a4.3,4.3,0,0,1,8.577-.4l3.428,36.131a6.235,6.235,0,0,1-1.23,4.353l-27.87,36.291a3.207,3.207,0,0,0-.661,1.95v9.309a3.2,3.2,0,0,0,6.4,0V222.09l27.219-35.446a12.637,12.637,0,0,0,2.513-8.839" transform="translate(-88.135 -69.621)" fill="#18604e"/>
    <path id="Path_219" data-name="Path 219" d="M82.652,69.4a3.2,3.2,0,1,0-1.2-3.838,3.227,3.227,0,0,0,1.2,3.838" transform="translate(-42.852 -33.514)" fill="#18604e"/>
  </g>
</svg>
