<svg id="Group_44" data-name="Group 44" xmlns="http://www.w3.org/2000/svg" xmlns:xlink="http://www.w3.org/1999/xlink" width="152.679" height="184.115" viewBox="0 0 152.679 184.115">
  <defs>
    <clipPath id="clip-path">
      <rect id="Rectangle_41" data-name="Rectangle 41" width="152.679" height="184.115" fill="none"/>
    </clipPath>
  </defs>
  <g id="Group_43" data-name="Group 43" clip-path="url(#clip-path)">
    <path id="Path_222" data-name="Path 222" d="M150.581,178.374A80.3,80.3,0,0,0,133.1,169.48c-10.95-4.214-29.171-9.211-54.406-9.5a54.767,54.767,0,0,1,12.8-29.075,33.651,33.651,0,0,0,31.813-3.808,34.609,34.609,0,0,0,15.215-29.562,2.7,2.7,0,0,0-1.508-2.223,28.181,28.181,0,0,0-6.265-1.972,51.563,51.563,0,0,0,6.569-15.272c.845-3.375-4.389-4.682-5.233-1.307a46.4,46.4,0,0,1-7.389,15.9,34.414,34.414,0,0,0-20.686,6.379,33.521,33.521,0,0,0-11.277,13.084,47.111,47.111,0,0,1-11.557.043c5.48-7.392,19.763-25.3,35.844-34.662,3.006-1.749.294-6.413-2.714-4.661-15.648,9.1-29.268,25.31-35.833,33.916a47.31,47.31,0,0,1,41.93-49.516,45.2,45.2,0,0,1,12.526.38,44,44,0,0,1,.585,6.532c.06,3.447,5.454,3.405,5.392-.094a43.134,43.134,0,0,0-1.077-9.39,2.7,2.7,0,0,0-1.888-1.914,46.821,46.821,0,0,0-15.86-.9,52.214,52.214,0,0,0-31.993,15.5q-1.4,1.41-2.639,2.854c1.515-4.666,3.169-9.709,4.858-14.781A33.805,33.805,0,0,0,112.442,33.8,34.644,34.644,0,0,0,107.228.943a2.7,2.7,0,0,0-2.54-.9c-.723.133-17.785,3.5-24.376,22.617-5.471,15.871,2.326,28.275,4.71,31.545-1.573,4.723-3.109,9.408-4.527,13.773a50.848,50.848,0,0,0-10.406-24.1A52.247,52.247,0,0,0,40.148,24.706a46.813,46.813,0,0,0-15.856-.983,2.7,2.7,0,0,0-2.1,1.68,45.947,45.947,0,0,0-2.474,11.867c-.3,3.467,5.075,3.93,5.376.465a45.49,45.49,0,0,1,1.618-8.823,45.267,45.267,0,0,1,12.48,1.108,46.42,46.42,0,0,1,26.659,17.2,45.387,45.387,0,0,1,9.838,29.333,50.664,50.664,0,0,1-.95,9.074A171.77,171.77,0,0,0,48.3,49.823c-2.455-2.465-6.275,1.343-3.821,3.806.16.161,15.733,15.908,26.048,35.566a47.189,47.189,0,0,1-9.044-1.1A45.023,45.023,0,0,1,35.235,71.414a47.555,47.555,0,0,1-9.393-20.062c-.69-3.411-5.977-2.343-5.288,1.067A52.9,52.9,0,0,0,30.993,74.745,51.284,51.284,0,0,0,73.017,94.582V140c-.814-1.755-1.693-3.416-2.618-4.989A40.453,40.453,0,0,0,54.838,99.39,41.077,41.077,0,0,0,15.8,92.443a2.7,2.7,0,0,0-1.673,2.105c-.131.869-3,21.48,15.957,36.42a40.071,40.071,0,0,0,25.213,8.75,43.07,43.07,0,0,0,10.858-1.382A51.916,51.916,0,0,1,72.8,160a172.368,172.368,0,0,0-38.75,4.782c-3.375.843-2.068,6.076,1.308,5.233a167.071,167.071,0,0,1,37.661-4.622v6.2c0,3.478,5.394,3.478,5.394,0v-6.216c31.807.316,52.136,8.1,62.246,13.344H11.882A88.643,88.643,0,0,1,22,174.174c3.252-1.236,1.334-6.28-1.918-5.042A87.54,87.54,0,0,0,5.746,176C0,179.506,0,180.35,0,181.418a2.7,2.7,0,0,0,2.7,2.7H150.132c4.1,0,2.488-4.306.45-5.741m-43.5-74.9a28.8,28.8,0,0,1,26.073-3.913,29.366,29.366,0,0,1-12.91,23.1,28.29,28.29,0,0,1-24.653,3.98,66.217,66.217,0,0,1,19.37-12.357c3.2-1.369,1.075-6.327-2.124-4.957A73.273,73.273,0,0,0,95.687,119.5a28.485,28.485,0,0,1,11.392-16.018M86.736,117.9c1.206,0,2.495-.043,3.845-.141a36.4,36.4,0,0,0-1.354,7.7,59.775,59.775,0,0,0-10.816,15.97V117.22a49.445,49.445,0,0,0,8.325.684M85.412,24.421A28.922,28.922,0,0,1,104.1,5.762a29.424,29.424,0,0,1,3.242,26.278,28.361,28.361,0,0,1-14.8,16.748c3.5-10.351,6.962-20.156,9.474-26.313,1.313-3.221-3.683-5.259-5-2.038-2.62,6.424-6.188,16.542-9.769,27.133a28.972,28.972,0,0,1-1.835-23.149M33.426,126.732a35.826,35.826,0,0,1-13.2-20.506,35.4,35.4,0,0,1-.892-9.262A36.223,36.223,0,0,1,51.5,103.627a34.754,34.754,0,0,1,12.8,20.183c.263,1.182.45,2.305.581,3.354a63.283,63.283,0,0,0-5.383-5.724A65.146,65.146,0,0,0,40.567,108.9c-3.242-1.264-5.2,3.762-1.957,5.025a60.514,60.514,0,0,1,17.2,11.445,57.989,57.989,0,0,1,7.223,8.144,35.865,35.865,0,0,1-29.6-6.784" transform="translate(0 0)" fill="#18604e"/>
  </g>
</svg>
